<?xml version="1.0" encoding="utf-8"?>
<!-- Generator: Adobe Illustrator 27.3.1, SVG Export Plug-In . SVG Version: 6.00 Build 0)  -->
<svg version="1.1" id="Layer_1" xmlns="http://www.w3.org/2000/svg" xmlns:xlink="http://www.w3.org/1999/xlink" x="0px" y="0px"
	 viewBox="0 0 3000 3000" style="enable-background:new 0 0 3000 3000;" xml:space="preserve">
<style type="text/css">
	.st0{display:none;}
	.st1{display:inline;}
	.st2{fill:url(#SVGID_1_);}
	.st3{fill:url(#SVGID_00000176027570388512722590000009942695635912003469_);}
	.st4{fill:url(#SVGID_00000119836044245170182920000017066614105736187527_);}
	.st5{fill:url(#SVGID_00000038373875067669000790000012795401563011510707_);}
	.st6{fill:url(#SVGID_00000130620590525437670440000001578419114783793087_);}
	.st7{fill:url(#SVGID_00000009578052093918419770000001243201745610054796_);}
	.st8{fill:url(#SVGID_00000129194323611986636180000006522671134527009706_);}
	.st9{fill:url(#SVGID_00000165218379432239677870000005901537303845615547_);}
	.st10{fill:url(#SVGID_00000132052335903281452170000004969953262818403246_);}
	.st11{fill:url(#SVGID_00000042695846191417197160000013727648537255293855_);}
	.st12{fill:url(#SVGID_00000164491138100751774280000003812879727583194540_);}
	.st13{fill:url(#SVGID_00000106141047218992130330000015628459921198981822_);}
	.st14{fill:url(#SVGID_00000101078820288379793760000004865728259589928597_);}
	.st15{fill:url(#SVGID_00000095320857183917407680000000456478663187359121_);}
	.st16{fill:url(#SVGID_00000081645450870776438380000011235414491721556908_);}
	.st17{fill:url(#SVGID_00000067205690436086888310000011190732455227954568_);}
	.st18{fill:url(#SVGID_00000176044948573210127550000006757748847134093236_);}
	.st19{fill:url(#SVGID_00000125575484639087084210000012981395072868544190_);}
	.st20{fill:url(#SVGID_00000112609689498480900910000009888273429885644980_);}
	.st21{display:none;fill:url(#SVGID_00000165916667111592611670000013013431674691635093_);}
	.st22{fill:#FFFFFF;}
	.st23{fill:url(#SVGID_00000114066671422839981330000003945597254645246116_);}
	.st24{fill:none;stroke:#F1F2F2;stroke-width:2;stroke-miterlimit:10;}
	.st25{fill:url(#SVGID_00000169544311770209565990000012416182167973108633_);}
	.st26{fill:url(#SVGID_00000145738930389094278970000010848312290437600420_);}
	.st27{fill:url(#SVGID_00000060007923670187055970000018119146589611438244_);}
	.st28{fill:url(#SVGID_00000137824477697384527010000007713978626556117907_);}
	.st29{fill:url(#SVGID_00000134942240102700217680000016736642575549563537_);}
	.st30{fill:url(#SVGID_00000108990765540428150800000004482463295547993473_);}
	.st31{fill:url(#SVGID_00000176020664042165752110000015810134864937576585_);}
	.st32{fill:url(#SVGID_00000021823743214137233070000003039051742340957593_);}
	.st33{fill:url(#SVGID_00000110455154021200144860000010401328756338068121_);}
	.st34{fill:url(#SVGID_00000131341632940032707360000006534708723417602486_);}
	.st35{fill:url(#SVGID_00000107547789788222310300000010621350880496849031_);}
	.st36{fill:url(#SVGID_00000048469298386481195990000002845007611482595999_);}
	.st37{fill:url(#SVGID_00000057870665670545291150000000301616547435928245_);}
	.st38{fill:url(#SVGID_00000136398629588686567140000009122507603471148932_);}
	.st39{fill:url(#SVGID_00000168814284151760704740000001458568144568970121_);}
	.st40{fill:url(#SVGID_00000121995761680502131610000003884435117103929489_);}
	.st41{fill:url(#SVGID_00000088123350482193893460000017092084540636015003_);}
	.st42{fill:url(#SVGID_00000180358373603417216090000000289552193160350623_);}
	.st43{fill:url(#SVGID_00000017480238924146460390000014572071438269783971_);}
	.st44{display:none;fill:url(#SVGID_00000047739372984418769690000013956329519323072659_);}
	.st45{fill:url(#SVGID_00000048490060149311092930000004869799038278555062_);}
	.st46{fill:url(#SVGID_00000114770472000673657710000004818129064888150169_);}
	.st47{fill:url(#SVGID_00000054231821647425981600000017659416301499266950_);}
	.st48{fill:url(#SVGID_00000114780085884314438980000012818577559045007029_);}
	.st49{fill:url(#SVGID_00000099623257749758874780000007233756050772093327_);}
	.st50{fill:url(#SVGID_00000063591512136825942900000002936437195281613199_);}
	.st51{fill:url(#SVGID_00000049936617001393752540000002227110190483716737_);}
	.st52{fill:url(#SVGID_00000170244855427227941440000008203148834061528461_);}
	.st53{fill:url(#SVGID_00000005949536013100844850000006083633621511575463_);}
	.st54{fill:url(#SVGID_00000033359788311490692040000000348928059827472778_);}
	.st55{fill:url(#SVGID_00000095329736021650026350000018215538728142423723_);}
	.st56{fill:url(#SVGID_00000101078311867841871060000017053252900616692660_);}
	.st57{fill:url(#SVGID_00000023279157438047792230000017408967957277977532_);}
	.st58{fill:url(#SVGID_00000011018670142504448270000006030596360673592961_);}
	.st59{fill:url(#SVGID_00000160897294161990608350000004082837146820132257_);}
	.st60{fill:url(#SVGID_00000129889867215771283460000009375587785058411923_);}
	.st61{fill:url(#SVGID_00000090986630693989666210000014022665899874301088_);}
	.st62{fill:url(#SVGID_00000013173580022278058460000004778180515589091255_);}
	.st63{fill:url(#SVGID_00000064326976327263720470000010225956188431710594_);}
	.st64{display:none;fill:url(#SVGID_00000032647810621532795080000013246951360435868290_);}
	.st65{fill:#262262;}
	.st66{fill:none;stroke:#262262;stroke-width:2;stroke-miterlimit:10;}
	.st67{fill:url(#SVGID_00000173880324198936339150000013280573936388559781_);}
	.st68{fill:url(#SVGID_00000150814906413287016160000010870592628829760950_);}
	.st69{fill:url(#SVGID_00000048489513836991298380000003530851637062925230_);}
	.st70{fill:url(#SVGID_00000054268198149933248620000007605090803688917693_);}
	.st71{fill:url(#SVGID_00000150062801131613330700000008474447987864786836_);}
	.st72{fill:url(#SVGID_00000077293619108996512080000014323583527528149654_);}
	.st73{fill:url(#SVGID_00000124150967366954008980000015858040353578291102_);}
	.st74{fill:url(#SVGID_00000062166215001564735760000013616553447854891185_);}
	.st75{fill:url(#SVGID_00000173842313640165344200000014988612164821463472_);}
	.st76{fill:url(#SVGID_00000052810392680374682490000007710370308923062669_);}
	.st77{fill:url(#SVGID_00000145045935287823901960000000496245296959515012_);}
	.st78{fill:url(#SVGID_00000058574723398740059580000004245352754433372326_);}
	.st79{fill:url(#SVGID_00000075843453402475542980000003058542162897694875_);}
	.st80{fill:url(#SVGID_00000160887344860530410500000009812623424166342069_);}
	.st81{fill:url(#SVGID_00000021108553086622408330000009258888542287763857_);}
	.st82{fill:url(#SVGID_00000134237564329231782240000017346850216326402238_);}
	.st83{fill:url(#SVGID_00000047033918131460468400000014475109273340636575_);}
	.st84{fill:url(#SVGID_00000114771214021047736430000003686129821490160300_);}
	.st85{fill:url(#SVGID_00000128468737953685150670000013290737457579541137_);}
	.st86{display:none;fill:url(#SVGID_00000050655788435323332990000002975094043187504319_);}
	.st87{fill:url(#SVGID_00000106868652106193979170000002519776201831393680_);}
	.st88{fill:url(#SVGID_00000143603272179727739210000015413226949799040949_);}
	.st89{fill:url(#SVGID_00000176016049000131789880000006301609704736337849_);}
	.st90{fill:url(#SVGID_00000057117655466572519200000015674044268660562311_);}
	.st91{fill:url(#SVGID_00000080892772525479189950000000406632525896128923_);}
	.st92{fill:url(#SVGID_00000119078830836896464210000015342493495168300454_);}
	.st93{fill:url(#SVGID_00000158745383096582428310000004997408185101924748_);}
	.st94{fill:url(#SVGID_00000119085144638619943020000000879796567023120048_);}
	.st95{fill:url(#SVGID_00000052819149572436697560000001983454917620778154_);}
	.st96{fill:url(#SVGID_00000183942740954440208120000002739459612498276534_);}
	.st97{fill:url(#SVGID_00000150102577955355106030000012931978826104195235_);}
	.st98{fill:url(#SVGID_00000007395033638410138410000012918738669984413600_);}
	.st99{fill:url(#SVGID_00000040568075404372584060000017038513760985456780_);}
	.st100{fill:url(#SVGID_00000034074909323541394700000008403737176955758978_);}
	.st101{fill:url(#SVGID_00000135667853459221192220000016243346278285403821_);}
	.st102{fill:url(#SVGID_00000005263166494402769480000002403880181998980534_);}
	.st103{fill:url(#SVGID_00000174568242407564702980000018184198336770372741_);}
	.st104{fill:url(#SVGID_00000178910140410108675700000011643018263626100620_);}
	.st105{fill:url(#SVGID_00000049913134000312836210000010447058493540648082_);}
	.st106{display:none;fill:url(#SVGID_00000173140340790977087610000007471059873974579883_);}
	.st107{fill:url(#SVGID_00000010996096473321130590000002653556946472847516_);}
	.st108{fill:url(#SVGID_00000141421545546502550750000002153869272770036911_);}
	.st109{fill:url(#SVGID_00000060709904327823450110000008306740446886521279_);}
	.st110{fill:url(#SVGID_00000161629241730819807770000007351830815158969507_);}
	.st111{fill:url(#SVGID_00000166652576133317822080000002266400343964904321_);}
	.st112{fill:url(#SVGID_00000170999057014583709520000016598378856451969471_);}
	.st113{fill:url(#SVGID_00000031181522710763914890000014185369757747078330_);}
	.st114{fill:url(#SVGID_00000044857250807191317380000001007719281173619852_);}
	.st115{fill:url(#SVGID_00000082369682241510446020000000110663765141860267_);}
	.st116{fill:url(#SVGID_00000156550608581496591530000016091754140029821838_);}
	.st117{fill:url(#SVGID_00000047060489575092441870000014425218073109566378_);}
	.st118{fill:url(#SVGID_00000051369477541181460710000003311506117898772413_);}
	.st119{fill:url(#SVGID_00000051360629723513300720000010607014210106092701_);}
	.st120{fill:url(#SVGID_00000002362860469673747980000012692400185639323292_);}
	.st121{fill:url(#SVGID_00000132779206942597964550000006623916386712758933_);}
	.st122{fill:url(#SVGID_00000042721454627871023130000016370510684662819470_);}
	.st123{fill:url(#SVGID_00000089557757763402154640000012967618446384500120_);}
	.st124{fill:url(#SVGID_00000109735094133762762350000008846855275097632652_);}
	.st125{fill:url(#SVGID_00000111161718563417256130000002573239054724043440_);}
	.st126{display:none;fill:url(#SVGID_00000008111202350904304000000018068828675594815641_);}
	.st127{fill:#CAA382;}
	.st128{fill:#1D3539;}
	.st129{fill:none;stroke:#1D3539;stroke-width:3;stroke-miterlimit:10;}
	.st130{display:none;fill:#1D3539;}
	.st131{fill:none;stroke:#FFFFFF;stroke-width:2;stroke-miterlimit:10;}
	.st132{display:none;fill:#CAA382;}
	.st133{fill:#FF8D3B;}
	.st134{fill:#E93E8D;}
</style>
<g>
	<g>
		<linearGradient id="SVGID_1_" gradientUnits="userSpaceOnUse" x1="2382.4707" y1="806.2943" x2="704.9791" y2="2764.4072">
			<stop  offset="0" style="stop-color:#FF8D3B"/>
			<stop  offset="0.1341" style="stop-color:#F97850"/>
			<stop  offset="0.3406" style="stop-color:#F25F6B"/>
			<stop  offset="0.5519" style="stop-color:#ED4D7E"/>
			<stop  offset="0.7689" style="stop-color:#EA4289"/>
			<stop  offset="1" style="stop-color:#E93E8D"/>
		</linearGradient>
		<path class="st2" d="M1625.62,1836.24c0.07-5.09,1.77-10.17,5.16-14.48c0.14-0.21,0.28-0.42,0.42-0.63c0.07,0,0.07,0,0.07-0.07
			c0.07,0,0.07-0.07,0.14-0.14c0.07-0.07,0.07-0.14,0.14-0.21c0.71-0.78,1.84-2.47,2.83-4.52c0.99-2.05,1.9-4.45,2.54-6.64
			c0.14-0.5,0.21-0.92,0.35-1.2v-99.38h-46.9c-8.55,0-16.39-4.95-19.99-12.71l-0.42-1.06c-0.07,0-0.07-0.07-0.07-0.07l-0.14-0.28
			l-0.07-0.14c-5.79-13.49-15.47-25-27.54-33.12c-12.08-8.05-26.42-12.78-42.17-12.78c-15.68,0-30.02,4.73-42.1,12.78
			c-12.08,8.12-21.75,19.63-27.55,32.98c0,0.07,0,0.07-0.07,0.14l-0.42,0.99c-3.53,8.05-11.44,13.28-20.2,13.28h-46.9v99.23
			c0.07,0.5,0.21,0.92,0.35,1.34c0.63,2.26,1.55,4.66,2.54,6.71c0.99,1.98,2.12,3.67,2.82,4.45c0.07,0.07,0.07,0.07,0.07,0.14
			l0.21,0.21v0.07c0.21,0.21,0.36,0.42,0.5,0.71c3.39,4.24,5.16,9.39,5.08,14.55v0.07c0,5.37-1.83,10.81-5.51,15.26l-0.28,0.28
			c-0.07,0-0.07,0.07-0.07,0.07c-0.7,0.78-1.83,2.47-2.82,4.52c-0.99,2.05-1.91,4.45-2.61,6.64c-0.07,0.5-0.21,0.92-0.28,1.34v99.24
			h46.9c8.76,0,16.67,5.22,20.2,13.28l0.42,1.06h0.07c5.79,13.42,15.47,24.93,27.55,33.06c12.08,8.12,26.42,12.78,42.1,12.78
			c15.75,0,30.09-4.66,42.17-12.78c12.08-8.12,21.75-19.64,27.54-33.06l0.07-0.21l0.14-0.21c0-0.07,0-0.07,0.07-0.14l0.42-0.99
			c3.6-7.84,11.44-12.78,19.99-12.78h46.9v-99.31c-0.14-0.36-0.21-0.71-0.35-1.13v-0.07c-0.64-2.26-1.56-4.66-2.54-6.71
			c-0.99-2.05-2.12-3.74-2.83-4.52c-0.07,0-0.07-0.07-0.07-0.14c-0.07-0.07-0.14-0.14-0.21-0.21c0,0,0,0-0.07-0.07
			c-0.14-0.14-0.28-0.42-0.42-0.64c-3.39-4.31-5.16-9.46-5.16-14.55V1836.24z M1525.68,1819.86l19,141.61h-93.02l19-141.61
			c-18.01-9.82-30.23-28.89-30.23-50.79c0-31.92,25.85-57.77,57.77-57.77c31.86,0,57.7,25.85,57.7,57.77
			C1555.91,1790.97,1543.69,1810.04,1525.68,1819.86z"/>
		
			<linearGradient id="SVGID_00000092449600294612074980000007722485994020404112_" gradientUnits="userSpaceOnUse" x1="2382.4578" y1="806.2833" x2="704.9662" y2="2764.3962">
			<stop  offset="0" style="stop-color:#FF8D3B"/>
			<stop  offset="0.1341" style="stop-color:#F97850"/>
			<stop  offset="0.3406" style="stop-color:#F25F6B"/>
			<stop  offset="0.5519" style="stop-color:#ED4D7E"/>
			<stop  offset="0.7689" style="stop-color:#EA4289"/>
			<stop  offset="1" style="stop-color:#E93E8D"/>
		</linearGradient>
		<path style="fill:url(#SVGID_00000092449600294612074980000007722485994020404112_);" d="M1642.92,1830.87l0.07-0.07
			c3.96-4.59,6.78-10.88,8.62-17.16c0.28-1.13,0.56-1.98,0.78-2.82c0.07-0.35,0.07-0.78,0.07-1.2V1698.8c0-1.34-0.49-2.61-1.48-3.6
			c-0.92-0.92-2.19-1.48-3.6-1.48h-57c-2.68,0-5.01-1.55-6.14-3.88l-0.49-0.99l-0.07-0.28c-6.99-16.17-18.57-29.95-32.98-39.62
			c-14.48-9.68-31.92-15.4-50.71-15.4c-9.39,0-18.43,1.48-26.91,4.03c-8.47,2.68-16.45,6.57-23.73,11.37
			c-14.48,9.75-26.06,23.52-33.06,39.69l-0.42,0.99c-1.06,2.47-3.53,4.1-6.21,4.1h-57.07c-1.34,0-2.61,0.57-3.6,1.48
			c-0.92,0.99-1.48,2.26-1.48,3.6v110.75c0,0.42,0.07,0.84,0.14,1.2c0.21,0.92,0.49,1.83,0.71,2.82l0.07,0.14
			c1.83,6.21,4.66,12.5,8.62,17.09l0.07,0.07c1.34,1.63,2.05,3.6,2.05,5.51v0.07c0,1.91-0.71,3.81-2.05,5.44l-0.07,0.07
			c-3.96,4.59-6.78,10.88-8.62,17.16l-0.07,0.07c-0.21,0.99-0.5,1.91-0.71,2.82c-0.07,0.42-0.14,0.85-0.14,1.27v110.68
			c0,1.34,0.57,2.68,1.48,3.6c0.99,0.99,2.26,1.49,3.6,1.49h57.07c2.68,0,5.16,1.62,6.21,4.09l0.42,0.99v0.07
			c6.99,16.17,18.58,29.88,33.06,39.63c14.48,9.75,31.85,15.4,50.64,15.4c9.39,0,18.44-1.41,26.98-4.02
			c8.47-2.68,16.45-6.5,23.73-11.37c14.41-9.68,25.99-23.45,32.98-39.55l0.07-0.28l0.49-1.06c1.13-2.33,3.46-3.88,6.14-3.88h57
			c1.41,0,2.68-0.5,3.6-1.49c0.99-0.92,1.48-2.26,1.48-3.6v-110.82c0-0.42,0-0.85-0.14-1.27c-0.21-0.78-0.42-1.69-0.71-2.68
			c-1.84-6.29-4.66-12.57-8.62-17.23l-0.07-0.07c-1.35-1.62-2.05-3.53-2.05-5.44v-0.07
			C1640.88,1834.48,1641.58,1832.5,1642.92,1830.87z M1635.15,1848.46l0.14,0.14v0.07c2.47,2.69,5.08,8.13,6.5,13.28
			c0.21,0.7,0.42,1.27,0.57,1.83v105.1h-51.99c-6.57,0-12.57,3.81-15.33,9.82l-0.49,0.99l-0.07,0.07l-0.14,0.28v0.07
			c-6.22,14.41-16.53,26.63-29.38,35.31c-12.86,8.61-28.25,13.63-44.99,13.63c-16.67,0-32.07-5.01-44.99-13.63
			c-12.85-8.69-23.17-20.91-29.38-35.31l-0.42-0.99c-2.68-6.21-8.83-10.24-15.54-10.24h-51.98v-104.96
			c0.14-0.71,0.35-1.34,0.49-2.05c1.48-5.16,4.17-10.59,6.57-13.21v-0.07l0.21-0.14c2.9-3.53,4.31-7.77,4.31-12.01v-0.07
			c0-4.24-1.41-8.55-4.38-12.01v-0.07l-0.14-0.14v-0.07c-2.47-2.61-5.09-7.98-6.5-13.14c-0.21-0.71-0.42-1.41-0.57-2.05v-105.03
			h51.98c6.71,0,12.86-4.02,15.54-10.17l0.42-1.06c6.21-14.34,16.53-26.63,29.38-35.24c12.93-8.69,28.32-13.71,44.99-13.71
			c16.74,0,32.14,5.01,44.99,13.71c12.85,8.61,23.17,20.91,29.38,35.24v0.07l0.14,0.28l0.07,0.07l0.49,0.99
			c2.76,6,8.76,9.82,15.33,9.82h51.99v105.1c-0.14,0.57-0.35,1.13-0.57,1.91c-1.41,5.16-4.02,10.52-6.5,13.21v0.07l-0.14,0.14v0.07
			c-2.9,3.46-4.38,7.7-4.45,11.94v0.14C1630.71,1840.69,1632.19,1844.93,1635.15,1848.46z"/>
		
			<linearGradient id="SVGID_00000024697821755942975710000008366898901031138178_" gradientUnits="userSpaceOnUse" x1="2235.8083" y1="680.6505" x2="558.3168" y2="2638.7634">
			<stop  offset="0" style="stop-color:#FF8D3B"/>
			<stop  offset="0.1341" style="stop-color:#F97850"/>
			<stop  offset="0.3406" style="stop-color:#F25F6B"/>
			<stop  offset="0.5519" style="stop-color:#ED4D7E"/>
			<stop  offset="0.7689" style="stop-color:#EA4289"/>
			<stop  offset="1" style="stop-color:#E93E8D"/>
		</linearGradient>
		<path style="fill:url(#SVGID_00000024697821755942975710000008366898901031138178_);" d="M1455.23,1605.08
			c0.66,0.66,1.73,0.66,2.4,0c0.66-0.66,0.66-1.73,0-2.4l-12.43-12.43c-0.66-0.66-1.73-0.66-2.4,0c-0.66,0.66-0.66,1.73,0,2.4
			L1455.23,1605.08z"/>
		
			<linearGradient id="SVGID_00000163758130879818238550000012968321205686907065_" gradientUnits="userSpaceOnUse" x1="2254.0459" y1="696.2744" x2="576.5544" y2="2654.3872">
			<stop  offset="0" style="stop-color:#FF8D3B"/>
			<stop  offset="0.1341" style="stop-color:#F97850"/>
			<stop  offset="0.3406" style="stop-color:#F25F6B"/>
			<stop  offset="0.5519" style="stop-color:#ED4D7E"/>
			<stop  offset="0.7689" style="stop-color:#EA4289"/>
			<stop  offset="1" style="stop-color:#E93E8D"/>
		</linearGradient>
		<path style="fill:url(#SVGID_00000163758130879818238550000012968321205686907065_);" d="M1499.84,1587.13
			c0.94,0,1.69-0.76,1.69-1.69v-17.58c0-0.94-0.76-1.69-1.69-1.69c-0.94,0-1.69,0.76-1.69,1.69v17.58
			C1498.15,1586.37,1498.91,1587.13,1499.84,1587.13z"/>
		
			<linearGradient id="SVGID_00000039095368170756189970000006281953225630805902_" gradientUnits="userSpaceOnUse" x1="2265.6833" y1="706.244" x2="588.1917" y2="2664.3567">
			<stop  offset="0" style="stop-color:#FF8D3B"/>
			<stop  offset="0.1341" style="stop-color:#F97850"/>
			<stop  offset="0.3406" style="stop-color:#F25F6B"/>
			<stop  offset="0.5519" style="stop-color:#ED4D7E"/>
			<stop  offset="0.7689" style="stop-color:#EA4289"/>
			<stop  offset="1" style="stop-color:#E93E8D"/>
		</linearGradient>
		<path style="fill:url(#SVGID_00000039095368170756189970000006281953225630805902_);" d="M1515.38,1589.02
			c0.9,0.24,1.83-0.29,2.08-1.2l4.55-16.98c0.24-0.9-0.29-1.83-1.2-2.08c-0.9-0.24-1.83,0.29-2.08,1.2l-4.55,16.98
			C1513.94,1587.85,1514.47,1588.78,1515.38,1589.02z"/>
		
			<linearGradient id="SVGID_00000030483350477399148710000008192530906967077538_" gradientUnits="userSpaceOnUse" x1="2278.9214" y1="717.5848" x2="601.4297" y2="2675.6978">
			<stop  offset="0" style="stop-color:#FF8D3B"/>
			<stop  offset="0.1341" style="stop-color:#F97850"/>
			<stop  offset="0.3406" style="stop-color:#F25F6B"/>
			<stop  offset="0.5519" style="stop-color:#ED4D7E"/>
			<stop  offset="0.7689" style="stop-color:#EA4289"/>
			<stop  offset="1" style="stop-color:#E93E8D"/>
		</linearGradient>
		<path style="fill:url(#SVGID_00000030483350477399148710000008192530906967077538_);" d="M1529.89,1594.88
			c0.81,0.47,1.85,0.19,2.31-0.62l8.79-15.23c0.47-0.81,0.19-1.85-0.62-2.31c-0.81-0.47-1.85-0.19-2.31,0.62l-8.79,15.23
			C1528.8,1593.37,1529.08,1594.41,1529.89,1594.88z"/>
		
			<linearGradient id="SVGID_00000150794587235631328830000016426382720804284343_" gradientUnits="userSpaceOnUse" x1="2292.8577" y1="729.5239" x2="615.3661" y2="2687.6367">
			<stop  offset="0" style="stop-color:#FF8D3B"/>
			<stop  offset="0.1341" style="stop-color:#F97850"/>
			<stop  offset="0.3406" style="stop-color:#F25F6B"/>
			<stop  offset="0.5519" style="stop-color:#ED4D7E"/>
			<stop  offset="0.7689" style="stop-color:#EA4289"/>
			<stop  offset="1" style="stop-color:#E93E8D"/>
		</linearGradient>
		<path style="fill:url(#SVGID_00000150794587235631328830000016426382720804284343_);" d="M1544.79,1604.29l12.43-12.43
			c0.66-0.66,0.66-1.73,0-2.4c-0.66-0.66-1.73-0.66-2.4,0l-12.43,12.43c-0.66,0.66-0.66,1.73,0,2.4
			C1543.06,1604.95,1544.13,1604.95,1544.79,1604.29z"/>
		
			<linearGradient id="SVGID_00000088831919577885793160000001733194154926682281_" gradientUnits="userSpaceOnUse" x1="2238.5815" y1="683.0261" x2="561.0898" y2="2641.1389">
			<stop  offset="0" style="stop-color:#FF8D3B"/>
			<stop  offset="0.1341" style="stop-color:#F97850"/>
			<stop  offset="0.3406" style="stop-color:#F25F6B"/>
			<stop  offset="0.5519" style="stop-color:#ED4D7E"/>
			<stop  offset="0.7689" style="stop-color:#EA4289"/>
			<stop  offset="1" style="stop-color:#E93E8D"/>
		</linearGradient>
		<path style="fill:url(#SVGID_00000088831919577885793160000001733194154926682281_);" d="M1467.63,1594.82
			c0.47,0.81,1.5,1.09,2.31,0.62c0.81-0.47,1.09-1.5,0.62-2.31l-8.79-15.23c-0.47-0.81-1.5-1.09-2.31-0.62
			c-0.81,0.47-1.09,1.5-0.62,2.31L1467.63,1594.82z"/>
		
			<linearGradient id="SVGID_00000067916128260434361970000005169824404836923552_" gradientUnits="userSpaceOnUse" x1="2244.802" y1="688.3552" x2="567.3104" y2="2646.468">
			<stop  offset="0" style="stop-color:#FF8D3B"/>
			<stop  offset="0.1341" style="stop-color:#F97850"/>
			<stop  offset="0.3406" style="stop-color:#F25F6B"/>
			<stop  offset="0.5519" style="stop-color:#ED4D7E"/>
			<stop  offset="0.7689" style="stop-color:#EA4289"/>
			<stop  offset="1" style="stop-color:#E93E8D"/>
		</linearGradient>
		<path style="fill:url(#SVGID_00000067916128260434361970000005169824404836923552_);" d="M1482.27,1588.12
			c0.24,0.9,1.17,1.44,2.08,1.2c0.9-0.24,1.44-1.17,1.2-2.08l-4.55-16.98c-0.24-0.9-1.17-1.44-2.08-1.2
			c-0.9,0.24-1.44,1.17-1.2,2.08L1482.27,1588.12z"/>
		
			<linearGradient id="SVGID_00000085214807526718599800000007017835375481906337_" gradientUnits="userSpaceOnUse" x1="2382.4507" y1="806.2772" x2="704.9592" y2="2764.3901">
			<stop  offset="0" style="stop-color:#FF8D3B"/>
			<stop  offset="0.1341" style="stop-color:#F97850"/>
			<stop  offset="0.3406" style="stop-color:#F25F6B"/>
			<stop  offset="0.5519" style="stop-color:#ED4D7E"/>
			<stop  offset="0.7689" style="stop-color:#EA4289"/>
			<stop  offset="1" style="stop-color:#E93E8D"/>
		</linearGradient>
		<path style="fill:url(#SVGID_00000085214807526718599800000007017835375481906337_);" d="M1664.75,1932.3
			c-0.78-2.76-1.34-5.3-1.55-7.06c-0.14-0.92-0.28-1.62-0.36-2.12c0-0.56-0.07-0.78-0.07-0.78c0-0.14-0.07-0.28-0.14-0.42v-60.1
			c0.42-1.56,0.78-2.97,1.2-4.52c1.98-6.78,5.16-14.13,10.03-19.78c0.57-0.64,0.57-1.63,0-2.26c-4.87-5.58-8.05-12.93-10.03-19.71
			c-0.42-1.55-0.78-3.03-1.2-4.52v-60.11c0.07-0.14,0.14-0.28,0.14-0.49c0,0,0.07-0.21,0.07-0.71c0.21-1.77,0.85-6.29,2.54-11.37
			c1.7-5.01,4.45-10.53,8.69-14.2l1.41-1.2l-1.41-1.34c-4.87-4.17-7.77-10.74-9.32-16.24c-0.78-2.83-1.34-5.3-1.55-7.14
			c-0.14-0.92-0.28-1.62-0.36-2.12c0-0.5-0.07-0.71-0.07-0.71c0-0.21-0.07-0.36-0.14-0.5v-11.37h-28.61
			c0.78-0.85,1.41-1.98,1.56-3.25l0.07-0.78c0-1.27-0.42-2.47-1.06-3.46c-0.21-0.35-0.49-0.57-0.78-0.63
			c-0.14-0.07-0.21-0.21-0.36-0.28c-1.48-0.85-3.53-0.35-4.38,1.2c-0.85,1.56-0.28,3.53,1.27,4.45c0.36,0.21,0.85,0.36,1.27,0.42
			c-0.21,0.21-0.42,0.5-0.78,0.71c-0.78,0.57-1.84,0.92-2.83,0.92h-0.49c-2.26-0.28-4.45-1.91-6.36-3.88
			c-4.24-4.31-7.2-9.54-9.96-15.26c-1.41-2.68-2.68-5.51-4.1-8.33c1.48,0.7,3.11,1.2,4.8,1.2c1.34,0,2.76-0.36,4.1-1.06
			c2.54-1.49,3.67-4.24,3.74-6.64c0-1.13-0.28-2.19-0.92-3.18c-0.57-0.85-1.55-1.41-2.61-1.56c-0.14-0.07-0.28-0.14-0.42-0.21
			c-1.27-0.35-2.61,0.14-3.39,1.2c-0.21,0.21-0.35,0.49-0.42,0.78c0,0.07-0.07,0.21-0.14,0.28c-0.49,1.77,0.57,3.53,2.26,3.96
			c0.71,0.21,1.41,0.07,2.12-0.14c-0.28,0.99-0.92,2.05-1.91,2.54c-0.78,0.42-1.55,0.64-2.4,0.64c-1.84,0-3.96-0.92-5.79-2.33
			c-1.27-0.92-2.4-2.05-3.25-3.18c-0.14-0.28-0.36-0.63-0.57-0.92c-4.03-6.43-9.33-12.01-15.47-16.39
			c-0.14-0.14-0.21-0.28-0.42-0.36c-0.07-0.07-0.14-0.14-0.28-0.14c-5.01-3.53-10.53-6.28-16.39-8.05
			c-2.19-0.64-4.45-1.06-6.71-1.34c1.62-1.13,3.04-2.47,4.17-4.09c1.2-1.7,2.19-3.89,2.26-6.22v-0.28c0-2.26-0.92-4.66-2.89-6.14
			c-1.13-0.78-2.4-1.2-3.67-1.2c-1.34,0-2.76,0.42-3.81,1.41c-0.71,0.71-1.2,1.62-1.34,2.55c-0.07,0.21-0.07,0.35-0.07,0.56
			c0,0.07,0,0.07,0,0.07v0.21c0.07,0.28,0.07,0.57,0.21,0.85c0,0.14,0.14,0.35,0.21,0.49c0.14,0.21,0.21,0.36,0.28,0.5
			c0.07,0.07,0.07,0.14,0.14,0.21c0.14,0.21,0.35,0.36,0.63,0.42c0,0,0.07,0.07,0.14,0.14c1.56,0.85,3.53,0.35,4.38-1.2
			c0.49-0.85,0.49-1.77,0.28-2.61c0.21,0.07,0.42,0.21,0.57,0.36c0.99,0.63,1.62,2.05,1.56,3.39v0.14c0,1.48-0.64,3.03-1.63,4.38
			c-2.12,3.04-5.72,5.16-9.39,5.51c-0.14,0-0.14,0.07-0.21,0.07c-4.87,0.07-9.6,0.71-14.13,1.7c-6.5,1.41-12.64,2.97-18.72,2.97
			c-3.18,0-6.36-0.42-9.6-1.48c-3.32-1.2-6.43-2.97-8.4-5.65c-1.27-1.69-2.05-3.88-2.05-5.93c0-0.99,0.14-1.98,0.57-2.9
			c0.42-1.13,1.48-2.33,2.75-3.18c1.27-0.85,2.68-1.41,3.88-1.41c0.71,0,1.27,0.21,1.77,0.49c0.5,0.28,0.99,0.78,1.41,1.56
			c0.14,0.28,0.21,0.49,0.28,0.78c-1.27-0.14-2.54,0.42-3.25,1.62c-0.85,1.56-0.28,3.53,1.27,4.45c1.41,0.78,3.18,0.28,4.09-0.99
			l0.14-0.07v-0.07c0.07-0.07,0.07-0.07,0.14-0.14c0.07-0.14,0.07-0.21,0.14-0.35c0.57-1.06,0.99-2.33,0.99-3.53
			c0-1.13-0.28-2.26-0.78-3.25c-0.71-1.34-1.62-2.33-2.69-2.97c-1.13-0.63-2.33-0.92-3.53-0.92c-2.12,0.07-4.09,0.85-5.79,2.05
			c-1.34,0.92-2.54,2.05-3.39,3.46c-0.78-1.41-1.98-2.55-3.32-3.46c-1.7-1.2-3.75-1.98-5.79-2.05c-1.2,0-2.4,0.28-3.53,0.92
			c-1.06,0.64-2.05,1.62-2.68,2.97c-0.49,0.99-0.78,2.12-0.78,3.25c0,1.2,0.35,2.47,0.99,3.53c0.07,0.14,0.07,0.21,0.14,0.35
			c0,0.07,0.07,0.07,0.14,0.14v0.07l0.07,0.07c0.99,1.27,2.75,1.77,4.17,0.99c1.56-0.92,2.12-2.9,1.2-4.45
			c-0.63-1.2-1.98-1.77-3.25-1.62c0.07-0.28,0.21-0.49,0.36-0.78c0.35-0.78,0.84-1.27,1.34-1.56c0.57-0.28,1.13-0.49,1.83-0.49
			c1.13,0,2.61,0.57,3.89,1.41c1.27,0.84,2.26,2.05,2.75,3.18c0.36,0.92,0.57,1.91,0.57,2.9c0,2.05-0.78,4.24-2.12,5.93
			c-1.98,2.69-5.01,4.45-8.34,5.65c-3.25,1.06-6.5,1.48-9.6,1.48c-6.07,0-12.22-1.56-18.79-2.97c-4.45-0.99-9.25-1.62-14.05-1.7
			c-0.07,0-0.14-0.07-0.21-0.07c-3.67-0.36-7.27-2.47-9.39-5.51c-0.99-1.34-1.62-2.89-1.69-4.38v-0.14c0-1.34,0.63-2.75,1.56-3.39
			c0.21-0.14,0.42-0.28,0.63-0.36c-0.28,0.85-0.21,1.77,0.28,2.61c0.85,1.55,2.82,2.05,4.38,1.2c0.07-0.07,0.07-0.14,0.14-0.14
			c0.21-0.07,0.42-0.21,0.64-0.42c0-0.07,0-0.14,0.07-0.21c0.14-0.14,0.21-0.28,0.36-0.5c0.07-0.14,0.14-0.35,0.21-0.49
			c0.14-0.28,0.14-0.57,0.14-0.85c0-0.07,0.07-0.14,0.07-0.21c0,0,0,0,0-0.07c0-0.21-0.07-0.35-0.07-0.56
			c-0.21-0.92-0.71-1.84-1.41-2.55c-1.06-0.99-2.47-1.41-3.74-1.41c-1.34,0-2.54,0.42-3.67,1.2c-1.98,1.48-2.97,3.88-2.97,6.14v0.28
			c0.14,2.33,1.06,4.52,2.33,6.22c1.13,1.62,2.54,2.97,4.17,4.09c-2.26,0.28-4.52,0.71-6.71,1.34c-5.86,1.77-11.44,4.52-16.46,8.05
			c-0.07,0-0.14,0.07-0.28,0.14c-0.14,0.07-0.28,0.21-0.42,0.36c-6.08,4.38-11.37,9.96-15.47,16.39c-0.21,0.28-0.36,0.63-0.57,0.92
			c-0.85,1.13-1.91,2.26-3.18,3.18c-1.83,1.41-4.02,2.33-5.79,2.33c-0.85,0-1.7-0.21-2.47-0.64c-0.92-0.49-1.56-1.55-1.84-2.54
			c0.64,0.21,1.34,0.36,2.12,0.14c1.69-0.42,2.68-2.19,2.26-3.96c-0.07-0.07-0.14-0.21-0.14-0.28c-0.07-0.28-0.21-0.56-0.42-0.78
			c-0.78-1.06-2.12-1.55-3.39-1.2l-0.43,0.21c-1.06,0.14-2.05,0.71-2.61,1.56c-0.71,0.99-0.92,2.05-0.92,3.18
			c0,2.4,1.2,5.15,3.75,6.64c1.27,0.7,2.76,1.06,4.1,1.06c1.69,0,3.25-0.5,4.8-1.2c-1.41,2.82-2.68,5.65-4.09,8.33
			c-2.76,5.72-5.72,10.95-9.96,15.26c-1.91,1.98-4.1,3.6-6.36,3.88h-0.5c-0.99,0-2.05-0.35-2.82-0.92
			c-0.35-0.21-0.57-0.49-0.78-0.71c0.42-0.07,0.85-0.21,1.27-0.42c1.56-0.92,2.12-2.89,1.27-4.45c-0.92-1.55-2.89-2.05-4.45-1.2
			c-0.07,0.07-0.14,0.21-0.28,0.28c-0.28,0.07-0.57,0.28-0.78,0.63c-0.63,0.99-1.06,2.19-1.06,3.46l0.07,0.78
			c0.14,1.27,0.71,2.4,1.48,3.25h-28.6v11.37c0,0.14-0.07,0.28-0.07,0.5c0,0-0.07,0.21-0.14,0.71c-0.14,1.77-0.78,6.28-2.47,11.3
			c-1.69,5.09-4.45,10.59-8.68,14.2l-1.41,1.34l1.41,1.2c4.8,4.17,7.7,10.81,9.32,16.32c0.78,2.82,1.27,5.3,1.55,7.13
			c0.14,0.85,0.28,1.63,0.28,2.12c0.07,0.49,0.14,0.71,0.14,0.71c0,0.21,0.07,0.35,0.07,0.49v60.11c-0.28,1.41-0.71,2.89-1.13,4.52
			c-1.98,6.78-5.16,14.13-10.03,19.71c-0.57,0.63-0.57,1.62,0,2.26c4.87,5.65,8.05,12.99,10.03,19.78c0.42,1.55,0.85,3.04,1.13,4.45
			v60.18c0,0.14-0.07,0.28-0.07,0.42c0,0-0.07,0.21-0.14,0.78c-0.14,1.7-0.78,6.29-2.47,11.3c-1.69,5.01-4.45,10.53-8.68,14.2
			l-1.41,1.27l1.41,1.27c4.8,4.17,7.7,10.74,9.32,16.32c0.78,2.76,1.27,5.3,1.55,7.06c0.14,0.92,0.28,1.62,0.28,2.19
			c0.07,0.42,0.14,0.7,0.14,0.7c0,0.14,0.07,0.28,0.07,0.42v11.37h28.6c-0.78,0.92-1.34,1.98-1.48,3.25l-0.07,0.84
			c0,1.27,0.43,2.47,1.06,3.46c0.21,0.28,0.49,0.49,0.78,0.63c0.14,0.07,0.21,0.14,0.28,0.21c1.56,0.92,3.53,0.35,4.45-1.2
			c0.85-1.56,0.28-3.53-1.27-4.38c-0.42-0.28-0.84-0.36-1.27-0.42c0.21-0.28,0.42-0.49,0.78-0.78c0.78-0.5,1.84-0.85,2.82-0.85h0.5
			c2.26,0.28,4.45,1.83,6.36,3.81c4.24,4.31,7.2,9.6,9.96,15.26c1.41,2.75,2.68,5.58,4.09,8.33c-1.55-0.71-3.11-1.13-4.8-1.13
			c-1.34-0.07-2.82,0.28-4.1,1.06c-2.54,1.48-3.75,4.17-3.75,6.57c0,1.13,0.21,2.26,0.92,3.25c0.57,0.78,1.55,1.34,2.61,1.56
			l0.43,0.21c1.27,0.28,2.61-0.21,3.39-1.2c0.21-0.28,0.36-0.49,0.42-0.85c0-0.07,0.07-0.14,0.14-0.28
			c0.42-1.69-0.57-3.46-2.26-3.95c-0.78-0.21-1.48-0.07-2.12,0.21c0.28-1.06,0.92-2.12,1.84-2.61c0.78-0.42,1.62-0.56,2.47-0.56
			c1.77-0.07,3.96,0.84,5.79,2.33c1.27,0.92,2.33,2.05,3.18,3.11c0.21,0.36,0.35,0.64,0.57,0.99c4.09,6.36,9.39,11.94,15.47,16.38
			c0.14,0.07,0.28,0.21,0.42,0.36c0.14,0.07,0.21,0.07,0.28,0.14c5.02,3.53,10.59,6.29,16.46,7.98c2.19,0.63,4.45,1.13,6.71,1.41
			c-1.62,1.13-3.04,2.47-4.17,4.02c-1.27,1.77-2.19,3.89-2.33,6.29v0.21c0,2.33,0.99,4.73,2.97,6.22c1.13,0.78,2.33,1.13,3.67,1.2
			c1.27,0,2.68-0.5,3.74-1.48c0.71-0.71,1.2-1.56,1.41-2.55c0-0.21,0.07-0.35,0.07-0.49v-0.14c0-0.07-0.07-0.14-0.07-0.21
			c0-0.28,0-0.56-0.14-0.84c-0.07-0.14-0.14-0.28-0.21-0.42c-0.14-0.21-0.21-0.42-0.36-0.57c-0.07-0.07-0.07-0.14-0.07-0.21
			c-0.21-0.14-0.42-0.28-0.64-0.42c-0.07,0-0.07-0.07-0.14-0.14c-1.56-0.85-3.53-0.28-4.38,1.27c-0.5,0.78-0.57,1.77-0.28,2.55
			c-0.21-0.07-0.42-0.14-0.63-0.28c-0.92-0.64-1.56-2.05-1.56-3.46v-0.14c0.07-1.48,0.71-2.97,1.69-4.38
			c2.12-3.03,5.72-5.08,9.39-5.51c0.07,0,0.14-0.07,0.21-0.07c4.8-0.07,9.6-0.71,14.05-1.62c6.57-1.41,12.72-3.04,18.79-3.04
			c3.11,0,6.36,0.42,9.6,1.56c3.32,1.13,6.36,2.97,8.34,5.58c1.34,1.7,2.12,3.96,2.12,5.94c0,1.06-0.21,2.05-0.57,2.97
			c-0.49,1.06-1.48,2.26-2.75,3.11c-1.27,0.92-2.76,1.41-3.96,1.41c-0.63,0-1.2-0.14-1.77-0.42c-0.5-0.36-0.99-0.78-1.34-1.56
			c-0.14-0.28-0.28-0.57-0.36-0.85c1.27,0.21,2.61-0.42,3.25-1.55c0.92-1.56,0.36-3.53-1.2-4.45c-1.41-0.78-3.18-0.36-4.17,0.99
			c0,0,0,0-0.07,0.07c0,0,0,0,0,0.07c-0.07,0-0.14,0.07-0.14,0.07c-0.07,0.14-0.07,0.28-0.14,0.42c-0.64,1.06-0.99,2.26-0.99,3.53
			c0,1.06,0.28,2.19,0.78,3.25c0.63,1.27,1.62,2.26,2.68,2.89c1.13,0.64,2.33,0.92,3.46,0.92c2.12,0,4.17-0.85,5.86-1.98
			c1.34-0.92,2.54-2.12,3.32-3.46c0.85,1.34,2.05,2.54,3.39,3.46c1.7,1.13,3.67,1.98,5.79,1.98c1.2,0,2.4-0.28,3.53-0.92
			c1.06-0.63,1.98-1.62,2.69-2.89c0.49-1.06,0.78-2.19,0.78-3.25c0-1.27-0.42-2.47-0.99-3.6c-0.07-0.07-0.07-0.21-0.14-0.35
			c-0.07,0-0.07-0.07-0.14-0.07c0-0.07,0-0.07,0-0.07c-0.07-0.07-0.07-0.07-0.14-0.07c-0.92-1.34-2.68-1.77-4.09-0.99
			c-1.56,0.92-2.12,2.89-1.27,4.45c0.71,1.13,1.98,1.77,3.25,1.55c-0.07,0.28-0.14,0.57-0.28,0.85c-0.42,0.78-0.92,1.2-1.41,1.56
			c-0.49,0.28-1.06,0.42-1.77,0.42c-1.2,0-2.61-0.5-3.88-1.41c-1.27-0.85-2.33-2.05-2.75-3.11c-0.43-0.92-0.57-1.91-0.57-2.97
			c0-1.98,0.78-4.24,2.05-5.94c1.98-2.61,5.08-4.45,8.4-5.58c3.25-1.13,6.42-1.56,9.6-1.56c6.07,0,12.22,1.62,18.72,3.04
			c4.52,0.92,9.25,1.55,14.06,1.62c0.14,0,0.14,0.07,0.28,0.07c3.68,0.42,7.28,2.47,9.39,5.51c0.99,1.41,1.63,2.9,1.63,4.38v0.14
			c0.07,1.41-0.57,2.82-1.56,3.46c-0.14,0.14-0.36,0.21-0.57,0.28c0.21-0.78,0.21-1.77-0.28-2.55c-0.85-1.55-2.82-2.12-4.38-1.27
			c-0.07,0.07-0.14,0.14-0.14,0.14c-0.28,0.14-0.49,0.28-0.63,0.42c-0.07,0.07-0.07,0.14-0.14,0.21c-0.07,0.14-0.14,0.35-0.28,0.57
			c-0.07,0.14-0.21,0.28-0.21,0.42c-0.14,0.28-0.14,0.57-0.21,0.84v0.21c0,0.07,0,0.07,0,0.14c0,0.14,0,0.28,0.07,0.49
			c0.14,0.99,0.63,1.84,1.34,2.55c1.06,0.99,2.47,1.48,3.81,1.48c1.27-0.07,2.54-0.42,3.67-1.2c1.98-1.49,2.89-3.89,2.89-6.22v-0.21
			c-0.07-2.4-1.06-4.52-2.26-6.29c-1.13-1.56-2.54-2.9-4.17-4.02c2.26-0.28,4.52-0.78,6.71-1.41c5.86-1.69,11.37-4.45,16.39-7.98
			c0.14-0.07,0.21-0.07,0.28-0.14c0.21-0.14,0.28-0.28,0.42-0.36c6.15-4.45,11.44-10.03,15.47-16.38c0.21-0.35,0.42-0.63,0.57-0.99
			c0.84-1.06,1.98-2.19,3.25-3.11c1.83-1.48,3.95-2.4,5.79-2.33c0.85,0,1.62,0.14,2.4,0.56c0.99,0.5,1.62,1.56,1.91,2.61
			c-0.7-0.28-1.41-0.42-2.12-0.21c-1.7,0.49-2.76,2.26-2.26,3.95c0.07,0.14,0.14,0.21,0.14,0.28c0.07,0.36,0.21,0.57,0.42,0.85
			c0.78,0.99,2.12,1.48,3.39,1.2c0.14-0.07,0.28-0.14,0.42-0.21c1.06-0.21,2.05-0.78,2.61-1.56c0.63-0.99,0.92-2.12,0.92-3.25
			c-0.07-2.4-1.2-5.08-3.74-6.57c-1.34-0.78-2.76-1.13-4.1-1.06c-1.69,0-3.32,0.42-4.8,1.13c1.41-2.76,2.68-5.58,4.1-8.33
			c2.76-5.65,5.72-10.95,9.96-15.26c1.91-1.98,4.1-3.53,6.36-3.81h0.49c0.99,0,2.05,0.35,2.83,0.85c0.35,0.28,0.57,0.49,0.78,0.78
			c-0.42,0.07-0.92,0.14-1.27,0.42c-1.55,0.85-2.12,2.82-1.27,4.38c0.84,1.55,2.89,2.12,4.38,1.2c0.14-0.07,0.21-0.14,0.36-0.21
			c0.28-0.14,0.57-0.35,0.78-0.63c0.63-0.99,1.06-2.19,1.06-3.46l-0.07-0.84c-0.14-1.27-0.78-2.33-1.56-3.25h28.61v-11.37
			c0.07-0.14,0.14-0.28,0.14-0.42c0,0,0.07-0.28,0.07-0.7c0.21-1.77,0.85-6.36,2.54-11.37c1.7-5.08,4.45-10.52,8.69-14.19l1.41-1.27
			l-1.41-1.27C1669.2,1944.45,1666.3,1937.88,1664.75,1932.3z M1662.63,1709.89c1.69,4.45,4.1,9.25,7.84,13.07
			c-3.74,3.74-6.15,8.55-7.84,12.99V1709.89z M1337.31,1962.95c-1.62-4.52-4.1-9.32-7.84-13.07c3.74-3.81,6.21-8.55,7.84-13.07
			V1962.95z M1594.83,1642.29c1.41,1.62,2.76,3.39,3.96,5.22v0.07c0.35,0.63,0.85,1.34,1.34,1.98c2.97,4.87,5.37,10.31,7.98,15.68
			c2.9,5.72,6,11.37,10.59,16.1c0.78,0.71,1.62,1.56,2.61,2.19h-28.75c-3.81-8.4-8.62-16.24-14.41-23.24
			c1.27,0.36,2.61,0.57,3.95,0.57c2.12,0,4.17-0.49,6.15-1.48c2.97-1.62,5.16-4.45,6.21-7.63c0.57-1.69,0.85-3.46,0.85-5.16
			C1595.32,1645.12,1595.18,1643.64,1594.83,1642.29z M1541.43,1624.99c4.66-0.99,9.54-1.62,14.41-1.62c4.45,0,8.83,0.5,12.93,1.7
			c5.79,1.69,11.23,4.45,16.1,7.98c3.18,2.54,5.72,6,6.64,9.89c0.28,1.2,0.42,2.4,0.42,3.67c0,1.41-0.21,2.76-0.63,4.1
			c-0.85,2.4-2.54,4.52-4.66,5.65c-1.34,0.78-2.89,1.13-4.52,1.13c-3.6,0-7.41-1.83-9.39-4.66c-1.13-1.55-1.77-3.53-1.77-5.44
			c0-0.7,0.07-1.48,0.28-2.19c0.71-2.47,2.83-4.59,5.23-5.08c0.35-0.07,0.78-0.14,1.2-0.14c2.05,0,4.17,1.2,5.09,2.9
			c0.28,0.56,0.49,1.27,0.56,1.91c0,0,0,0-0.07,0c-1.34-0.28-2.68,0.35-3.39,1.55c-0.92,1.56-0.35,3.53,1.2,4.38
			c0.42,0.28,0.85,0.35,1.34,0.42c1.13,0.21,2.33-0.21,3.11-1.2c0.14-0.07,0.21-0.14,0.28-0.28c0-0.07,0.07-0.07,0.07-0.07
			s0,0,0-0.07c0.07-0.07,0.14-0.14,0.14-0.21c0.49-1.27,0.78-2.54,0.78-3.88s-0.35-2.82-0.99-4.1c-1.62-3.03-4.87-4.66-8.12-4.73
			c-0.63,0-1.27,0.07-1.83,0.21c-3.89,0.78-6.78,3.89-7.84,7.49c-0.28,0.99-0.42,2.05-0.42,3.11c0,0.71,0.07,1.34,0.14,2.05
			c-11.09-10.03-24.44-17.59-39.2-21.9C1532.88,1626.9,1537.12,1625.91,1541.43,1624.99z M1498.63,1619.62
			c0.57-0.71,0.99-1.48,1.34-2.26c0.42,0.78,0.85,1.56,1.34,2.26c1.27,1.62,2.76,2.89,4.38,3.96c-1.91-0.07-3.74-0.21-5.72-0.21
			c-1.91,0-3.81,0.14-5.72,0.21C1495.94,1622.52,1497.43,1621.25,1498.63,1619.62z M1408.5,1642.93c0.92-3.88,3.39-7.35,6.64-9.89
			c4.87-3.53,10.31-6.29,16.1-7.98c4.1-1.2,8.48-1.7,12.93-1.7c4.8,0,9.75,0.63,14.34,1.62c4.31,0.92,8.62,1.91,13,2.54
			c-14.76,4.31-28.11,11.87-39.27,21.9c0.14-0.71,0.14-1.34,0.21-2.05c0-1.06-0.14-2.12-0.42-3.11c-1.06-3.6-4.02-6.71-7.84-7.49
			c-0.57-0.14-1.2-0.21-1.83-0.21c-3.25,0.07-6.5,1.7-8.12,4.73c-0.64,1.27-0.99,2.76-0.99,4.1s0.28,2.61,0.71,3.88
			c0.07,0.07,0.14,0.14,0.21,0.21v0.07c0,0,0,0.07,0.07,0.07c0.07,0.14,0.14,0.21,0.28,0.28c0.71,0.99,1.91,1.41,3.11,1.2
			c0.42-0.07,0.92-0.14,1.34-0.42c1.55-0.85,2.12-2.82,1.2-4.38c-0.71-1.2-2.12-1.83-3.46-1.55c0.07-0.64,0.21-1.34,0.5-1.91
			c0.92-1.7,3.11-2.9,5.16-2.9c0.42,0,0.78,0.07,1.13,0.14c2.4,0.49,4.59,2.61,5.3,5.08c0.14,0.71,0.28,1.49,0.28,2.19
			c0,1.91-0.63,3.89-1.83,5.44c-1.91,2.83-5.72,4.66-9.33,4.66c-1.62,0-3.18-0.35-4.52-1.13c-2.19-1.13-3.81-3.25-4.66-5.65
			c-0.42-1.34-0.63-2.68-0.63-4.1C1408.08,1645.33,1408.22,1644.13,1408.5,1642.93z M1381.24,1681.35
			c4.66-4.73,7.77-10.38,10.67-16.1c2.61-5.37,5.01-10.81,7.98-15.68c0.49-0.63,0.92-1.34,1.27-1.98c0,0,0-0.07,0.07-0.07
			c1.2-1.83,2.54-3.6,3.96-5.22c-0.35,1.34-0.49,2.82-0.49,4.31c0,1.7,0.21,3.46,0.78,5.16c1.06,3.18,3.25,6,6.29,7.63
			c1.91,0.99,4.02,1.48,6.14,1.48c1.34,0,2.69-0.21,3.96-0.57c-5.79,6.99-10.59,14.83-14.41,23.24h-28.75
			C1379.61,1682.91,1380.53,1682.06,1381.24,1681.35z M1329.47,1722.95c3.74-3.81,6.21-8.62,7.84-13.07v26.06
			C1335.68,1731.5,1333.21,1726.7,1329.47,1722.95z M1329.54,1836.39c4.52-5.58,7.49-12.36,9.46-18.72
			c1.98,6.36,5.01,13.14,9.54,18.72c-4.52,5.65-7.56,12.36-9.54,18.79C1337.03,1848.75,1334.06,1842.03,1329.54,1836.39z
			 M1405.18,2030.55c-1.41-1.69-2.76-3.39-3.96-5.22c-0.07-0.07-0.07-0.07-0.07-0.14c-0.36-0.63-0.78-1.27-1.27-1.98
			c-2.97-4.88-5.37-10.32-7.98-15.61c-2.9-5.72-6-11.37-10.67-16.1c-0.71-0.78-1.62-1.56-2.54-2.26h28.75
			c3.81,8.47,8.62,16.24,14.41,23.31c-1.27-0.35-2.61-0.57-3.96-0.57c-2.12,0-4.24,0.42-6.14,1.48c-3.04,1.56-5.23,4.45-6.29,7.56
			c-0.57,1.69-0.78,3.46-0.78,5.22C1404.69,2027.72,1404.83,2029.14,1405.18,2030.55z M1458.51,2047.85
			c-4.59,0.99-9.53,1.62-14.34,1.62c-4.45,0-8.83-0.57-12.93-1.77c-5.79-1.7-11.23-4.45-16.1-7.91c-3.25-2.54-5.72-6.07-6.64-9.89
			c-0.28-1.27-0.42-2.47-0.42-3.67c0-1.41,0.21-2.82,0.63-4.1c0.85-2.4,2.47-4.59,4.66-5.72c1.34-0.7,2.89-1.06,4.52-1.06
			c3.6,0,7.42,1.84,9.33,4.59c1.2,1.62,1.83,3.6,1.83,5.51c0,0.71-0.14,1.41-0.28,2.12c-0.7,2.47-2.89,4.66-5.3,5.16
			c-0.35,0.07-0.7,0.07-1.13,0.07c-2.05,0-4.24-1.2-5.16-2.9c-0.28-0.57-0.42-1.2-0.5-1.91c0.28,0.07,0.5,0.07,0.71,0.07
			c1.13,0,2.19-0.57,2.76-1.56c0.92-1.62,0.35-3.53-1.2-4.45c-0.42-0.21-0.92-0.36-1.34-0.42c-1.2-0.21-2.4,0.28-3.11,1.2
			c-0.14,0.14-0.21,0.21-0.28,0.36c-0.07,0-0.07,0-0.07,0v0.07c-0.07,0.07-0.14,0.14-0.21,0.28c-0.42,1.2-0.71,2.54-0.71,3.88
			s0.35,2.76,0.99,4.1c1.62,2.97,4.87,4.66,8.12,4.66c0.63,0,1.27-0.07,1.83-0.21c3.81-0.78,6.78-3.81,7.84-7.48
			c0.28-0.99,0.42-2.05,0.42-3.04c-0.07-0.71-0.07-1.41-0.21-2.05c11.16,9.96,24.51,17.52,39.27,21.9
			C1467.13,2045.94,1462.82,2046.93,1458.51,2047.85z M1501.31,2053.22c-0.49,0.7-0.92,1.41-1.34,2.19
			c-0.35-0.78-0.78-1.48-1.34-2.19c-1.2-1.63-2.68-2.97-4.38-4.03c1.91,0.07,3.81,0.21,5.72,0.21c1.98,0,3.81-0.14,5.72-0.21
			C1504.06,2050.25,1502.58,2051.59,1501.31,2053.22z M1591.5,2029.91c-0.92,3.81-3.46,7.35-6.64,9.89
			c-4.87,3.46-10.31,6.21-16.1,7.91c-4.1,1.2-8.48,1.77-12.93,1.77c-4.87,0-9.75-0.63-14.41-1.62c-4.31-0.92-8.55-1.91-12.93-2.54
			c14.76-4.38,28.11-11.94,39.2-21.9c-0.07,0.63-0.14,1.34-0.14,2.05c0,0.99,0.14,2.05,0.42,3.04c1.06,3.67,3.96,6.71,7.84,7.48
			c0.57,0.14,1.2,0.21,1.83,0.21c3.25,0,6.5-1.7,8.12-4.66c0.64-1.34,0.99-2.76,0.99-4.1s-0.28-2.68-0.78-3.88
			c0-0.14-0.07-0.21-0.14-0.28v-0.07h-0.07c-0.07-0.14-0.14-0.21-0.28-0.36c-0.78-0.92-1.98-1.41-3.11-1.2
			c-0.49,0.07-0.92,0.21-1.34,0.42c-1.55,0.92-2.12,2.82-1.2,4.45c0.71,1.2,2.05,1.77,3.39,1.48c0.07,0,0.07,0,0.07,0
			c-0.07,0.71-0.28,1.34-0.56,1.91c-0.92,1.7-3.04,2.9-5.09,2.9c-0.42,0-0.85,0-1.2-0.07c-2.4-0.49-4.52-2.68-5.23-5.16
			c-0.21-0.71-0.28-1.41-0.28-2.12c0-1.91,0.64-3.89,1.77-5.51c1.98-2.75,5.79-4.59,9.39-4.59c1.63,0,3.18,0.36,4.52,1.06
			c2.12,1.13,3.81,3.32,4.66,5.72c0.42,1.27,0.63,2.68,0.63,4.1C1591.93,2027.44,1591.79,2028.64,1591.5,2029.91z M1618.7,1991.49
			c-4.59,4.73-7.7,10.38-10.59,16.1c-2.61,5.3-5.01,10.74-7.98,15.61c-0.49,0.7-0.99,1.34-1.34,1.98c0,0.07,0,0.07,0,0.14
			c-1.2,1.83-2.55,3.53-3.96,5.22c0.35-1.41,0.49-2.82,0.49-4.31c0-1.77-0.28-3.53-0.85-5.22c-1.06-3.11-3.25-6-6.21-7.56
			c-1.98-1.06-4.02-1.48-6.15-1.48c-1.34,0-2.68,0.21-3.95,0.57c5.79-7.06,10.59-14.83,14.41-23.31h28.75
			C1620.32,1989.93,1619.47,1990.71,1618.7,1991.49z M1659.24,1985.84h-68.86l-0.49,1.06c-15.04,34.75-49.58,59.11-89.91,59.11
			c-40.26,0-74.87-24.37-89.91-59.11l-0.42-1.06h-68.93v-124.03c0.35-1.56,0.78-2.97,1.13-4.52c2.05-6.78,5.22-14.13,10.1-19.78
			c0.5-0.64,0.5-1.63,0-2.26c-4.87-5.58-8.05-12.93-10.1-19.71c-0.36-1.55-0.78-3.03-1.13-4.52v-124.1h68.93l0.42-0.99
			c15.04-34.82,49.65-59.19,89.91-59.19c40.33,0,74.87,24.37,89.91,59.19l0.49,0.99h68.86v124.1c-0.28,1.41-0.7,2.89-1.13,4.52
			c-1.98,6.78-5.16,14.13-10.03,19.71c-0.57,0.63-0.57,1.62,0,2.26c4.87,5.65,8.05,12.99,10.03,19.78c0.42,1.55,0.85,3.04,1.13,4.45
			V1985.84z M1660.93,1855.17c-1.91-6.43-4.95-13.14-9.46-18.79c4.52-5.58,7.56-12.36,9.46-18.72c1.98,6.36,5.01,13.14,9.54,18.72
			C1665.95,1842.03,1662.91,1848.75,1660.93,1855.17z M1662.63,1962.95v-26.13c1.69,4.52,4.1,9.25,7.84,13.07
			C1666.73,1953.63,1664.32,1958.43,1662.63,1962.95z"/>
		
			<linearGradient id="SVGID_00000155830215502381092720000002559523512797823401_" gradientUnits="userSpaceOnUse" x1="2471.7061" y1="882.7412" x2="794.2145" y2="2840.854">
			<stop  offset="0" style="stop-color:#FF8D3B"/>
			<stop  offset="0.1341" style="stop-color:#F97850"/>
			<stop  offset="0.3406" style="stop-color:#F25F6B"/>
			<stop  offset="0.5519" style="stop-color:#ED4D7E"/>
			<stop  offset="0.7689" style="stop-color:#EA4289"/>
			<stop  offset="1" style="stop-color:#E93E8D"/>
		</linearGradient>
		<path style="fill:url(#SVGID_00000155830215502381092720000002559523512797823401_);" d="M1455.23,2067.71l-12.43,12.43
			c-0.66,0.66-0.66,1.73,0,2.4s1.73,0.66,2.4,0l12.43-12.43c0.66-0.66,0.66-1.73,0-2.4
			C1456.96,2067.05,1455.89,2067.05,1455.23,2067.71z"/>
		
			<linearGradient id="SVGID_00000107589951575221510870000017368679774720983477_" gradientUnits="userSpaceOnUse" x1="2510.7214" y1="916.1653" x2="833.23" y2="2874.2781">
			<stop  offset="0" style="stop-color:#FF8D3B"/>
			<stop  offset="0.1341" style="stop-color:#F97850"/>
			<stop  offset="0.3406" style="stop-color:#F25F6B"/>
			<stop  offset="0.5519" style="stop-color:#ED4D7E"/>
			<stop  offset="0.7689" style="stop-color:#EA4289"/>
			<stop  offset="1" style="stop-color:#E93E8D"/>
		</linearGradient>
		<path style="fill:url(#SVGID_00000107589951575221510870000017368679774720983477_);" d="M1499.84,2085.66
			c-0.94,0-1.69,0.76-1.69,1.69v17.58c0,0.94,0.76,1.69,1.69,1.69c0.94,0,1.69-0.76,1.69-1.69v-17.58
			C1501.54,2086.42,1500.78,2085.66,1499.84,2085.66z"/>
		
			<linearGradient id="SVGID_00000166652952955105875180000004546131768470459832_" gradientUnits="userSpaceOnUse" x1="2520.1318" y1="924.227" x2="842.6403" y2="2882.3398">
			<stop  offset="0" style="stop-color:#FF8D3B"/>
			<stop  offset="0.1341" style="stop-color:#F97850"/>
			<stop  offset="0.3406" style="stop-color:#F25F6B"/>
			<stop  offset="0.5519" style="stop-color:#ED4D7E"/>
			<stop  offset="0.7689" style="stop-color:#EA4289"/>
			<stop  offset="1" style="stop-color:#E93E8D"/>
		</linearGradient>
		<path style="fill:url(#SVGID_00000166652952955105875180000004546131768470459832_);" d="M1517.45,2084.97
			c-0.24-0.9-1.17-1.44-2.08-1.2c-0.9,0.24-1.44,1.17-1.2,2.08l4.55,16.98c0.24,0.9,1.17,1.44,2.08,1.2c0.9-0.24,1.44-1.17,1.2-2.08
			L1517.45,2084.97z"/>
		
			<linearGradient id="SVGID_00000165225761479944815870000015979796371527850930_" gradientUnits="userSpaceOnUse" x1="2526.5515" y1="929.7267" x2="849.0601" y2="2887.8396">
			<stop  offset="0" style="stop-color:#FF8D3B"/>
			<stop  offset="0.1341" style="stop-color:#F97850"/>
			<stop  offset="0.3406" style="stop-color:#F25F6B"/>
			<stop  offset="0.5519" style="stop-color:#ED4D7E"/>
			<stop  offset="0.7689" style="stop-color:#EA4289"/>
			<stop  offset="1" style="stop-color:#E93E8D"/>
		</linearGradient>
		<path style="fill:url(#SVGID_00000165225761479944815870000015979796371527850930_);" d="M1532.21,2078.53
			c-0.47-0.81-1.5-1.09-2.31-0.62c-0.81,0.47-1.09,1.5-0.62,2.31l8.79,15.23c0.47,0.81,1.5,1.09,2.31,0.62
			c0.81-0.47,1.09-1.5,0.62-2.31L1532.21,2078.53z"/>
		
			<linearGradient id="SVGID_00000119088270274303470410000010099947543949041312_" gradientUnits="userSpaceOnUse" x1="2529.5435" y1="932.2899" x2="852.0519" y2="2890.4026">
			<stop  offset="0" style="stop-color:#FF8D3B"/>
			<stop  offset="0.1341" style="stop-color:#F97850"/>
			<stop  offset="0.3406" style="stop-color:#F25F6B"/>
			<stop  offset="0.5519" style="stop-color:#ED4D7E"/>
			<stop  offset="0.7689" style="stop-color:#EA4289"/>
			<stop  offset="1" style="stop-color:#E93E8D"/>
		</linearGradient>
		<path style="fill:url(#SVGID_00000119088270274303470410000010099947543949041312_);" d="M1544.79,2068.5
			c-0.66-0.66-1.73-0.66-2.4,0c-0.66,0.66-0.66,1.73,0,2.4l12.43,12.43c0.66,0.66,1.73,0.66,2.4,0c0.66-0.66,0.66-1.73,0-2.4
			L1544.79,2068.5z"/>
		
			<linearGradient id="SVGID_00000008850109665090899190000010731458879479493763_" gradientUnits="userSpaceOnUse" x1="2485.6545" y1="894.6907" x2="808.163" y2="2852.8035">
			<stop  offset="0" style="stop-color:#FF8D3B"/>
			<stop  offset="0.1341" style="stop-color:#F97850"/>
			<stop  offset="0.3406" style="stop-color:#F25F6B"/>
			<stop  offset="0.5519" style="stop-color:#ED4D7E"/>
			<stop  offset="0.7689" style="stop-color:#EA4289"/>
			<stop  offset="1" style="stop-color:#E93E8D"/>
		</linearGradient>
		<path style="fill:url(#SVGID_00000008850109665090899190000010731458879479493763_);" d="M1469.95,2077.35
			c-0.81-0.47-1.85-0.19-2.31,0.62l-8.79,15.23c-0.47,0.81-0.19,1.85,0.62,2.31c0.81,0.47,1.85,0.19,2.31-0.62l8.79-15.23
			C1471.04,2078.85,1470.76,2077.82,1469.95,2077.35z"/>
		
			<linearGradient id="SVGID_00000150065817868366661200000000839429532844165790_" gradientUnits="userSpaceOnUse" x1="2498.9619" y1="906.0909" x2="821.4703" y2="2864.2039">
			<stop  offset="0" style="stop-color:#FF8D3B"/>
			<stop  offset="0.1341" style="stop-color:#F97850"/>
			<stop  offset="0.3406" style="stop-color:#F25F6B"/>
			<stop  offset="0.5519" style="stop-color:#ED4D7E"/>
			<stop  offset="0.7689" style="stop-color:#EA4289"/>
			<stop  offset="1" style="stop-color:#E93E8D"/>
		</linearGradient>
		<path style="fill:url(#SVGID_00000150065817868366661200000000839429532844165790_);" d="M1484.35,2083.47
			c-0.9-0.24-1.83,0.29-2.08,1.2l-4.55,16.98c-0.24,0.9,0.29,1.83,1.2,2.08c0.9,0.24,1.83-0.29,2.08-1.2l4.55-16.98
			C1485.79,2084.65,1485.25,2083.72,1484.35,2083.47z"/>
	</g>
	<g>
		<g>
			
				<linearGradient id="SVGID_00000018238835347789696670000012472431863524086440_" gradientUnits="userSpaceOnUse" x1="2441.147" y1="856.5616" x2="763.6555" y2="2814.6746">
				<stop  offset="0" style="stop-color:#FF8D3B"/>
				<stop  offset="0.1341" style="stop-color:#F97850"/>
				<stop  offset="0.3406" style="stop-color:#F25F6B"/>
				<stop  offset="0.5519" style="stop-color:#ED4D7E"/>
				<stop  offset="0.7689" style="stop-color:#EA4289"/>
				<stop  offset="1" style="stop-color:#E93E8D"/>
			</linearGradient>
			<path style="fill:url(#SVGID_00000018238835347789696670000012472431863524086440_);" d="M2492.4,1639.36v-328.21l-132.16-121.23
				l-176.62-162.01l-132.16-121.23l-176.59-162.03l-66.04-60.58l-66.13-60.65l-27.34-25.05l-121.92-111.86l-27.36-25.08l-66.1-60.65
				l-66.06,60.63l-27.38,25.1l-121.92,111.86l-27.31,25.03l-66.15,60.67l-66.02,60.56l-308.78,283.26l-176.59,162.03L507.6,1311.15
				v1288h66.08v0.07h1852.64v-0.07h66.08V2217.6H948.63l-0.11-744.33l551.46-505.87l66.1,60.63l485.37,445.25v166.09H2492.4z
				 M1874.86,1139.79l-132.16-121.21l-242.72-222.66l-66.06,60.63l-617.56,566.5v794.55h0.02l0.11,121.23h1543.75v139.16H639.76
				V1361.37l176.59-162.03l132.16-121.23l176.62-162.01l159.48-146.28l93.44-85.75l55.86-51.21l66.06-60.63l66.1,60.65l55.84,51.18
				l93.44,85.75l27.34,25.05l132.16,121.23l176.59,162.03l308.78,283.26v163.72h-176.62v-102.06l-132.16-121.23L1874.86,1139.79z"/>
			
				<linearGradient id="SVGID_00000114064608708605531080000003512738155727920026_" gradientUnits="userSpaceOnUse" x1="2369.6245" y1="795.2892" x2="692.133" y2="2753.4021">
				<stop  offset="0" style="stop-color:#FF8D3B"/>
				<stop  offset="0.1341" style="stop-color:#F97850"/>
				<stop  offset="0.3406" style="stop-color:#F25F6B"/>
				<stop  offset="0.5519" style="stop-color:#ED4D7E"/>
				<stop  offset="0.7689" style="stop-color:#EA4289"/>
				<stop  offset="1" style="stop-color:#E93E8D"/>
			</linearGradient>
			<polygon style="fill:url(#SVGID_00000114064608708605531080000003512738155727920026_);" points="1893.18,1492.46 
				1893.18,2128.32 1754.55,2128.32 1754.55,1542.68 1569.31,1380.67 1499.98,1320.04 1430.69,1380.65 1245.45,1542.66 
				1245.45,2128.32 1106.82,2128.32 1106.82,1492.46 1245.45,1371.2 1430.69,1209.2 1499.98,1148.57 1569.31,1209.22 
				1754.55,1371.23 			"/>
			
				<linearGradient id="SVGID_00000119078989674324269940000016014318794750441897_" gradientUnits="userSpaceOnUse" x1="2458.6892" y1="871.5897" x2="781.1975" y2="2829.7026">
				<stop  offset="0" style="stop-color:#FF8D3B"/>
				<stop  offset="0.1341" style="stop-color:#F97850"/>
				<stop  offset="0.3406" style="stop-color:#F25F6B"/>
				<stop  offset="0.5519" style="stop-color:#ED4D7E"/>
				<stop  offset="0.7689" style="stop-color:#EA4289"/>
				<stop  offset="1" style="stop-color:#E93E8D"/>
			</linearGradient>
			<path style="display:none;fill:url(#SVGID_00000119078989674324269940000016014318794750441897_);" d="M1609.47,1852.99v275.34
				h-218.94v-275.35l68.99-62.21h0.01v-0.01l39.42-35.56c0.54-0.49,1.51-0.49,2.05,0l39.45,35.57L1609.47,1852.99z"/>
		</g>
	</g>
</g>
</svg>
