<?xml version="1.0" encoding="utf-8"?>
<!-- Generator: Adobe Illustrator 27.3.1, SVG Export Plug-In . SVG Version: 6.00 Build 0)  -->
<svg version="1.1" id="Layer_1" xmlns="http://www.w3.org/2000/svg" xmlns:xlink="http://www.w3.org/1999/xlink" x="0px" y="0px"
	 viewBox="0 0 3000 3000" style="enable-background:new 0 0 3000 3000;" xml:space="preserve">
<style type="text/css">
	.st0{display:none;}
	.st1{display:inline;}
	.st2{fill:url(#SVGID_1_);}
	.st3{fill:url(#SVGID_00000144297187280146379510000018219311946623526545_);}
	.st4{fill:url(#SVGID_00000124861602289284884470000015354536974693275066_);}
	.st5{fill:url(#SVGID_00000181768021785100805440000001899433361468319884_);}
	.st6{fill:url(#SVGID_00000165937809664554069550000002049514414180259500_);}
	.st7{fill:url(#SVGID_00000080906948057038469080000008164192191669374851_);}
	.st8{fill:url(#SVGID_00000070822128816195010300000006666679827921395101_);}
	.st9{fill:url(#SVGID_00000121974622929494430810000009480868275001223816_);}
	.st10{fill:url(#SVGID_00000152975270169325582960000010895102798861268647_);}
	.st11{fill:url(#SVGID_00000059311930086257835860000008475816469599698091_);}
	.st12{fill:url(#SVGID_00000128451054454577583570000006441096119557251994_);}
	.st13{fill:url(#SVGID_00000001624133901168727490000002332896711888992434_);}
	.st14{fill:url(#SVGID_00000171686050760718060730000009945623551941214612_);}
	.st15{fill:url(#SVGID_00000145031811635278492470000005888831697029997960_);}
	.st16{fill:url(#SVGID_00000122711240138876843970000012566801596459000707_);}
	.st17{fill:url(#SVGID_00000029034808752190213160000002978091525753544361_);}
	.st18{fill:url(#SVGID_00000013888515228913149250000012541240346164025529_);}
	.st19{fill:url(#SVGID_00000126320321885689790000000015497144147462325175_);}
	.st20{fill:url(#SVGID_00000171693414948051251540000002768240091805443236_);}
	.st21{display:none;fill:url(#SVGID_00000018229531459587142510000001763396967364855198_);}
	.st22{fill:#FFFFFF;}
	.st23{fill:url(#SVGID_00000000188550177525413100000005568347324984172171_);}
	.st24{fill:none;stroke:#F1F2F2;stroke-width:2;stroke-miterlimit:10;}
	.st25{fill:url(#SVGID_00000088118612196024568610000004047872297123674499_);}
	.st26{fill:url(#SVGID_00000096056519139775087720000005902013350484491186_);}
	.st27{fill:url(#SVGID_00000093895203227174179890000009768554978825503131_);}
	.st28{fill:url(#SVGID_00000090258249484971036290000009965103175774938257_);}
	.st29{fill:url(#SVGID_00000150078835225170471900000013185339678448915349_);}
	.st30{fill:url(#SVGID_00000053510800413585967140000015244575538965787272_);}
	.st31{fill:url(#SVGID_00000132073805303332259880000014820435268898603431_);}
	.st32{fill:url(#SVGID_00000143596037148876929150000016566392836371845537_);}
	.st33{fill:url(#SVGID_00000011749276495285471850000007808308708881550270_);}
	.st34{fill:url(#SVGID_00000117662604676322679060000003781754465683507356_);}
	.st35{fill:url(#SVGID_00000070834900242263422570000008328682320948806045_);}
	.st36{fill:url(#SVGID_00000140698046516110057160000006186439033305323398_);}
	.st37{fill:url(#SVGID_00000085208948911001182390000012979933392352754337_);}
	.st38{fill:url(#SVGID_00000035519274507282947710000012605402113840271026_);}
	.st39{fill:url(#SVGID_00000042722069699196995590000015803137847093921667_);}
	.st40{fill:url(#SVGID_00000072260171338700568390000010933300394877540999_);}
	.st41{fill:url(#SVGID_00000041992391149293833970000005608982926921975479_);}
	.st42{fill:url(#SVGID_00000033356944353518267510000013353980038578694819_);}
	.st43{fill:url(#SVGID_00000118366547402224860620000005710114691429736352_);}
	.st44{display:none;fill:url(#SVGID_00000159464602104583110290000012688072157173379479_);}
	.st45{fill:url(#SVGID_00000026865270196238629980000015540530661756294283_);}
	.st46{fill:url(#SVGID_00000014628271508280417680000009059516190022965926_);}
	.st47{fill:url(#SVGID_00000087388187979469370460000003604051048238159771_);}
	.st48{fill:url(#SVGID_00000084511431944472538730000000917132903723252367_);}
	.st49{fill:url(#SVGID_00000106119277125267652730000001250383384703582623_);}
	.st50{fill:url(#SVGID_00000139986026831587439300000002143466192976333477_);}
	.st51{fill:url(#SVGID_00000144329954965131219050000002235323987133103789_);}
	.st52{fill:url(#SVGID_00000109751736534156112920000002970494730123463310_);}
	.st53{fill:url(#SVGID_00000175289782895792574600000009288170673674423214_);}
	.st54{fill:url(#SVGID_00000096042035876575186770000012784166900477689009_);}
	.st55{fill:url(#SVGID_00000178203645797101488330000004213958700422325168_);}
	.st56{fill:url(#SVGID_00000016777775195324474230000012701694282491476146_);}
	.st57{fill:url(#SVGID_00000042004134359270740080000002358438353036109443_);}
	.st58{fill:url(#SVGID_00000032630365569935349560000010529618566612017798_);}
	.st59{fill:url(#SVGID_00000080193414405937241670000000481100902315565452_);}
	.st60{fill:url(#SVGID_00000116197666550939085750000003832635531201396663_);}
	.st61{fill:url(#SVGID_00000142171998995406583420000002490631183479167930_);}
	.st62{fill:url(#SVGID_00000075160920034438931220000007647544170013942960_);}
	.st63{fill:url(#SVGID_00000031911166694599111300000008441855154290409653_);}
	.st64{display:none;fill:url(#SVGID_00000124853731794274221130000006774240983911703189_);}
	.st65{fill:#262262;}
	.st66{fill:none;stroke:#262262;stroke-width:2;stroke-miterlimit:10;}
	.st67{fill:url(#SVGID_00000036237283690081780740000010247926548876356746_);}
	.st68{fill:url(#SVGID_00000099630147072936179500000016548467023012240805_);}
	.st69{fill:url(#SVGID_00000041253674902088126660000013835268652978479287_);}
	.st70{fill:url(#SVGID_00000165222744238691650880000006429275777211841192_);}
	.st71{fill:url(#SVGID_00000120529295888881433110000005899386691469158556_);}
	.st72{fill:url(#SVGID_00000150825416949651877760000004721650282717780100_);}
	.st73{fill:url(#SVGID_00000000920934523778376400000009657761609247316127_);}
	.st74{fill:url(#SVGID_00000162344344953281562390000010827623871337945493_);}
	.st75{fill:url(#SVGID_00000047772267086823942470000005393316165065660351_);}
	.st76{fill:url(#SVGID_00000025425477163529707230000002767481066705633436_);}
	.st77{fill:url(#SVGID_00000081617963752461770000000013797847737942550670_);}
	.st78{fill:url(#SVGID_00000183232148587101453650000004820023844365143197_);}
	.st79{fill:url(#SVGID_00000066509186270834984290000000771111475098511260_);}
	.st80{fill:url(#SVGID_00000114794024658775992560000012278326413444853144_);}
	.st81{fill:url(#SVGID_00000147909033721350858390000017153118077277482666_);}
	.st82{fill:url(#SVGID_00000147206707839170187760000016475723727470988713_);}
	.st83{fill:url(#SVGID_00000045598038985761152750000009053140251857625739_);}
	.st84{fill:url(#SVGID_00000051385781428091260340000000220786697597709239_);}
	.st85{fill:url(#SVGID_00000131369502374105701750000009643694379410208946_);}
	.st86{display:none;fill:url(#SVGID_00000066497076133831922520000006468405629778073247_);}
	.st87{fill:url(#SVGID_00000043448468210196030070000015779454473644050357_);}
	.st88{fill:url(#SVGID_00000071557281950258373350000006106192829897102509_);}
	.st89{fill:url(#SVGID_00000046334525381682374630000006969310355938866857_);}
	.st90{fill:url(#SVGID_00000026144582610655558300000010517568575221495461_);}
	.st91{fill:url(#SVGID_00000101806147894886455440000010368520190546481050_);}
	.st92{fill:url(#SVGID_00000040571996816635666520000005274806541261255100_);}
	.st93{fill:url(#SVGID_00000114066993878018693240000013425591085172131494_);}
	.st94{fill:url(#SVGID_00000090280476200136182040000006418757190899270562_);}
	.st95{fill:url(#SVGID_00000163788898959399933500000009500513971325627008_);}
	.st96{fill:url(#SVGID_00000075841249409733322530000008555946716076878742_);}
	.st97{fill:url(#SVGID_00000013904738729630862100000012581451085763684748_);}
	.st98{fill:url(#SVGID_00000137095678442306310640000016854101036896191876_);}
	.st99{fill:url(#SVGID_00000113353839491996168500000000855137310633537700_);}
	.st100{fill:url(#SVGID_00000173150451175522565350000007025016655167260855_);}
	.st101{fill:url(#SVGID_00000067941191613550428910000013092823469620011946_);}
	.st102{fill:url(#SVGID_00000093862109110051761410000007896768900227531166_);}
	.st103{fill:url(#SVGID_00000183232212135093649930000015044753771560558995_);}
	.st104{fill:url(#SVGID_00000097496395756537765650000002858477319340569740_);}
	.st105{fill:url(#SVGID_00000100352107379308064200000017182611876414353553_);}
	.st106{display:none;fill:url(#SVGID_00000017496256909849768600000011217154484034981267_);}
	.st107{fill:url(#SVGID_00000114756272492365880350000004418076889318047896_);}
	.st108{fill:url(#SVGID_00000142164036045086373580000005558246593667528374_);}
	.st109{fill:url(#SVGID_00000018215859745956436560000006831750959459248288_);}
	.st110{fill:url(#SVGID_00000034059954321016696130000006887068267404645547_);}
	.st111{fill:url(#SVGID_00000076564121939584196780000008874076889936715654_);}
	.st112{fill:url(#SVGID_00000142868989720702595460000002099334575846587561_);}
	.st113{fill:url(#SVGID_00000047750473074666558870000009239531143113800597_);}
	.st114{fill:url(#SVGID_00000070110560073133126900000009971727263198614405_);}
	.st115{fill:url(#SVGID_00000154400634145217197890000015496137298204467087_);}
	.st116{fill:url(#SVGID_00000024720365760814780950000013889734737174579599_);}
	.st117{fill:url(#SVGID_00000021819331655364649210000013711934880217728698_);}
	.st118{fill:url(#SVGID_00000166671901794400216630000001219694377803495833_);}
	.st119{fill:url(#SVGID_00000144331004016853481770000001766947667931049663_);}
	.st120{fill:url(#SVGID_00000013873936057156839770000011045993981893357745_);}
	.st121{fill:url(#SVGID_00000093138594550387524590000015835176356365135039_);}
	.st122{fill:url(#SVGID_00000024692323872699762990000002783190593116541865_);}
	.st123{fill:url(#SVGID_00000155836444044127797340000000259611533954759359_);}
	.st124{fill:url(#SVGID_00000181785398429524756890000002031476052735754124_);}
	.st125{fill:url(#SVGID_00000139284044859496713740000007341472317253435805_);}
	.st126{display:none;fill:url(#SVGID_00000011710265178297359430000004941292233639694725_);}
	.st127{fill:#CAA382;}
	.st128{fill:#1D3539;}
	.st129{fill:none;stroke:#1D3539;stroke-width:3;stroke-miterlimit:10;}
	.st130{display:none;fill:#1D3539;}
	.st131{fill:none;stroke:#FFFFFF;stroke-width:2;stroke-miterlimit:10;}
	.st132{display:none;fill:#CAA382;}
	.st133{fill:#FF8D3B;}
	.st134{fill:#E93E8D;}
</style>
<rect x="0" y="0" class="st22" width="3000" height="3000"/>
<g>
	<g>
		<path class="st65" d="M1197.21,1680.53h16.29c0.68,0,1.02,0.34,1.02,1.02v2.04c0,0.68-0.34,1.02-1.02,1.02h-13.24v13.24h13.24
			c0.68,0,1.02,0.34,1.02,1.02v2.04c0,0.68-0.34,1.02-1.02,1.02h-13.24v7.11c0,0.68-0.34,1.02-1.02,1.02l-2.04,0.02
			c-0.68,0-1.02-0.34-1.02-1.02v-27.5C1196.19,1680.87,1196.53,1680.53,1197.21,1680.53z"/>
		<path class="st65" d="M1268.65,1680.53h2.06c0.67,0.01,1,0.35,1,1.02v27.5c0,0.68-0.34,1.02-1.02,1.02h-2.04
			c-0.68,0-1.02-0.34-1.02-1.02v-27.5C1267.63,1680.87,1267.97,1680.53,1268.65,1680.53z"/>
		<path class="st65" d="M1328.89,1709.05c0,0.68-0.34,1.02-1.02,1.02h-2.04c-0.68,0-1.02-0.34-1.02-1.02v-17.82
			c0-2.95,1.04-5.47,3.13-7.56c2.08-2.09,4.61-3.14,7.57-3.14c2.95,0,5.47,1.05,7.56,3.14c2.09,2.09,3.14,4.61,3.14,7.56v17.82
			c0,0.68-0.34,1.02-1.02,1.02h-2.04c-0.68,0-1.02-0.34-1.02-1.02v-17.82c0-1.83-0.65-3.39-1.94-4.68s-2.85-1.94-4.68-1.94
			s-3.39,0.65-4.68,1.94s-1.94,2.85-1.94,4.68V1709.05z"/>
		<path class="st65" d="M1405.94,1710.07h-5.6c-0.68,0-1.02-0.35-1.02-1.04v-27.48c0-0.68,0.34-1.02,1.02-1.02h5.6
			c4.07,0,7.55,1.44,10.44,4.33c2.88,2.89,4.33,6.36,4.33,10.44s-1.44,7.55-4.33,10.44
			C1413.49,1708.62,1410.01,1710.07,1405.94,1710.07z M1413.49,1702.87c2.09-2.08,3.14-4.61,3.14-7.57c0-2.95-1.05-5.47-3.14-7.56
			c-2.09-2.09-4.61-3.14-7.56-3.14h-2.55v21.39h2.55C1408.88,1705.99,1411.4,1704.95,1413.49,1702.87z"/>
		<path class="st65" d="M1550.35,1695.85l-7.13-15.32h4.58l4.58,9.84l4.58-9.84h4.58l-7.13,15.32v13.2c0,0.68-0.34,1.02-1.02,1.02
			h-2.04c-0.68,0-1.02-0.34-1.02-1.02V1695.85z"/>
		<path class="st65" d="M1629.43,1710.07c-4.07,0-7.55-1.44-10.44-4.33s-4.33-6.37-4.33-10.44s1.44-7.55,4.33-10.44
			c2.89-2.89,6.37-4.33,10.44-4.33c4.07,0,7.55,1.44,10.44,4.33c2.88,2.89,4.33,6.36,4.33,10.44s-1.44,7.55-4.33,10.44
			C1636.99,1708.62,1633.51,1710.07,1629.43,1710.07z M1636.99,1702.87c2.09-2.08,3.14-4.61,3.14-7.57c0-2.95-1.04-5.47-3.14-7.56
			c-2.09-2.09-4.61-3.14-7.56-3.14c-2.96,0-5.48,1.05-7.57,3.14c-2.08,2.09-3.13,4.61-3.13,7.56c0,2.96,1.04,5.48,3.13,7.57
			c2.08,2.08,4.61,3.13,7.57,3.13C1632.38,1705.99,1634.9,1704.95,1636.99,1702.87z"/>
		<path class="st65" d="M1701.39,1699.37c0,1.83,0.65,3.4,1.94,4.68c1.29,1.29,2.85,1.94,4.68,1.94s3.39-0.64,4.68-1.94
			c1.29-1.29,1.94-2.85,1.94-4.68v-17.82c0-0.68,0.34-1.02,1.02-1.02h2.04c0.68,0,1.02,0.34,1.02,1.02v17.82
			c0,2.95-1.05,5.47-3.14,7.56c-2.09,2.09-4.61,3.14-7.56,3.14c-2.96,0-5.48-1.05-7.57-3.14c-2.08-2.09-3.13-4.61-3.13-7.56v-17.82
			c0-0.68,0.34-1.02,1.02-1.02h2.04c0.68,0,1.02,0.34,1.02,1.02V1699.37z"/>
		<path class="st65" d="M1779.68,1701.57c-0.98-0.26-1.9-0.66-2.77-1.2v-5.58c0.26,0.39,0.56,0.77,0.92,1.12
			c1.29,1.29,2.85,1.93,4.68,1.93s3.39-0.64,4.68-1.93s1.94-2.85,1.94-4.69c0-1.83-0.65-3.39-1.94-4.68s-2.85-1.94-4.68-1.94
			s-3.39,0.65-4.68,1.94s-1.94,2.85-1.94,4.68v17.82c0,0.68-0.34,1.02-1.02,1.02h-2.04c-0.68,0-1.02-0.34-1.02-1.02v-17.82
			c0-2.95,1.04-5.47,3.13-7.56c2.08-2.09,4.61-3.14,7.57-3.14c2.95,0,5.47,1.05,7.56,3.14c2.09,2.09,3.14,4.61,3.14,7.56
			c0,2.96-1.05,5.48-3.14,7.56c-1.51,1.51-3.23,2.47-5.17,2.89l9.33,8.39h-5.09L1779.68,1701.57z"/>
		<path class="st65" d="M1919.79,1701.92v7.13c0,0.68-0.34,1.02-1.02,1.02h-2.04c-0.68,0-1.02-0.34-1.02-1.02v-27.5
			c0-0.68,0.34-1.02,1.02-1.02h2.06c0.67,0.01,1,0.35,1,1.02v16.29h10.18v-16.29c0-0.68,0.34-1.02,1.02-1.02h2.06
			c0.67,0.01,1,0.35,1,1.02v27.5c0,0.68-0.34,1.02-1.02,1.02H1931c-0.68,0-1.02-0.34-1.02-1.02v-7.13H1919.79z"/>
		<path class="st65" d="M1988.18,1680.53h16.29c0.68,0,1.02,0.34,1.02,1.02v2.04c0,0.68-0.34,1.02-1.02,1.02h-13.24v13.24h13.24
			c0.68,0,1.02,0.34,1.02,1.02v2.04c0,0.68-0.34,1.02-1.02,1.02h-13.24v4.07h13.24c0.68,0,1.02,0.34,1.02,1.02v2.04
			c0,0.68-0.34,1.02-1.02,1.02h-16.29c-0.68,0-1.02-0.34-1.02-1.02v-27.5C1987.16,1680.87,1987.5,1680.53,1988.18,1680.53z"/>
		<path class="st65" d="M2062.68,1701.92v7.13c0,0.68-0.34,1.02-1.02,1.02h-2.04c-0.68,0-1.02-0.34-1.02-1.02v-17.82
			c0-2.95,1.04-5.47,3.13-7.56c2.08-2.09,4.61-3.14,7.57-3.14c2.95,0,5.47,1.05,7.56,3.14c2.09,2.09,3.14,4.61,3.14,7.56v17.82
			c0,0.68-0.34,1.02-1.02,1.02h-2.04c-0.68,0-1.02-0.34-1.02-1.02v-7.13H2062.68z M2075.92,1697.84v-6.62
			c0-1.83-0.65-3.39-1.94-4.68s-2.85-1.94-4.68-1.94s-3.39,0.65-4.68,1.94s-1.94,2.85-1.94,4.68v6.62H2075.92z"/>
		<path class="st65" d="M2137.08,1710.07l-7.13-29.53h4.07l5.09,21.1l5.09-21.1h4.07l-7.13,29.53H2137.08z"/>
		<path class="st65" d="M2202.41,1680.53h16.29c0.68,0,1.02,0.34,1.02,1.02v2.04c0,0.68-0.34,1.02-1.02,1.02h-13.24v13.24h13.24
			c0.68,0,1.02,0.34,1.02,1.02v2.04c0,0.68-0.34,1.02-1.02,1.02h-13.24v4.07h13.24c0.68,0,1.02,0.34,1.02,1.02v2.04
			c0,0.68-0.34,1.02-1.02,1.02h-16.29c-0.68,0-1.02-0.34-1.02-1.02v-27.5C2201.39,1680.87,2201.73,1680.53,2202.41,1680.53z"/>
		<path class="st65" d="M2276.91,1709.05c0,0.68-0.34,1.02-1.02,1.02h-2.04c-0.68,0-1.02-0.34-1.02-1.02v-17.82
			c0-2.95,1.04-5.47,3.13-7.56c2.08-2.09,4.61-3.14,7.57-3.14c2.95,0,5.47,1.05,7.56,3.14c2.09,2.09,3.14,4.61,3.14,7.56v17.82
			c0,0.68-0.34,1.02-1.02,1.02h-2.04c-0.68,0-1.02-0.34-1.02-1.02v-17.82c0-1.83-0.65-3.39-1.94-4.68s-2.85-1.94-4.68-1.94
			s-3.39,0.65-4.68,1.94s-1.94,2.85-1.94,4.68V1709.05z"/>
	</g>
	<g>
		<path class="st65" d="M1100.53,1385.56h43.84v9.77c0,8.58-1.39,16.2-4.17,22.87c-2.78,6.67-6.71,12.27-11.79,16.8
			c-5.08,4.53-11.12,7.94-18.11,10.24c-6.99,2.3-14.69,3.45-23.11,3.45h-58.37c-8.42,0-16.12-1.15-23.11-3.45
			c-6.99-2.3-12.98-5.72-17.99-10.24c-5-4.53-8.9-10.13-11.67-16.8c-2.78-6.67-4.17-14.29-4.17-22.87v-56.46
			c0-8.58,1.39-16.16,4.17-22.75c2.78-6.59,6.67-12.15,11.67-16.68c5-4.53,11-7.98,17.99-10.36c6.99-2.38,14.69-3.57,23.11-3.57
			h58.37c8.42,0,16.12,1.19,23.11,3.57c6.99,2.38,13.02,5.84,18.11,10.36c5.08,4.53,9.01,10.09,11.79,16.68
			c2.78,6.59,4.17,14.18,4.17,22.75v9.77h-43.84v-6.19c0-6.83-1.79-11.99-5.36-15.49c-3.57-3.49-8.7-5.24-15.37-5.24h-43.36
			c-6.67,0-11.79,1.75-15.37,5.24c-3.57,3.5-5.36,8.66-5.36,15.49v49.32c0,6.83,1.79,11.99,5.36,15.49c3.57,3.5,8.7,5.24,15.37,5.24
			h43.36c6.67,0,11.79-1.75,15.37-5.24c3.57-3.49,5.36-8.66,5.36-15.49V1385.56z"/>
		<path class="st65" d="M1174.39,1285.49h43.84v126.98h111.5v36.21h-155.34V1285.49z"/>
		<path class="st65" d="M1359.74,1338.86c0-8.58,1.39-16.16,4.17-22.75c2.78-6.59,6.67-12.15,11.67-16.68
			c5-4.53,11-7.98,17.99-10.36c6.99-2.38,14.69-3.57,23.11-3.57h58.37c8.42,0,16.12,1.19,23.11,3.57
			c6.99,2.38,13.02,5.84,18.11,10.36c5.08,4.53,9.01,10.09,11.79,16.68c2.78,6.59,4.17,14.18,4.17,22.75v56.46
			c0,8.58-1.39,16.2-4.17,22.87c-2.78,6.67-6.71,12.27-11.79,16.8c-5.08,4.53-11.12,7.94-18.11,10.24
			c-6.99,2.3-14.69,3.45-23.11,3.45h-58.37c-8.42,0-16.12-1.15-23.11-3.45c-6.99-2.3-12.98-5.72-17.99-10.24
			c-5-4.53-8.9-10.13-11.67-16.8c-2.78-6.67-4.17-14.29-4.17-22.87V1338.86z M1488.39,1391.75v-49.32c0-6.83-1.79-11.99-5.36-15.49
			c-3.57-3.49-8.7-5.24-15.37-5.24h-43.36c-6.67,0-11.79,1.75-15.37,5.24c-3.57,3.5-5.36,8.66-5.36,15.49v49.32
			c0,6.83,1.79,11.99,5.36,15.49c3.57,3.5,8.7,5.24,15.37,5.24h43.36c6.67,0,11.79-1.75,15.37-5.24
			C1486.61,1403.75,1488.39,1398.58,1488.39,1391.75z"/>
		<path class="st65" d="M1690.9,1285.49h43.84v109.83c0,8.58-1.39,16.2-4.17,22.87c-2.78,6.67-6.71,12.27-11.79,16.8
			c-5.08,4.53-11.12,7.94-18.11,10.24c-6.99,2.3-14.69,3.45-23.11,3.45h-58.37c-8.42,0-16.12-1.15-23.11-3.45
			c-6.99-2.3-12.98-5.72-17.99-10.24c-5-4.53-8.9-10.13-11.67-16.8c-2.78-6.67-4.17-14.29-4.17-22.87v-109.83h43.84v106.26
			c0,6.83,1.79,11.99,5.36,15.49c3.57,3.5,8.7,5.24,15.37,5.24h43.36c6.67,0,11.79-1.75,15.37-5.24c3.57-3.49,5.36-8.66,5.36-15.49
			V1285.49z"/>
		<path class="st65" d="M1888.29,1326.95c-3.57-3.49-8.7-5.24-15.37-5.24h-108.16v-36.21h115.55c8.42,0,16.12,1.19,23.11,3.57
			c6.99,2.38,12.98,5.84,17.99,10.36c5,4.53,8.89,10.09,11.67,16.68c2.78,6.59,4.17,14.18,4.17,22.75v56.46
			c0,8.58-1.39,16.2-4.17,22.87c-2.78,6.67-6.67,12.27-11.67,16.8c-5,4.53-11,7.94-17.99,10.24c-6.99,2.3-14.69,3.45-23.11,3.45
			h-115.55v-36.21h108.16c6.67,0,11.79-1.75,15.37-5.24c3.57-3.49,5.36-8.66,5.36-15.49v-49.32
			C1893.65,1335.61,1891.86,1330.44,1888.29,1326.95z"/>
		<path class="st65" d="M2095.44,1448.69l-84.34-101.25v101.25h-43.84v-163.2h44.55l84.1,101.25v-101.25h43.84v163.2H2095.44z"/>
		<path class="st65" d="M2213.6,1448.69h-43.84v-163.2h43.84V1448.69z"/>
		<path class="st65" d="M2371.8,1448.69l-84.34-101.25v101.25h-43.84v-163.2h44.55l84.1,101.25v-101.25h43.84v163.2H2371.8z"/>
		<path class="st65" d="M2446.13,1321.71v-36.21h155.81v36.21H2446.13z M2446.13,1349.11h155.81v36.21h-111.98v27.16h111.98v36.21
			h-155.81V1349.11z"/>
	</g>
	<g>
		<path class="st65" d="M1175.36,1568.4l-11.46-21.8h-0.45h-14.83v21.8h-20.56v-78.77h35.4c20.9,0,32.81,10.11,32.81,27.64
			c0,11.91-4.94,20.68-14.05,25.39l16.41,25.73H1175.36z M1148.61,1530.19h14.94c8.32,0,13.15-4.27,13.15-12.25
			c0-7.75-4.83-11.91-13.15-11.91h-14.94V1530.19z"/>
		<path class="st65" d="M1437.84,1489.63v16.41h-41.58v14.72h37.53v16.29l-37.53,0.11v14.83h42.7v16.41h-63.26v-78.77H1437.84z"/>
		<path class="st65" d="M1670.31,1554.46h-34.05l-5.51,13.93h-21.12l33.82-78.77h21.12l33.04,78.77h-21.91L1670.31,1554.46z
			 M1664.24,1538.73l-10.79-28.09l-11.01,28.09H1664.24z"/>
		<path class="st65" d="M1891.55,1489.63v61.24h33.37v17.53h-53.94v-78.77H1891.55z"/>
		<path class="st65" d="M2161.22,1489.63v16.97h-23.6v61.8h-20.56v-61.8h-23.37v-16.97H2161.22z"/>
		<path class="st65" d="M2377.18,1543.23v25.17h-20.56v-24.61l-28.99-54.16h20.56l18.65,33.82l18.2-33.82h20.56L2377.18,1543.23z"/>
	</g>
	<line class="st66" x1="970.91" y1="1626.62" x2="2602.46" y2="1626.62"/>
	<g>
		<g>
			<linearGradient id="SVGID_1_" gradientUnits="userSpaceOnUse" x1="840.4633" y1="1301.9813" x2="444.171" y2="1764.568">
				<stop  offset="0" style="stop-color:#FF8D3B"/>
				<stop  offset="0.1341" style="stop-color:#F97850"/>
				<stop  offset="0.3406" style="stop-color:#F25F6B"/>
				<stop  offset="0.5519" style="stop-color:#ED4D7E"/>
				<stop  offset="0.7689" style="stop-color:#EA4289"/>
				<stop  offset="1" style="stop-color:#E93E8D"/>
			</linearGradient>
			<path class="st2" d="M661.66,1545.3c0.02-1.2,0.42-2.4,1.22-3.42c0.03-0.05,0.07-0.1,0.1-0.15c0.02,0,0.02,0,0.02-0.02
				c0.02,0,0.02-0.02,0.03-0.03c0.02-0.02,0.02-0.03,0.03-0.05c0.17-0.18,0.43-0.58,0.67-1.07c0.23-0.48,0.45-1.05,0.6-1.57
				c0.03-0.12,0.05-0.22,0.08-0.28v-23.48h-11.08c-2.02,0-3.87-1.17-4.72-3l-0.1-0.25c-0.02,0-0.02-0.02-0.02-0.02l-0.03-0.07
				l-0.02-0.03c-1.37-3.19-3.65-5.91-6.51-7.83c-2.85-1.9-6.24-3.02-9.96-3.02c-3.7,0-7.09,1.12-9.94,3.02
				c-2.85,1.92-5.14,4.64-6.51,7.79c0,0.02,0,0.02-0.02,0.03l-0.1,0.23c-0.83,1.9-2.7,3.14-4.77,3.14h-11.08v23.44
				c0.02,0.12,0.05,0.22,0.08,0.32c0.15,0.53,0.37,1.1,0.6,1.58c0.23,0.47,0.5,0.87,0.67,1.05c0.02,0.02,0.02,0.02,0.02,0.03
				l0.05,0.05v0.02c0.05,0.05,0.08,0.1,0.12,0.17c0.8,1,1.22,2.22,1.2,3.44v0.02c0,1.27-0.43,2.55-1.3,3.6l-0.07,0.07
				c-0.02,0-0.02,0.02-0.02,0.02c-0.17,0.18-0.43,0.58-0.67,1.07c-0.23,0.48-0.45,1.05-0.62,1.57c-0.02,0.12-0.05,0.22-0.07,0.32
				v23.44h11.08c2.07,0,3.94,1.23,4.77,3.14l0.1,0.25h0.02c1.37,3.17,3.65,5.89,6.51,7.81s6.24,3.02,9.94,3.02
				c3.72,0,7.11-1.1,9.96-3.02c2.85-1.92,5.14-4.64,6.51-7.81l0.02-0.05l0.03-0.05c0-0.02,0-0.02,0.02-0.03l0.1-0.23
				c0.85-1.85,2.7-3.02,4.72-3.02h11.08v-23.46c-0.03-0.08-0.05-0.17-0.08-0.27v-0.02c-0.15-0.53-0.37-1.1-0.6-1.59
				c-0.23-0.48-0.5-0.88-0.67-1.07c-0.02,0-0.02-0.02-0.02-0.03c-0.02-0.02-0.03-0.03-0.05-0.05c0,0,0,0-0.02-0.02
				c-0.03-0.03-0.07-0.1-0.1-0.15c-0.8-1.02-1.22-2.24-1.22-3.44V1545.3z M638.05,1541.43l4.49,33.45h-21.97l4.49-33.45
				c-4.26-2.32-7.14-6.83-7.14-12c0-7.54,6.11-13.65,13.65-13.65c7.53,0,13.63,6.11,13.63,13.65
				C645.19,1534.6,642.31,1539.11,638.05,1541.43z"/>
			
				<linearGradient id="SVGID_00000018954161560640969120000016374752153860572294_" gradientUnits="userSpaceOnUse" x1="840.4603" y1="1301.9788" x2="444.168" y2="1764.5653">
				<stop  offset="0" style="stop-color:#FF8D3B"/>
				<stop  offset="0.1341" style="stop-color:#F97850"/>
				<stop  offset="0.3406" style="stop-color:#F25F6B"/>
				<stop  offset="0.5519" style="stop-color:#ED4D7E"/>
				<stop  offset="0.7689" style="stop-color:#EA4289"/>
				<stop  offset="1" style="stop-color:#E93E8D"/>
			</linearGradient>
			<path style="fill:url(#SVGID_00000018954161560640969120000016374752153860572294_);" d="M665.75,1544.03l0.02-0.02
				c0.93-1.08,1.6-2.57,2.04-4.05c0.07-0.27,0.13-0.47,0.18-0.67c0.02-0.08,0.02-0.18,0.02-0.28v-26.18c0-0.32-0.12-0.62-0.35-0.85
				c-0.22-0.22-0.52-0.35-0.85-0.35h-13.47c-0.63,0-1.18-0.37-1.45-0.92l-0.12-0.23l-0.02-0.07c-1.65-3.82-4.39-7.07-7.79-9.36
				c-3.42-2.29-7.54-3.64-11.98-3.64c-2.22,0-4.35,0.35-6.36,0.95c-2,0.63-3.89,1.55-5.61,2.69c-3.42,2.3-6.16,5.56-7.81,9.38
				l-0.1,0.23c-0.25,0.58-0.83,0.97-1.47,0.97h-13.48c-0.32,0-0.62,0.13-0.85,0.35c-0.22,0.23-0.35,0.53-0.35,0.85v26.16
				c0,0.1,0.02,0.2,0.03,0.28c0.05,0.22,0.12,0.43,0.17,0.67l0.02,0.03c0.43,1.47,1.1,2.95,2.04,4.04l0.02,0.02
				c0.32,0.38,0.48,0.85,0.48,1.3v0.02c0,0.45-0.17,0.9-0.48,1.28l-0.02,0.02c-0.93,1.08-1.6,2.57-2.04,4.05l-0.02,0.02
				c-0.05,0.23-0.12,0.45-0.17,0.67c-0.02,0.1-0.03,0.2-0.03,0.3v26.15c0,0.32,0.13,0.63,0.35,0.85c0.23,0.23,0.53,0.35,0.85,0.35
				h13.48c0.63,0,1.22,0.38,1.47,0.97l0.1,0.23v0.02c1.65,3.82,4.39,7.06,7.81,9.36s7.52,3.64,11.96,3.64
				c2.22,0,4.36-0.33,6.37-0.95c2-0.63,3.89-1.53,5.61-2.69c3.4-2.29,6.14-5.54,7.79-9.34l0.02-0.07l0.12-0.25
				c0.27-0.55,0.82-0.92,1.45-0.92h13.47c0.33,0,0.63-0.12,0.85-0.35c0.23-0.22,0.35-0.53,0.35-0.85v-26.18c0-0.1,0-0.2-0.03-0.3
				c-0.05-0.18-0.1-0.4-0.17-0.63c-0.43-1.49-1.1-2.97-2.04-4.07l-0.02-0.02c-0.32-0.38-0.48-0.83-0.48-1.28v-0.02
				C665.27,1544.88,665.43,1544.41,665.75,1544.03z M663.92,1548.18l0.03,0.03v0.02c0.58,0.63,1.2,1.92,1.53,3.14
				c0.05,0.17,0.1,0.3,0.13,0.43v24.83h-12.28c-1.55,0-2.97,0.9-3.62,2.32l-0.12,0.23l-0.02,0.02l-0.03,0.07v0.02
				c-1.47,3.4-3.91,6.29-6.94,8.34c-3.04,2.04-6.67,3.22-10.63,3.22c-3.94,0-7.58-1.18-10.63-3.22c-3.04-2.05-5.47-4.94-6.94-8.34
				l-0.1-0.23c-0.63-1.47-2.09-2.42-3.67-2.42h-12.28v-24.79c0.03-0.17,0.08-0.32,0.12-0.48c0.35-1.22,0.98-2.5,1.55-3.12v-0.02
				l0.05-0.03c0.68-0.83,1.02-1.84,1.02-2.84v-0.02c0-1-0.33-2.02-1.03-2.84v-0.02l-0.03-0.03v-0.02c-0.58-0.62-1.2-1.89-1.53-3.1
				c-0.05-0.17-0.1-0.33-0.13-0.48v-24.81h12.28c1.59,0,3.04-0.95,3.67-2.4l0.1-0.25c1.47-3.39,3.9-6.29,6.94-8.33
				c3.05-2.05,6.69-3.24,10.63-3.24c3.95,0,7.59,1.18,10.63,3.24c3.04,2.04,5.47,4.94,6.94,8.33v0.02l0.03,0.07l0.02,0.02l0.12,0.23
				c0.65,1.42,2.07,2.32,3.62,2.32h12.28v24.83c-0.03,0.13-0.08,0.27-0.13,0.45c-0.33,1.22-0.95,2.49-1.53,3.12v0.02l-0.03,0.03
				v0.02c-0.68,0.82-1.03,1.82-1.05,2.82v0.03C662.87,1546.35,663.22,1547.35,663.92,1548.18z"/>
			
				<linearGradient id="SVGID_00000065791094350057804850000013854928240942381998_" gradientUnits="userSpaceOnUse" x1="805.8157" y1="1272.2992" x2="409.5233" y2="1734.8857">
				<stop  offset="0" style="stop-color:#FF8D3B"/>
				<stop  offset="0.1341" style="stop-color:#F97850"/>
				<stop  offset="0.3406" style="stop-color:#F25F6B"/>
				<stop  offset="0.5519" style="stop-color:#ED4D7E"/>
				<stop  offset="0.7689" style="stop-color:#EA4289"/>
				<stop  offset="1" style="stop-color:#E93E8D"/>
			</linearGradient>
			<path style="fill:url(#SVGID_00000065791094350057804850000013854928240942381998_);" d="M621.41,1490.69
				c0.16,0.16,0.41,0.16,0.57,0c0.16-0.16,0.16-0.41,0-0.57l-2.94-2.94c-0.16-0.16-0.41-0.16-0.57,0c-0.16,0.16-0.16,0.41,0,0.57
				L621.41,1490.69z"/>
			
				<linearGradient id="SVGID_00000003062872197513335660000017765861054374736813_" gradientUnits="userSpaceOnUse" x1="810.1241" y1="1275.9901" x2="413.8318" y2="1738.5768">
				<stop  offset="0" style="stop-color:#FF8D3B"/>
				<stop  offset="0.1341" style="stop-color:#F97850"/>
				<stop  offset="0.3406" style="stop-color:#F25F6B"/>
				<stop  offset="0.5519" style="stop-color:#ED4D7E"/>
				<stop  offset="0.7689" style="stop-color:#EA4289"/>
				<stop  offset="1" style="stop-color:#E93E8D"/>
			</linearGradient>
			<path style="fill:url(#SVGID_00000003062872197513335660000017765861054374736813_);" d="M631.95,1486.45
				c0.22,0,0.4-0.18,0.4-0.4v-4.15c0-0.22-0.18-0.4-0.4-0.4c-0.22,0-0.4,0.18-0.4,0.4v4.15
				C631.55,1486.27,631.73,1486.45,631.95,1486.45z"/>
			
				<linearGradient id="SVGID_00000095321655548127008010000009799301792034743432_" gradientUnits="userSpaceOnUse" x1="812.8734" y1="1278.3453" x2="416.581" y2="1740.932">
				<stop  offset="0" style="stop-color:#FF8D3B"/>
				<stop  offset="0.1341" style="stop-color:#F97850"/>
				<stop  offset="0.3406" style="stop-color:#F25F6B"/>
				<stop  offset="0.5519" style="stop-color:#ED4D7E"/>
				<stop  offset="0.7689" style="stop-color:#EA4289"/>
				<stop  offset="1" style="stop-color:#E93E8D"/>
			</linearGradient>
			<path style="fill:url(#SVGID_00000095321655548127008010000009799301792034743432_);" d="M635.62,1486.89
				c0.21,0.06,0.43-0.07,0.49-0.28l1.07-4.01c0.06-0.21-0.07-0.43-0.28-0.49c-0.21-0.06-0.43,0.07-0.49,0.28l-1.07,4.01
				C635.28,1486.62,635.41,1486.84,635.62,1486.89z"/>
			
				<linearGradient id="SVGID_00000115481659590525481710000000842629556663827333_" gradientUnits="userSpaceOnUse" x1="816.0007" y1="1281.0245" x2="419.7084" y2="1743.6112">
				<stop  offset="0" style="stop-color:#FF8D3B"/>
				<stop  offset="0.1341" style="stop-color:#F97850"/>
				<stop  offset="0.3406" style="stop-color:#F25F6B"/>
				<stop  offset="0.5519" style="stop-color:#ED4D7E"/>
				<stop  offset="0.7689" style="stop-color:#EA4289"/>
				<stop  offset="1" style="stop-color:#E93E8D"/>
			</linearGradient>
			<path style="fill:url(#SVGID_00000115481659590525481710000000842629556663827333_);" d="M639.05,1488.28
				c0.19,0.11,0.44,0.04,0.55-0.15l2.08-3.6c0.11-0.19,0.04-0.44-0.15-0.55c-0.19-0.11-0.44-0.04-0.55,0.15l-2.08,3.6
				C638.79,1487.92,638.86,1488.17,639.05,1488.28z"/>
			
				<linearGradient id="SVGID_00000068671239835906298780000008217977208981742753_" gradientUnits="userSpaceOnUse" x1="819.2931" y1="1283.8451" x2="423.0007" y2="1746.4316">
				<stop  offset="0" style="stop-color:#FF8D3B"/>
				<stop  offset="0.1341" style="stop-color:#F97850"/>
				<stop  offset="0.3406" style="stop-color:#F25F6B"/>
				<stop  offset="0.5519" style="stop-color:#ED4D7E"/>
				<stop  offset="0.7689" style="stop-color:#EA4289"/>
				<stop  offset="1" style="stop-color:#E93E8D"/>
			</linearGradient>
			<path style="fill:url(#SVGID_00000068671239835906298780000008217977208981742753_);" d="M642.57,1490.5l2.94-2.94
				c0.16-0.16,0.16-0.41,0-0.57c-0.16-0.16-0.41-0.16-0.57,0l-2.94,2.94c-0.16,0.16-0.16,0.41,0,0.57
				C642.16,1490.66,642.41,1490.66,642.57,1490.5z"/>
			
				<linearGradient id="SVGID_00000087380486452493082640000015982824411897041075_" gradientUnits="userSpaceOnUse" x1="806.4708" y1="1272.8604" x2="410.1784" y2="1735.447">
				<stop  offset="0" style="stop-color:#FF8D3B"/>
				<stop  offset="0.1341" style="stop-color:#F97850"/>
				<stop  offset="0.3406" style="stop-color:#F25F6B"/>
				<stop  offset="0.5519" style="stop-color:#ED4D7E"/>
				<stop  offset="0.7689" style="stop-color:#EA4289"/>
				<stop  offset="1" style="stop-color:#E93E8D"/>
			</linearGradient>
			<path style="fill:url(#SVGID_00000087380486452493082640000015982824411897041075_);" d="M624.34,1488.26
				c0.11,0.19,0.36,0.26,0.55,0.15c0.19-0.11,0.26-0.36,0.15-0.55l-2.08-3.6c-0.11-0.19-0.36-0.26-0.55-0.15
				c-0.19,0.11-0.26,0.36-0.15,0.55L624.34,1488.26z"/>
			
				<linearGradient id="SVGID_00000043416701658443296590000018324636674383342241_" gradientUnits="userSpaceOnUse" x1="807.9403" y1="1274.1193" x2="411.648" y2="1736.7059">
				<stop  offset="0" style="stop-color:#FF8D3B"/>
				<stop  offset="0.1341" style="stop-color:#F97850"/>
				<stop  offset="0.3406" style="stop-color:#F25F6B"/>
				<stop  offset="0.5519" style="stop-color:#ED4D7E"/>
				<stop  offset="0.7689" style="stop-color:#EA4289"/>
				<stop  offset="1" style="stop-color:#E93E8D"/>
			</linearGradient>
			<path style="fill:url(#SVGID_00000043416701658443296590000018324636674383342241_);" d="M627.8,1486.68
				c0.06,0.21,0.28,0.34,0.49,0.28c0.21-0.06,0.34-0.28,0.28-0.49l-1.07-4.01c-0.06-0.21-0.28-0.34-0.49-0.28
				c-0.21,0.06-0.34,0.28-0.28,0.49L627.8,1486.68z"/>
			
				<linearGradient id="SVGID_00000028316798085400409330000010842750428614709638_" gradientUnits="userSpaceOnUse" x1="840.4586" y1="1301.9773" x2="444.1663" y2="1764.564">
				<stop  offset="0" style="stop-color:#FF8D3B"/>
				<stop  offset="0.1341" style="stop-color:#F97850"/>
				<stop  offset="0.3406" style="stop-color:#F25F6B"/>
				<stop  offset="0.5519" style="stop-color:#ED4D7E"/>
				<stop  offset="0.7689" style="stop-color:#EA4289"/>
				<stop  offset="1" style="stop-color:#E93E8D"/>
			</linearGradient>
			<path style="fill:url(#SVGID_00000028316798085400409330000010842750428614709638_);" d="M670.91,1567.99
				c-0.18-0.65-0.32-1.25-0.37-1.67c-0.03-0.22-0.07-0.38-0.08-0.5c0-0.13-0.02-0.18-0.02-0.18c0-0.03-0.02-0.07-0.03-0.1v-14.2
				c0.1-0.37,0.18-0.7,0.28-1.07c0.47-1.6,1.22-3.34,2.37-4.67c0.13-0.15,0.13-0.38,0-0.53c-1.15-1.32-1.9-3.05-2.37-4.66
				c-0.1-0.37-0.18-0.72-0.28-1.07v-14.2c0.02-0.03,0.03-0.07,0.03-0.12c0,0,0.02-0.05,0.02-0.17c0.05-0.42,0.2-1.49,0.6-2.69
				c0.4-1.18,1.05-2.49,2.05-3.35l0.33-0.28l-0.33-0.32c-1.15-0.98-1.84-2.54-2.2-3.84c-0.18-0.67-0.32-1.25-0.37-1.69
				c-0.03-0.22-0.07-0.38-0.08-0.5c0-0.12-0.02-0.17-0.02-0.17c0-0.05-0.02-0.08-0.03-0.12v-2.69h-6.76
				c0.18-0.2,0.33-0.47,0.37-0.77l0.02-0.18c0-0.3-0.1-0.58-0.25-0.82c-0.05-0.08-0.12-0.13-0.18-0.15
				c-0.03-0.02-0.05-0.05-0.08-0.07c-0.35-0.2-0.83-0.08-1.03,0.28c-0.2,0.37-0.07,0.83,0.3,1.05c0.08,0.05,0.2,0.08,0.3,0.1
				c-0.05,0.05-0.1,0.12-0.18,0.17c-0.18,0.13-0.43,0.22-0.67,0.22h-0.12c-0.53-0.07-1.05-0.45-1.5-0.92c-1-1.02-1.7-2.25-2.35-3.6
				c-0.33-0.63-0.63-1.3-0.97-1.97c0.35,0.17,0.73,0.28,1.13,0.28c0.32,0,0.65-0.08,0.97-0.25c0.6-0.35,0.87-1,0.88-1.57
				c0-0.27-0.07-0.52-0.22-0.75c-0.13-0.2-0.37-0.33-0.62-0.37c-0.03-0.02-0.07-0.03-0.1-0.05c-0.3-0.08-0.62,0.03-0.8,0.28
				c-0.05,0.05-0.08,0.12-0.1,0.18c0,0.02-0.02,0.05-0.03,0.07c-0.12,0.42,0.13,0.83,0.53,0.93c0.17,0.05,0.33,0.02,0.5-0.03
				c-0.07,0.23-0.22,0.48-0.45,0.6c-0.18,0.1-0.37,0.15-0.57,0.15c-0.43,0-0.93-0.22-1.37-0.55c-0.3-0.22-0.57-0.48-0.77-0.75
				c-0.03-0.07-0.08-0.15-0.13-0.22c-0.95-1.52-2.2-2.84-3.65-3.87c-0.03-0.03-0.05-0.07-0.1-0.08c-0.02-0.02-0.03-0.03-0.07-0.03
				c-1.18-0.83-2.49-1.48-3.87-1.9c-0.52-0.15-1.05-0.25-1.58-0.32c0.38-0.27,0.72-0.58,0.98-0.97c0.28-0.4,0.52-0.92,0.53-1.47
				v-0.07c0-0.53-0.22-1.1-0.68-1.45c-0.27-0.18-0.57-0.28-0.87-0.28c-0.32,0-0.65,0.1-0.9,0.33c-0.17,0.17-0.28,0.38-0.32,0.6
				c-0.02,0.05-0.02,0.08-0.02,0.13c0,0.02,0,0.02,0,0.02v0.05c0.02,0.07,0.02,0.13,0.05,0.2c0,0.03,0.03,0.08,0.05,0.12
				c0.03,0.05,0.05,0.08,0.07,0.12c0.02,0.02,0.02,0.03,0.03,0.05c0.03,0.05,0.08,0.08,0.15,0.1c0,0,0.02,0.02,0.03,0.03
				c0.37,0.2,0.83,0.08,1.03-0.28c0.12-0.2,0.12-0.42,0.07-0.62c0.05,0.02,0.1,0.05,0.13,0.08c0.23,0.15,0.38,0.48,0.37,0.8v0.03
				c0,0.35-0.15,0.72-0.38,1.03c-0.5,0.72-1.35,1.22-2.22,1.3c-0.03,0-0.03,0.02-0.05,0.02c-1.15,0.02-2.27,0.17-3.34,0.4
				c-1.53,0.33-2.99,0.7-4.42,0.7c-0.75,0-1.5-0.1-2.27-0.35c-0.78-0.28-1.52-0.7-1.99-1.34c-0.3-0.4-0.48-0.92-0.48-1.4
				c0-0.23,0.03-0.47,0.13-0.68c0.1-0.27,0.35-0.55,0.65-0.75c0.3-0.2,0.63-0.33,0.92-0.33c0.17,0,0.3,0.05,0.42,0.12
				c0.12,0.07,0.23,0.18,0.33,0.37c0.03,0.07,0.05,0.12,0.07,0.18c-0.3-0.03-0.6,0.1-0.77,0.38c-0.2,0.37-0.07,0.83,0.3,1.05
				c0.33,0.18,0.75,0.07,0.97-0.23l0.03-0.02v-0.02c0.02-0.02,0.02-0.02,0.03-0.03c0.02-0.03,0.02-0.05,0.03-0.08
				c0.13-0.25,0.23-0.55,0.23-0.83c0-0.27-0.07-0.53-0.18-0.77c-0.17-0.32-0.38-0.55-0.63-0.7c-0.27-0.15-0.55-0.22-0.83-0.22
				c-0.5,0.02-0.97,0.2-1.37,0.48c-0.32,0.22-0.6,0.48-0.8,0.82c-0.18-0.33-0.47-0.6-0.78-0.82c-0.4-0.28-0.88-0.47-1.37-0.48
				c-0.28,0-0.57,0.07-0.83,0.22c-0.25,0.15-0.48,0.38-0.63,0.7c-0.12,0.23-0.18,0.5-0.18,0.77c0,0.28,0.08,0.58,0.23,0.83
				c0.02,0.03,0.02,0.05,0.03,0.08c0,0.02,0.02,0.02,0.03,0.03v0.02l0.02,0.02c0.23,0.3,0.65,0.42,0.98,0.23
				c0.37-0.22,0.5-0.68,0.28-1.05c-0.15-0.28-0.47-0.42-0.77-0.38c0.02-0.07,0.05-0.12,0.08-0.18c0.08-0.18,0.2-0.3,0.32-0.37
				c0.13-0.07,0.27-0.12,0.43-0.12c0.27,0,0.62,0.13,0.92,0.33c0.3,0.2,0.53,0.48,0.65,0.75c0.08,0.22,0.13,0.45,0.13,0.68
				c0,0.48-0.18,1-0.5,1.4c-0.47,0.63-1.18,1.05-1.97,1.34c-0.77,0.25-1.53,0.35-2.27,0.35c-1.43,0-2.89-0.37-4.44-0.7
				c-1.05-0.23-2.19-0.38-3.32-0.4c-0.02,0-0.03-0.02-0.05-0.02c-0.87-0.08-1.72-0.58-2.22-1.3c-0.23-0.32-0.38-0.68-0.4-1.03v-0.03
				c0-0.32,0.15-0.65,0.37-0.8c0.05-0.03,0.1-0.07,0.15-0.08c-0.07,0.2-0.05,0.42,0.07,0.62c0.2,0.37,0.67,0.48,1.03,0.28
				c0.02-0.02,0.02-0.03,0.03-0.03c0.05-0.02,0.1-0.05,0.15-0.1c0-0.02,0-0.03,0.02-0.05c0.03-0.03,0.05-0.07,0.08-0.12
				c0.02-0.03,0.03-0.08,0.05-0.12c0.03-0.07,0.03-0.13,0.03-0.2c0-0.02,0.02-0.03,0.02-0.05c0,0,0,0,0-0.02
				c0-0.05-0.02-0.08-0.02-0.13c-0.05-0.22-0.17-0.43-0.33-0.6c-0.25-0.23-0.58-0.33-0.88-0.33c-0.32,0-0.6,0.1-0.87,0.28
				c-0.47,0.35-0.7,0.92-0.7,1.45v0.07c0.03,0.55,0.25,1.07,0.55,1.47c0.27,0.38,0.6,0.7,0.98,0.97c-0.53,0.07-1.07,0.17-1.59,0.32
				c-1.39,0.42-2.7,1.07-3.89,1.9c-0.02,0-0.03,0.02-0.07,0.03c-0.03,0.02-0.07,0.05-0.1,0.08c-1.44,1.03-2.69,2.35-3.65,3.87
				c-0.05,0.07-0.08,0.15-0.13,0.22c-0.2,0.27-0.45,0.53-0.75,0.75c-0.43,0.33-0.95,0.55-1.37,0.55c-0.2,0-0.4-0.05-0.58-0.15
				c-0.22-0.12-0.37-0.37-0.43-0.6c0.15,0.05,0.32,0.08,0.5,0.03c0.4-0.1,0.63-0.52,0.53-0.93c-0.02-0.02-0.03-0.05-0.03-0.07
				c-0.02-0.07-0.05-0.13-0.1-0.18c-0.18-0.25-0.5-0.37-0.8-0.28l-0.1,0.05c-0.25,0.03-0.48,0.17-0.62,0.37
				c-0.17,0.23-0.22,0.48-0.22,0.75c0,0.57,0.28,1.22,0.88,1.57c0.3,0.17,0.65,0.25,0.97,0.25c0.4,0,0.77-0.12,1.13-0.28
				c-0.33,0.67-0.63,1.33-0.97,1.97c-0.65,1.35-1.35,2.59-2.35,3.6c-0.45,0.47-0.97,0.85-1.5,0.92h-0.12
				c-0.23,0-0.48-0.08-0.67-0.22c-0.08-0.05-0.13-0.12-0.18-0.17c0.1-0.02,0.2-0.05,0.3-0.1c0.37-0.22,0.5-0.68,0.3-1.05
				c-0.22-0.37-0.68-0.48-1.05-0.28c-0.02,0.02-0.03,0.05-0.07,0.07c-0.07,0.02-0.13,0.07-0.18,0.15c-0.15,0.23-0.25,0.52-0.25,0.82
				l0.02,0.18c0.03,0.3,0.17,0.57,0.35,0.77h-6.76v2.69c0,0.03-0.02,0.07-0.02,0.12c0,0-0.02,0.05-0.03,0.17
				c-0.03,0.42-0.18,1.48-0.58,2.67c-0.4,1.2-1.05,2.5-2.05,3.35l-0.33,0.32l0.33,0.28c1.13,0.98,1.82,2.55,2.2,3.85
				c0.18,0.67,0.3,1.25,0.37,1.68c0.03,0.2,0.07,0.38,0.07,0.5c0.02,0.12,0.03,0.17,0.03,0.17c0,0.05,0.02,0.08,0.02,0.12v14.2
				c-0.07,0.33-0.17,0.68-0.27,1.07c-0.47,1.6-1.22,3.34-2.37,4.66c-0.13,0.15-0.13,0.38,0,0.53c1.15,1.33,1.9,3.07,2.37,4.67
				c0.1,0.37,0.2,0.72,0.27,1.05v14.22c0,0.03-0.02,0.07-0.02,0.1c0,0-0.02,0.05-0.03,0.18c-0.03,0.4-0.18,1.49-0.58,2.67
				c-0.4,1.18-1.05,2.49-2.05,3.35l-0.33,0.3l0.33,0.3c1.13,0.98,1.82,2.54,2.2,3.85c0.18,0.65,0.3,1.25,0.37,1.67
				c0.03,0.22,0.07,0.38,0.07,0.52c0.02,0.1,0.03,0.17,0.03,0.17c0,0.03,0.02,0.07,0.02,0.1v2.69h6.76
				c-0.18,0.22-0.32,0.47-0.35,0.77l-0.02,0.2c0,0.3,0.1,0.58,0.25,0.82c0.05,0.07,0.12,0.12,0.18,0.15
				c0.03,0.02,0.05,0.03,0.07,0.05c0.37,0.22,0.83,0.08,1.05-0.28c0.2-0.37,0.07-0.83-0.3-1.03c-0.1-0.07-0.2-0.08-0.3-0.1
				c0.05-0.07,0.1-0.12,0.18-0.18c0.18-0.12,0.43-0.2,0.67-0.2h0.12c0.53,0.07,1.05,0.43,1.5,0.9c1,1.02,1.7,2.27,2.35,3.6
				c0.33,0.65,0.63,1.32,0.97,1.97c-0.37-0.17-0.73-0.27-1.13-0.27c-0.32-0.02-0.67,0.07-0.97,0.25c-0.6,0.35-0.88,0.98-0.88,1.55
				c0,0.27,0.05,0.53,0.22,0.77c0.13,0.18,0.37,0.32,0.62,0.37l0.1,0.05c0.3,0.07,0.62-0.05,0.8-0.28c0.05-0.07,0.08-0.12,0.1-0.2
				c0-0.02,0.02-0.03,0.03-0.07c0.1-0.4-0.13-0.82-0.53-0.93c-0.18-0.05-0.35-0.02-0.5,0.05c0.07-0.25,0.22-0.5,0.43-0.62
				c0.18-0.1,0.38-0.13,0.58-0.13c0.42-0.02,0.93,0.2,1.37,0.55c0.3,0.22,0.55,0.48,0.75,0.73c0.05,0.08,0.08,0.15,0.13,0.23
				c0.97,1.5,2.22,2.82,3.65,3.87c0.03,0.02,0.07,0.05,0.1,0.08c0.03,0.02,0.05,0.02,0.07,0.03c1.19,0.83,2.5,1.49,3.89,1.89
				c0.52,0.15,1.05,0.27,1.59,0.33c-0.38,0.27-0.72,0.58-0.98,0.95c-0.3,0.42-0.52,0.92-0.55,1.49v0.05c0,0.55,0.23,1.12,0.7,1.47
				c0.27,0.18,0.55,0.27,0.87,0.28c0.3,0,0.63-0.12,0.88-0.35c0.17-0.17,0.28-0.37,0.33-0.6c0-0.05,0.02-0.08,0.02-0.12v-0.03
				c0-0.02-0.02-0.03-0.02-0.05c0-0.07,0-0.13-0.03-0.2c-0.02-0.03-0.03-0.07-0.05-0.1c-0.03-0.05-0.05-0.1-0.08-0.13
				c-0.02-0.02-0.02-0.03-0.02-0.05c-0.05-0.03-0.1-0.07-0.15-0.1c-0.02,0-0.02-0.02-0.03-0.03c-0.37-0.2-0.83-0.07-1.03,0.3
				c-0.12,0.18-0.13,0.42-0.07,0.6c-0.05-0.02-0.1-0.03-0.15-0.07c-0.22-0.15-0.37-0.48-0.37-0.82v-0.03
				c0.02-0.35,0.17-0.7,0.4-1.03c0.5-0.72,1.35-1.2,2.22-1.3c0.02,0,0.03-0.02,0.05-0.02c1.13-0.02,2.27-0.17,3.32-0.38
				c1.55-0.33,3-0.72,4.44-0.72c0.73,0,1.5,0.1,2.27,0.37c0.78,0.27,1.5,0.7,1.97,1.32c0.32,0.4,0.5,0.93,0.5,1.4
				c0,0.25-0.05,0.48-0.13,0.7c-0.12,0.25-0.35,0.53-0.65,0.73c-0.3,0.22-0.65,0.33-0.93,0.33c-0.15,0-0.28-0.03-0.42-0.1
				c-0.12-0.08-0.23-0.18-0.32-0.37c-0.03-0.07-0.07-0.13-0.08-0.2c0.3,0.05,0.62-0.1,0.77-0.37c0.22-0.37,0.08-0.83-0.28-1.05
				c-0.33-0.18-0.75-0.08-0.98,0.23c0,0,0,0-0.02,0.02c0,0,0,0,0,0.02c-0.02,0-0.03,0.02-0.03,0.02c-0.02,0.03-0.02,0.07-0.03,0.1
				c-0.15,0.25-0.23,0.53-0.23,0.83c0,0.25,0.07,0.52,0.18,0.77c0.15,0.3,0.38,0.53,0.63,0.68c0.27,0.15,0.55,0.22,0.82,0.22
				c0.5,0,0.98-0.2,1.39-0.47c0.32-0.22,0.6-0.5,0.78-0.82c0.2,0.32,0.48,0.6,0.8,0.82c0.4,0.27,0.87,0.47,1.37,0.47
				c0.28,0,0.57-0.07,0.83-0.22c0.25-0.15,0.47-0.38,0.63-0.68c0.12-0.25,0.18-0.52,0.18-0.77c0-0.3-0.1-0.58-0.23-0.85
				c-0.02-0.02-0.02-0.05-0.03-0.08c-0.02,0-0.02-0.02-0.03-0.02c0-0.02,0-0.02,0-0.02c-0.02-0.02-0.02-0.02-0.03-0.02
				c-0.22-0.32-0.63-0.42-0.97-0.23c-0.37,0.22-0.5,0.68-0.3,1.05c0.17,0.27,0.47,0.42,0.77,0.37c-0.02,0.07-0.03,0.13-0.07,0.2
				c-0.1,0.18-0.22,0.28-0.33,0.37c-0.12,0.07-0.25,0.1-0.42,0.1c-0.28,0-0.62-0.12-0.92-0.33c-0.3-0.2-0.55-0.48-0.65-0.73
				c-0.1-0.22-0.13-0.45-0.13-0.7c0-0.47,0.18-1,0.48-1.4c0.47-0.62,1.2-1.05,1.99-1.32c0.77-0.27,1.52-0.37,2.27-0.37
				c1.43,0,2.89,0.38,4.42,0.72c1.07,0.22,2.19,0.37,3.32,0.38c0.03,0,0.03,0.02,0.07,0.02c0.87,0.1,1.72,0.58,2.22,1.3
				c0.23,0.33,0.38,0.68,0.38,1.03v0.03c0.02,0.33-0.13,0.67-0.37,0.82c-0.03,0.03-0.08,0.05-0.13,0.07
				c0.05-0.18,0.05-0.42-0.07-0.6c-0.2-0.37-0.67-0.5-1.03-0.3c-0.02,0.02-0.03,0.03-0.03,0.03c-0.07,0.03-0.12,0.07-0.15,0.1
				c-0.02,0.02-0.02,0.03-0.03,0.05c-0.02,0.03-0.03,0.08-0.07,0.13c-0.02,0.03-0.05,0.07-0.05,0.1c-0.03,0.07-0.03,0.13-0.05,0.2
				v0.05c0,0.02,0,0.02,0,0.03c0,0.03,0,0.07,0.02,0.12c0.03,0.23,0.15,0.43,0.32,0.6c0.25,0.23,0.58,0.35,0.9,0.35
				c0.3-0.02,0.6-0.1,0.87-0.28c0.47-0.35,0.68-0.92,0.68-1.47v-0.05c-0.02-0.57-0.25-1.07-0.53-1.49c-0.27-0.37-0.6-0.68-0.98-0.95
				c0.53-0.07,1.07-0.18,1.58-0.33c1.39-0.4,2.69-1.05,3.87-1.89c0.03-0.02,0.05-0.02,0.07-0.03c0.05-0.03,0.07-0.07,0.1-0.08
				c1.45-1.05,2.7-2.37,3.65-3.87c0.05-0.08,0.1-0.15,0.13-0.23c0.2-0.25,0.47-0.52,0.77-0.73c0.43-0.35,0.93-0.57,1.37-0.55
				c0.2,0,0.38,0.03,0.57,0.13c0.23,0.12,0.38,0.37,0.45,0.62c-0.17-0.07-0.33-0.1-0.5-0.05c-0.4,0.12-0.65,0.53-0.53,0.93
				c0.02,0.03,0.03,0.05,0.03,0.07c0.02,0.08,0.05,0.13,0.1,0.2c0.18,0.23,0.5,0.35,0.8,0.28c0.03-0.02,0.07-0.03,0.1-0.05
				c0.25-0.05,0.48-0.18,0.62-0.37c0.15-0.23,0.22-0.5,0.22-0.77c-0.02-0.57-0.28-1.2-0.88-1.55c-0.32-0.18-0.65-0.27-0.97-0.25
				c-0.4,0-0.78,0.1-1.13,0.27c0.33-0.65,0.63-1.32,0.97-1.97c0.65-1.34,1.35-2.59,2.35-3.6c0.45-0.47,0.97-0.83,1.5-0.9h0.12
				c0.23,0,0.48,0.08,0.67,0.2c0.08,0.07,0.13,0.12,0.18,0.18c-0.1,0.02-0.22,0.03-0.3,0.1c-0.37,0.2-0.5,0.67-0.3,1.03
				c0.2,0.37,0.68,0.5,1.03,0.28c0.03-0.02,0.05-0.03,0.08-0.05c0.07-0.03,0.13-0.08,0.18-0.15c0.15-0.23,0.25-0.52,0.25-0.82
				l-0.02-0.2c-0.03-0.3-0.18-0.55-0.37-0.77h6.76v-2.69c0.02-0.03,0.03-0.07,0.03-0.1c0,0,0.02-0.07,0.02-0.17
				c0.05-0.42,0.2-1.5,0.6-2.69c0.4-1.2,1.05-2.49,2.05-3.35l0.33-0.3l-0.33-0.3C671.96,1570.86,671.27,1569.31,670.91,1567.99z
				 M670.41,1515.45c0.4,1.05,0.97,2.19,1.85,3.09c-0.88,0.88-1.45,2.02-1.85,3.07V1515.45z M593.55,1575.23
				c-0.38-1.07-0.97-2.2-1.85-3.09c0.88-0.9,1.47-2.02,1.85-3.09V1575.23z M654.39,1499.48c0.33,0.38,0.65,0.8,0.93,1.23v0.02
				c0.08,0.15,0.2,0.32,0.32,0.47c0.7,1.15,1.27,2.44,1.89,3.7c0.68,1.35,1.42,2.69,2.5,3.8c0.18,0.17,0.38,0.37,0.62,0.52h-6.79
				c-0.9-1.99-2.04-3.84-3.4-5.49c0.3,0.08,0.62,0.13,0.93,0.13c0.5,0,0.98-0.12,1.45-0.35c0.7-0.38,1.22-1.05,1.47-1.8
				c0.13-0.4,0.2-0.82,0.2-1.22C654.51,1500.15,654.47,1499.8,654.39,1499.48z M641.77,1495.39c1.1-0.23,2.25-0.38,3.4-0.38
				c1.05,0,2.09,0.12,3.05,0.4c1.37,0.4,2.65,1.05,3.8,1.89c0.75,0.6,1.35,1.42,1.57,2.34c0.07,0.28,0.1,0.57,0.1,0.87
				c0,0.33-0.05,0.65-0.15,0.97c-0.2,0.57-0.6,1.07-1.1,1.33c-0.32,0.18-0.68,0.27-1.07,0.27c-0.85,0-1.75-0.43-2.22-1.1
				c-0.27-0.37-0.42-0.83-0.42-1.28c0-0.17,0.02-0.35,0.07-0.52c0.17-0.58,0.67-1.08,1.24-1.2c0.08-0.02,0.18-0.03,0.28-0.03
				c0.48,0,0.98,0.28,1.2,0.68c0.07,0.13,0.12,0.3,0.13,0.45c0,0,0,0-0.02,0c-0.32-0.07-0.63,0.08-0.8,0.37
				c-0.22,0.37-0.08,0.83,0.28,1.03c0.1,0.07,0.2,0.08,0.32,0.1c0.27,0.05,0.55-0.05,0.73-0.28c0.03-0.02,0.05-0.03,0.07-0.07
				c0-0.02,0.02-0.02,0.02-0.02s0,0,0-0.02c0.02-0.02,0.03-0.03,0.03-0.05c0.12-0.3,0.18-0.6,0.18-0.92c0-0.32-0.08-0.67-0.23-0.97
				c-0.38-0.72-1.15-1.1-1.92-1.12c-0.15,0-0.3,0.02-0.43,0.05c-0.92,0.18-1.6,0.92-1.85,1.77c-0.07,0.23-0.1,0.48-0.1,0.73
				c0,0.17,0.02,0.32,0.03,0.48c-2.62-2.37-5.77-4.15-9.26-5.17C639.76,1495.84,640.76,1495.61,641.77,1495.39z M631.66,1494.12
				c0.13-0.17,0.23-0.35,0.32-0.53c0.1,0.18,0.2,0.37,0.32,0.53c0.3,0.38,0.65,0.68,1.03,0.93c-0.45-0.02-0.88-0.05-1.35-0.05
				c-0.45,0-0.9,0.03-1.35,0.05C631.03,1494.81,631.38,1494.51,631.66,1494.12z M610.37,1499.63c0.22-0.92,0.8-1.74,1.57-2.34
				c1.15-0.83,2.44-1.49,3.8-1.89c0.97-0.28,2-0.4,3.05-0.4c1.13,0,2.3,0.15,3.39,0.38c1.02,0.22,2.04,0.45,3.07,0.6
				c-3.49,1.02-6.64,2.8-9.28,5.17c0.03-0.17,0.03-0.32,0.05-0.48c0-0.25-0.03-0.5-0.1-0.73c-0.25-0.85-0.95-1.58-1.85-1.77
				c-0.13-0.03-0.28-0.05-0.43-0.05c-0.77,0.02-1.54,0.4-1.92,1.12c-0.15,0.3-0.23,0.65-0.23,0.97c0,0.32,0.07,0.62,0.17,0.92
				c0.02,0.02,0.03,0.03,0.05,0.05v0.02c0,0,0,0.02,0.02,0.02c0.02,0.03,0.03,0.05,0.07,0.07c0.17,0.23,0.45,0.33,0.73,0.28
				c0.1-0.02,0.22-0.03,0.32-0.1c0.37-0.2,0.5-0.67,0.28-1.03c-0.17-0.28-0.5-0.43-0.82-0.37c0.02-0.15,0.05-0.32,0.12-0.45
				c0.22-0.4,0.73-0.68,1.22-0.68c0.1,0,0.18,0.02,0.27,0.03c0.57,0.12,1.09,0.62,1.25,1.2c0.03,0.17,0.07,0.35,0.07,0.52
				c0,0.45-0.15,0.92-0.43,1.28c-0.45,0.67-1.35,1.1-2.2,1.1c-0.38,0-0.75-0.08-1.07-0.27c-0.52-0.27-0.9-0.77-1.1-1.33
				c-0.1-0.32-0.15-0.63-0.15-0.97C610.27,1500.2,610.31,1499.91,610.37,1499.63z M603.93,1508.71c1.1-1.12,1.84-2.45,2.52-3.8
				c0.62-1.27,1.18-2.55,1.89-3.7c0.12-0.15,0.22-0.32,0.3-0.47c0,0,0-0.02,0.02-0.02c0.28-0.43,0.6-0.85,0.93-1.23
				c-0.08,0.32-0.12,0.67-0.12,1.02c0,0.4,0.05,0.82,0.18,1.22c0.25,0.75,0.77,1.42,1.49,1.8c0.45,0.23,0.95,0.35,1.45,0.35
				c0.32,0,0.63-0.05,0.93-0.13c-1.37,1.65-2.5,3.5-3.4,5.49h-6.79C603.55,1509.07,603.76,1508.87,603.93,1508.71z M591.7,1518.53
				c0.88-0.9,1.47-2.04,1.85-3.09v6.16C593.17,1520.55,592.59,1519.42,591.7,1518.53z M591.72,1545.33
				c1.07-1.32,1.77-2.92,2.24-4.42c0.47,1.5,1.18,3.1,2.25,4.42c-1.07,1.33-1.79,2.92-2.25,4.44
				C593.49,1548.25,592.79,1546.67,591.72,1545.33z M609.59,1591.2c-0.33-0.4-0.65-0.8-0.93-1.23c-0.02-0.02-0.02-0.02-0.02-0.03
				c-0.08-0.15-0.18-0.3-0.3-0.47c-0.7-1.15-1.27-2.44-1.89-3.69c-0.68-1.35-1.42-2.69-2.52-3.8c-0.17-0.18-0.38-0.37-0.6-0.53h6.79
				c0.9,2,2.04,3.84,3.4,5.51c-0.3-0.08-0.62-0.13-0.93-0.13c-0.5,0-1,0.1-1.45,0.35c-0.72,0.37-1.24,1.05-1.49,1.79
				c-0.13,0.4-0.18,0.82-0.18,1.23C609.47,1590.53,609.5,1590.87,609.59,1591.2z M622.19,1595.29c-1.08,0.23-2.25,0.38-3.39,0.38
				c-1.05,0-2.09-0.13-3.05-0.42c-1.37-0.4-2.65-1.05-3.8-1.87c-0.77-0.6-1.35-1.43-1.57-2.34c-0.07-0.3-0.1-0.58-0.1-0.87
				c0-0.33,0.05-0.67,0.15-0.97c0.2-0.57,0.58-1.08,1.1-1.35c0.32-0.17,0.68-0.25,1.07-0.25c0.85,0,1.75,0.43,2.2,1.08
				c0.28,0.38,0.43,0.85,0.43,1.3c0,0.17-0.03,0.33-0.07,0.5c-0.17,0.58-0.68,1.1-1.25,1.22c-0.08,0.02-0.17,0.02-0.27,0.02
				c-0.48,0-1-0.28-1.22-0.68c-0.07-0.13-0.1-0.28-0.12-0.45c0.07,0.02,0.12,0.02,0.17,0.02c0.27,0,0.52-0.13,0.65-0.37
				c0.22-0.38,0.08-0.83-0.28-1.05c-0.1-0.05-0.22-0.08-0.32-0.1c-0.28-0.05-0.57,0.07-0.73,0.28c-0.03,0.03-0.05,0.05-0.07,0.08
				c-0.02,0-0.02,0-0.02,0v0.02c-0.02,0.02-0.03,0.03-0.05,0.07c-0.1,0.28-0.17,0.6-0.17,0.92s0.08,0.65,0.23,0.97
				c0.38,0.7,1.15,1.1,1.92,1.1c0.15,0,0.3-0.02,0.43-0.05c0.9-0.18,1.6-0.9,1.85-1.77c0.07-0.23,0.1-0.48,0.1-0.72
				c-0.02-0.17-0.02-0.33-0.05-0.48c2.64,2.35,5.79,4.14,9.28,5.17C624.22,1594.84,623.2,1595.07,622.19,1595.29z M632.3,1596.56
				c-0.12,0.17-0.22,0.33-0.32,0.52c-0.08-0.18-0.18-0.35-0.32-0.52c-0.28-0.38-0.63-0.7-1.03-0.95c0.45,0.02,0.9,0.05,1.35,0.05
				c0.47,0,0.9-0.03,1.35-0.05C632.95,1595.86,632.6,1596.17,632.3,1596.56z M653.6,1591.05c-0.22,0.9-0.82,1.74-1.57,2.34
				c-1.15,0.82-2.44,1.47-3.8,1.87c-0.97,0.28-2,0.42-3.05,0.42c-1.15,0-2.3-0.15-3.4-0.38c-1.02-0.22-2.02-0.45-3.05-0.6
				c3.49-1.03,6.64-2.82,9.26-5.17c-0.02,0.15-0.03,0.32-0.03,0.48c0,0.23,0.03,0.48,0.1,0.72c0.25,0.87,0.93,1.58,1.85,1.77
				c0.13,0.03,0.28,0.05,0.43,0.05c0.77,0,1.53-0.4,1.92-1.1c0.15-0.32,0.23-0.65,0.23-0.97s-0.07-0.63-0.18-0.92
				c0-0.03-0.02-0.05-0.03-0.07v-0.02h-0.02c-0.02-0.03-0.03-0.05-0.07-0.08c-0.18-0.22-0.47-0.33-0.73-0.28
				c-0.12,0.02-0.22,0.05-0.32,0.1c-0.37,0.22-0.5,0.67-0.28,1.05c0.17,0.28,0.48,0.42,0.8,0.35c0.02,0,0.02,0,0.02,0
				c-0.02,0.17-0.07,0.32-0.13,0.45c-0.22,0.4-0.72,0.68-1.2,0.68c-0.1,0-0.2,0-0.28-0.02c-0.57-0.12-1.07-0.63-1.24-1.22
				c-0.05-0.17-0.07-0.33-0.07-0.5c0-0.45,0.15-0.92,0.42-1.3c0.47-0.65,1.37-1.08,2.22-1.08c0.38,0,0.75,0.08,1.07,0.25
				c0.5,0.27,0.9,0.78,1.1,1.35c0.1,0.3,0.15,0.63,0.15,0.97C653.7,1590.47,653.67,1590.75,653.6,1591.05z M660.03,1581.97
				c-1.08,1.12-1.82,2.45-2.5,3.8c-0.62,1.25-1.18,2.54-1.89,3.69c-0.12,0.17-0.23,0.32-0.32,0.47c0,0.02,0,0.02,0,0.03
				c-0.28,0.43-0.6,0.83-0.93,1.23c0.08-0.33,0.12-0.67,0.12-1.02c0-0.42-0.07-0.83-0.2-1.23c-0.25-0.73-0.77-1.42-1.47-1.79
				c-0.47-0.25-0.95-0.35-1.45-0.35c-0.32,0-0.63,0.05-0.93,0.13c1.37-1.67,2.5-3.5,3.4-5.51h6.79
				C660.41,1581.61,660.21,1581.79,660.03,1581.97z M669.61,1580.64h-16.27l-0.12,0.25c-3.55,8.21-11.71,13.97-21.24,13.97
				c-9.51,0-17.69-5.76-21.24-13.97l-0.1-0.25h-16.28v-29.3c0.08-0.37,0.18-0.7,0.27-1.07c0.48-1.6,1.23-3.34,2.39-4.67
				c0.12-0.15,0.12-0.38,0-0.53c-1.15-1.32-1.9-3.05-2.39-4.66c-0.08-0.37-0.18-0.72-0.27-1.07v-29.32h16.28l0.1-0.23
				c3.55-8.23,11.73-13.98,21.24-13.98c9.53,0,17.69,5.76,21.24,13.98l0.12,0.23h16.27v29.32c-0.07,0.33-0.17,0.68-0.27,1.07
				c-0.47,1.6-1.22,3.34-2.37,4.66c-0.13,0.15-0.13,0.38,0,0.53c1.15,1.33,1.9,3.07,2.37,4.67c0.1,0.37,0.2,0.72,0.27,1.05V1580.64z
				 M670.01,1549.77c-0.45-1.52-1.17-3.1-2.24-4.44c1.07-1.32,1.79-2.92,2.24-4.42c0.47,1.5,1.18,3.1,2.25,4.42
				C671.19,1546.67,670.47,1548.25,670.01,1549.77z M670.41,1575.23v-6.17c0.4,1.07,0.97,2.19,1.85,3.09
				C671.38,1573.03,670.81,1574.16,670.41,1575.23z"/>
			
				<linearGradient id="SVGID_00000087395857974259928810000015166295697271017132_" gradientUnits="userSpaceOnUse" x1="861.5444" y1="1320.0413" x2="465.2521" y2="1782.6278">
				<stop  offset="0" style="stop-color:#FF8D3B"/>
				<stop  offset="0.1341" style="stop-color:#F97850"/>
				<stop  offset="0.3406" style="stop-color:#F25F6B"/>
				<stop  offset="0.5519" style="stop-color:#ED4D7E"/>
				<stop  offset="0.7689" style="stop-color:#EA4289"/>
				<stop  offset="1" style="stop-color:#E93E8D"/>
			</linearGradient>
			<path style="fill:url(#SVGID_00000087395857974259928810000015166295697271017132_);" d="M621.41,1599.98l-2.94,2.94
				c-0.16,0.16-0.16,0.41,0,0.57c0.16,0.16,0.41,0.16,0.57,0l2.94-2.94c0.16-0.16,0.16-0.41,0-0.57
				C621.82,1599.82,621.57,1599.82,621.41,1599.98z"/>
			
				<linearGradient id="SVGID_00000109744081954621130880000005572307046019824549_" gradientUnits="userSpaceOnUse" x1="870.7615" y1="1327.9374" x2="474.4691" y2="1790.524">
				<stop  offset="0" style="stop-color:#FF8D3B"/>
				<stop  offset="0.1341" style="stop-color:#F97850"/>
				<stop  offset="0.3406" style="stop-color:#F25F6B"/>
				<stop  offset="0.5519" style="stop-color:#ED4D7E"/>
				<stop  offset="0.7689" style="stop-color:#EA4289"/>
				<stop  offset="1" style="stop-color:#E93E8D"/>
			</linearGradient>
			<path style="fill:url(#SVGID_00000109744081954621130880000005572307046019824549_);" d="M631.95,1604.22
				c-0.22,0-0.4,0.18-0.4,0.4v4.15c0,0.22,0.18,0.4,0.4,0.4c0.22,0,0.4-0.18,0.4-0.4v-4.15
				C632.35,1604.4,632.17,1604.22,631.95,1604.22z"/>
			
				<linearGradient id="SVGID_00000178898678259401159820000013082628571124971912_" gradientUnits="userSpaceOnUse" x1="872.9846" y1="1329.8419" x2="476.6922" y2="1792.4285">
				<stop  offset="0" style="stop-color:#FF8D3B"/>
				<stop  offset="0.1341" style="stop-color:#F97850"/>
				<stop  offset="0.3406" style="stop-color:#F25F6B"/>
				<stop  offset="0.5519" style="stop-color:#ED4D7E"/>
				<stop  offset="0.7689" style="stop-color:#EA4289"/>
				<stop  offset="1" style="stop-color:#E93E8D"/>
			</linearGradient>
			<path style="fill:url(#SVGID_00000178898678259401159820000013082628571124971912_);" d="M636.11,1604.06
				c-0.06-0.21-0.28-0.34-0.49-0.28c-0.21,0.06-0.34,0.28-0.28,0.49l1.07,4.01c0.06,0.21,0.28,0.34,0.49,0.28
				c0.21-0.06,0.34-0.28,0.28-0.49L636.11,1604.06z"/>
			
				<linearGradient id="SVGID_00000052823101513985984960000004145836746755949991_" gradientUnits="userSpaceOnUse" x1="874.5012" y1="1331.1411" x2="478.2088" y2="1793.7278">
				<stop  offset="0" style="stop-color:#FF8D3B"/>
				<stop  offset="0.1341" style="stop-color:#F97850"/>
				<stop  offset="0.3406" style="stop-color:#F25F6B"/>
				<stop  offset="0.5519" style="stop-color:#ED4D7E"/>
				<stop  offset="0.7689" style="stop-color:#EA4289"/>
				<stop  offset="1" style="stop-color:#E93E8D"/>
			</linearGradient>
			<path style="fill:url(#SVGID_00000052823101513985984960000004145836746755949991_);" d="M639.6,1602.54
				c-0.11-0.19-0.36-0.26-0.55-0.15c-0.19,0.11-0.26,0.36-0.15,0.55l2.08,3.6c0.11,0.19,0.36,0.26,0.55,0.15
				c0.19-0.11,0.26-0.36,0.15-0.55L639.6,1602.54z"/>
			
				<linearGradient id="SVGID_00000032646333367877667660000009769751212175583632_" gradientUnits="userSpaceOnUse" x1="875.208" y1="1331.7467" x2="478.9156" y2="1794.3333">
				<stop  offset="0" style="stop-color:#FF8D3B"/>
				<stop  offset="0.1341" style="stop-color:#F97850"/>
				<stop  offset="0.3406" style="stop-color:#F25F6B"/>
				<stop  offset="0.5519" style="stop-color:#ED4D7E"/>
				<stop  offset="0.7689" style="stop-color:#EA4289"/>
				<stop  offset="1" style="stop-color:#E93E8D"/>
			</linearGradient>
			<path style="fill:url(#SVGID_00000032646333367877667660000009769751212175583632_);" d="M642.57,1600.17
				c-0.16-0.16-0.41-0.16-0.57,0c-0.16,0.16-0.16,0.41,0,0.57l2.94,2.94c0.16,0.16,0.41,0.16,0.57,0c0.16-0.16,0.16-0.41,0-0.57
				L642.57,1600.17z"/>
			
				<linearGradient id="SVGID_00000011032320551700727180000016415817382457830073_" gradientUnits="userSpaceOnUse" x1="864.8396" y1="1322.8643" x2="468.5473" y2="1785.4508">
				<stop  offset="0" style="stop-color:#FF8D3B"/>
				<stop  offset="0.1341" style="stop-color:#F97850"/>
				<stop  offset="0.3406" style="stop-color:#F25F6B"/>
				<stop  offset="0.5519" style="stop-color:#ED4D7E"/>
				<stop  offset="0.7689" style="stop-color:#EA4289"/>
				<stop  offset="1" style="stop-color:#E93E8D"/>
			</linearGradient>
			<path style="fill:url(#SVGID_00000011032320551700727180000016415817382457830073_);" d="M624.89,1602.26
				c-0.19-0.11-0.44-0.04-0.55,0.15l-2.08,3.6c-0.11,0.19-0.04,0.44,0.15,0.55c0.19,0.11,0.44,0.05,0.55-0.15l2.08-3.6
				C625.15,1602.61,625.08,1602.37,624.89,1602.26z"/>
			
				<linearGradient id="SVGID_00000016052115378936743500000008090406709317767823_" gradientUnits="userSpaceOnUse" x1="867.9833" y1="1325.5575" x2="471.691" y2="1788.144">
				<stop  offset="0" style="stop-color:#FF8D3B"/>
				<stop  offset="0.1341" style="stop-color:#F97850"/>
				<stop  offset="0.3406" style="stop-color:#F25F6B"/>
				<stop  offset="0.5519" style="stop-color:#ED4D7E"/>
				<stop  offset="0.7689" style="stop-color:#EA4289"/>
				<stop  offset="1" style="stop-color:#E93E8D"/>
			</linearGradient>
			<path style="fill:url(#SVGID_00000016052115378936743500000008090406709317767823_);" d="M628.29,1603.7
				c-0.21-0.06-0.43,0.07-0.49,0.28l-1.08,4.01c-0.06,0.21,0.07,0.43,0.28,0.49c0.21,0.06,0.43-0.07,0.49-0.28l1.07-4.01
				C628.63,1603.98,628.5,1603.76,628.29,1603.7z"/>
		</g>
		<g>
			<g>
				
					<linearGradient id="SVGID_00000178194317512676542260000009952620448644245680_" gradientUnits="userSpaceOnUse" x1="854.3251" y1="1313.8566" x2="458.0327" y2="1776.4431">
					<stop  offset="0" style="stop-color:#FF8D3B"/>
					<stop  offset="0.1341" style="stop-color:#F97850"/>
					<stop  offset="0.3406" style="stop-color:#F25F6B"/>
					<stop  offset="0.5519" style="stop-color:#ED4D7E"/>
					<stop  offset="0.7689" style="stop-color:#EA4289"/>
					<stop  offset="1" style="stop-color:#E93E8D"/>
				</linearGradient>
				<path style="fill:url(#SVGID_00000178194317512676542260000009952620448644245680_);" d="M866.43,1498.79v-77.54l-31.22-28.64
					l-41.72-38.27l-31.22-28.64l-41.72-38.28l-15.6-14.31l-15.62-14.33l-6.46-5.92l-28.8-26.43l-6.46-5.92l-15.62-14.33
					l-15.61,14.32l-6.47,5.93l-28.8,26.43l-6.45,5.91l-15.63,14.33l-15.6,14.31l-72.95,66.92l-41.72,38.28l-31.22,28.64v304.28
					h15.61v0.02h437.67v-0.02h15.61v-90.14h-364.7l-0.03-175.84l130.28-119.51l15.62,14.32l114.66,105.19v39.24H866.43z
					 M720.55,1380.77l-31.22-28.63l-57.34-52.6l-15.61,14.32l-145.89,133.83v187.7h0.01l0.03,28.64h364.7v32.87H428.76v-263.79
					l41.72-38.28l31.22-28.64l41.72-38.27l37.68-34.56l22.07-20.26l13.2-12.1l15.61-14.32l15.62,14.33l13.19,12.09l22.07,20.26
					l6.46,5.92l31.22,28.64l41.72,38.28l72.95,66.92v38.68h-41.72v-24.11l-31.22-28.64L720.55,1380.77z"/>
				
					<linearGradient id="SVGID_00000176023633005438242710000016868503621551361459_" gradientUnits="userSpaceOnUse" x1="837.4286" y1="1299.3815" x2="441.1362" y2="1761.9681">
					<stop  offset="0" style="stop-color:#FF8D3B"/>
					<stop  offset="0.1341" style="stop-color:#F97850"/>
					<stop  offset="0.3406" style="stop-color:#F25F6B"/>
					<stop  offset="0.5519" style="stop-color:#ED4D7E"/>
					<stop  offset="0.7689" style="stop-color:#EA4289"/>
					<stop  offset="1" style="stop-color:#E93E8D"/>
				</linearGradient>
				<polygon style="fill:url(#SVGID_00000176023633005438242710000016868503621551361459_);" points="724.87,1464.08 724.87,1614.3 
					692.12,1614.3 692.12,1475.95 648.36,1437.67 631.98,1423.35 615.61,1437.67 571.85,1475.94 571.85,1614.3 539.1,1614.3 
					539.1,1464.08 571.85,1435.44 615.61,1397.16 631.98,1382.84 648.36,1397.17 692.12,1435.44 				"/>
				
					<linearGradient id="SVGID_00000114792837800042604420000009961127119113039275_" gradientUnits="userSpaceOnUse" x1="858.4692" y1="1317.4069" x2="462.1769" y2="1779.9934">
					<stop  offset="0" style="stop-color:#FF8D3B"/>
					<stop  offset="0.1341" style="stop-color:#F97850"/>
					<stop  offset="0.3406" style="stop-color:#F25F6B"/>
					<stop  offset="0.5519" style="stop-color:#ED4D7E"/>
					<stop  offset="0.7689" style="stop-color:#EA4289"/>
					<stop  offset="1" style="stop-color:#E93E8D"/>
				</linearGradient>
				<path style="display:none;fill:url(#SVGID_00000114792837800042604420000009961127119113039275_);" d="M657.85,1549.25v65.05
					h-51.72v-65.05l16.3-14.7h0v0l9.31-8.4c0.13-0.11,0.36-0.11,0.48,0l9.32,8.4L657.85,1549.25z"/>
			</g>
		</g>
	</g>
</g>
</svg>
