<?xml version="1.0" encoding="utf-8"?>
<!-- Generator: Adobe Illustrator 27.3.1, SVG Export Plug-In . SVG Version: 6.00 Build 0)  -->
<svg version="1.1" id="Layer_1" xmlns="http://www.w3.org/2000/svg" xmlns:xlink="http://www.w3.org/1999/xlink" x="0px" y="0px"
	 viewBox="0 0 3000 1000" style="enable-background:new 0 0 3000 1000;" xml:space="preserve">
<style type="text/css">
	.st0{display:none;}
	.st1{display:inline;}
	.st2{fill:url(#SVGID_1_);}
	.st3{fill:url(#SVGID_00000182524349259965994840000009153879463582056085_);}
	.st4{fill:url(#SVGID_00000141439038745462702290000010782745814456963982_);}
	.st5{fill:url(#SVGID_00000145056862184309507710000010114086463695867830_);}
	.st6{fill:url(#SVGID_00000122680856265617361040000001259439889044405385_);}
	.st7{fill:url(#SVGID_00000014621985987841664720000004378264412767583933_);}
	.st8{fill:url(#SVGID_00000164513214073907550580000009466066808032268175_);}
	.st9{fill:url(#SVGID_00000127756129015403020220000008894736479547395513_);}
	.st10{fill:url(#SVGID_00000054248895270282169310000008885025655049765051_);}
	.st11{fill:url(#SVGID_00000042735090868878093120000016814176393970218415_);}
	.st12{fill:url(#SVGID_00000076588544130539304550000018294741653255269791_);}
	.st13{fill:url(#SVGID_00000007428654901928644630000011278914874041956773_);}
	.st14{fill:url(#SVGID_00000127758522208456581030000015514384624141523634_);}
	.st15{fill:url(#SVGID_00000124122715653403242960000008029956713831708341_);}
	.st16{fill:url(#SVGID_00000132061924380470722930000000332981543712480910_);}
	.st17{fill:url(#SVGID_00000139983250111715455910000008438288078143680159_);}
	.st18{fill:url(#SVGID_00000173118686161510878070000005997917454837049497_);}
	.st19{fill:url(#SVGID_00000022552298012141456820000003993361053222410664_);}
	.st20{fill:url(#SVGID_00000101811267202434854910000000290310312325194654_);}
	.st21{display:none;fill:url(#SVGID_00000088126321480521351970000004196141418837093026_);}
	.st22{fill:#FFFFFF;}
	.st23{fill:url(#SVGID_00000105418275718627190760000005114299914898311568_);}
	.st24{fill:none;stroke:#F1F2F2;stroke-width:2;stroke-miterlimit:10;}
	.st25{fill:url(#SVGID_00000004541925146508426630000001134394351700811410_);}
	.st26{fill:url(#SVGID_00000168821907557005432080000008784605882164775313_);}
	.st27{fill:url(#SVGID_00000039817356051271896270000005627242399122400423_);}
	.st28{fill:url(#SVGID_00000002378072059676880220000007897606001615402928_);}
	.st29{fill:url(#SVGID_00000085968630503735519490000011917125534147150483_);}
	.st30{fill:url(#SVGID_00000071532225315869829150000008682331997009792928_);}
	.st31{fill:url(#SVGID_00000139973813661914821180000017203753142804812966_);}
	.st32{fill:url(#SVGID_00000121975955739487728030000008465970306463119799_);}
	.st33{fill:url(#SVGID_00000098207935303704607090000013798823165455073947_);}
	.st34{fill:url(#SVGID_00000140692986770255594720000015327616370974717335_);}
	.st35{fill:url(#SVGID_00000048481932750952950800000008672668703819080627_);}
	.st36{fill:url(#SVGID_00000174565357764191593910000001971330820685212313_);}
	.st37{fill:url(#SVGID_00000086654873111626605530000006173765627220275353_);}
	.st38{fill:url(#SVGID_00000147926714634134069540000005038862611112717976_);}
	.st39{fill:url(#SVGID_00000155104813904417609080000002261919681672889784_);}
	.st40{fill:url(#SVGID_00000132051792604775531780000011394082000188932996_);}
	.st41{fill:url(#SVGID_00000166663510925478866430000001886476142706880411_);}
	.st42{fill:url(#SVGID_00000021085849637763116500000017705981164545630859_);}
	.st43{fill:url(#SVGID_00000122714738460102561490000004978747781813051275_);}
	.st44{display:none;fill:url(#SVGID_00000039099320497758157120000016964538320092500651_);}
	.st45{fill:url(#SVGID_00000057132187060082419820000013632002036307310743_);}
	.st46{fill:url(#SVGID_00000034803331699603417520000018008466901695245476_);}
	.st47{fill:url(#SVGID_00000124157600414474015080000002035142106128376999_);}
	.st48{fill:url(#SVGID_00000018918303953250029850000014461652301662212284_);}
	.st49{fill:url(#SVGID_00000023257934396692411810000013971896766764581565_);}
	.st50{fill:url(#SVGID_00000089575684459378686360000003544810212065069996_);}
	.st51{fill:url(#SVGID_00000087407307599077390720000004464013792047490692_);}
	.st52{fill:url(#SVGID_00000164484584909177746910000008505951309442294966_);}
	.st53{fill:url(#SVGID_00000049904819411266653440000017825709847923797420_);}
	.st54{fill:url(#SVGID_00000132779062570906894850000017238607202906692494_);}
	.st55{fill:url(#SVGID_00000069367646022806203620000013665694998319292034_);}
	.st56{fill:url(#SVGID_00000027566407204312010720000007237682825005477532_);}
	.st57{fill:url(#SVGID_00000108285522576691896010000014423278239972907951_);}
	.st58{fill:url(#SVGID_00000142896992472744060180000011491227516761557691_);}
	.st59{fill:url(#SVGID_00000013156167481059050850000010419025633799037625_);}
	.st60{fill:url(#SVGID_00000020384828199854445950000014734066956649925249_);}
	.st61{fill:url(#SVGID_00000005987061353811442090000013079237315131352745_);}
	.st62{fill:url(#SVGID_00000013901735961960404110000007222232339313173181_);}
	.st63{fill:url(#SVGID_00000004522370252078684490000001647248124680664488_);}
	.st64{display:none;fill:url(#SVGID_00000134214289430970352370000014701202171638483341_);}
	.st65{fill:#262262;}
	.st66{fill:none;stroke:#262262;stroke-width:2;stroke-miterlimit:10;}
	.st67{fill:url(#SVGID_00000159456780817431080220000018212357292550549640_);}
	.st68{fill:url(#SVGID_00000144303471697024774340000006055283190243586987_);}
	.st69{fill:url(#SVGID_00000101790979411612097900000004332119776562086802_);}
	.st70{fill:url(#SVGID_00000023973040797013843160000007673258903492743056_);}
	.st71{fill:url(#SVGID_00000131365704554833247020000001138359521863835267_);}
	.st72{fill:url(#SVGID_00000181805219885246546620000009922901299114896056_);}
	.st73{fill:url(#SVGID_00000010990091179784282030000007590139131697836435_);}
	.st74{fill:url(#SVGID_00000039128200242989239980000002667040609277327488_);}
	.st75{fill:url(#SVGID_00000129890365756458819640000008717721999239295129_);}
	.st76{fill:url(#SVGID_00000080195746807735312300000011823301487289727104_);}
	.st77{fill:url(#SVGID_00000008124110460369909330000004110133454812797331_);}
	.st78{fill:url(#SVGID_00000146475274812891690130000011926833040790651805_);}
	.st79{fill:url(#SVGID_00000088816447992014313330000017753851689256123542_);}
	.st80{fill:url(#SVGID_00000101100747502854792880000012962137078058947494_);}
	.st81{fill:url(#SVGID_00000152956448170132476870000013415810624410632841_);}
	.st82{fill:url(#SVGID_00000040575868519282131640000015775603003258703013_);}
	.st83{fill:url(#SVGID_00000130626538050054467490000011495909967598590380_);}
	.st84{fill:url(#SVGID_00000117660601284146353920000000721663598138730147_);}
	.st85{fill:url(#SVGID_00000119081058396769434020000012073753294623506102_);}
	.st86{display:none;fill:url(#SVGID_00000018924921388827551950000010249249845140287885_);}
	.st87{fill:url(#SVGID_00000083080125316016836560000011869270960973543078_);}
	.st88{fill:url(#SVGID_00000008862011043175393550000016426711245867698863_);}
	.st89{fill:url(#SVGID_00000127732640289258415620000007365900500608141204_);}
	.st90{fill:url(#SVGID_00000036242190593004638880000012234102395795518897_);}
	.st91{fill:url(#SVGID_00000123427931875393501750000006340410598804213937_);}
	.st92{fill:url(#SVGID_00000150063202161432739790000015431762576890708912_);}
	.st93{fill:url(#SVGID_00000012429939758807290820000012920868267055616652_);}
	.st94{fill:url(#SVGID_00000010313217910383574120000004569091794289166509_);}
	.st95{fill:url(#SVGID_00000166644961126555257120000007032629800479587715_);}
	.st96{fill:url(#SVGID_00000050646130059851164600000004180102419022814649_);}
	.st97{fill:url(#SVGID_00000158023965325131379420000012809043643980486824_);}
	.st98{fill:url(#SVGID_00000126307166259019689250000015140928419798466732_);}
	.st99{fill:url(#SVGID_00000065773230869705151080000016749353516902969486_);}
	.st100{fill:url(#SVGID_00000057142464790872198460000004261380907813097103_);}
	.st101{fill:url(#SVGID_00000124865281865409701710000002361451734548928191_);}
	.st102{fill:url(#SVGID_00000006692658416358763730000012097625414139957646_);}
	.st103{fill:url(#SVGID_00000036218958442772971830000005140702304099244218_);}
	.st104{fill:url(#SVGID_00000052098581237839385260000007645624912556095124_);}
	.st105{fill:url(#SVGID_00000027594814883138012090000009252944676657782932_);}
	.st106{display:none;fill:url(#SVGID_00000033366452662956144150000007093441785657811863_);}
	.st107{fill:url(#SVGID_00000101813570011778228280000016432355968530906521_);}
	.st108{fill:url(#SVGID_00000111897669571852207400000015056454826400679055_);}
	.st109{fill:url(#SVGID_00000177484506258462495590000016847959616644217760_);}
	.st110{fill:url(#SVGID_00000096025560367941822450000011580569773641123751_);}
	.st111{fill:url(#SVGID_00000001659842002657165270000015700614659083856287_);}
	.st112{fill:url(#SVGID_00000173124663395901976950000006713387548503585423_);}
	.st113{fill:url(#SVGID_00000048458919007057659460000010465233967342054040_);}
	.st114{fill:url(#SVGID_00000074400098504789102930000006993217172190303623_);}
	.st115{fill:url(#SVGID_00000044136473988975996300000008081952542102088580_);}
	.st116{fill:url(#SVGID_00000077305128824413394680000009546766700937373092_);}
	.st117{fill:url(#SVGID_00000174604395940796839550000012673386411217939389_);}
	.st118{fill:url(#SVGID_00000109011648847819628600000005879737904143336624_);}
	.st119{fill:url(#SVGID_00000163069827475254014920000015947101634209553566_);}
	.st120{fill:url(#SVGID_00000089551627004569442930000014906188385137085093_);}
	.st121{fill:url(#SVGID_00000058563567479510430910000017486754994710129796_);}
	.st122{fill:url(#SVGID_00000029756966722902117840000007335767257512691379_);}
	.st123{fill:url(#SVGID_00000168091940955853399540000004879870090797268383_);}
	.st124{fill:url(#SVGID_00000076567763640178689750000005953404457260255635_);}
	.st125{fill:url(#SVGID_00000079480766502010632580000017255844362817223600_);}
	.st126{display:none;fill:url(#SVGID_00000150804764799450124420000002855559910212436145_);}
	.st127{fill:#CAA382;}
	.st128{fill:#1D3539;}
	.st129{fill:none;stroke:#1D3539;stroke-width:3;stroke-miterlimit:10;}
	.st130{display:none;fill:#1D3539;}
	.st131{fill:none;stroke:#FFFFFF;stroke-width:2;stroke-miterlimit:10;}
	.st132{display:none;fill:#CAA382;}
	.st133{fill:#FF8D3B;}
	.st134{fill:#E93E8D;}
</style>
<g>
	<g>
		<path class="st22" d="M1148.22,740.55h19.31c0.8,0,1.21,0.4,1.21,1.21v2.41c0,0.8-0.4,1.21-1.21,1.21h-15.69v15.69h15.69
			c0.8,0,1.21,0.4,1.21,1.21v2.41c0,0.8-0.4,1.21-1.21,1.21h-15.69v8.42c0,0.8-0.4,1.21-1.21,1.21l-2.41,0.02
			c-0.8,0-1.21-0.4-1.21-1.21v-32.58C1147.02,740.95,1147.42,740.55,1148.22,740.55z"/>
		<path class="st22" d="M1232.87,740.55h2.44c0.79,0.02,1.18,0.42,1.18,1.21v32.58c0,0.8-0.4,1.21-1.21,1.21h-2.41
			c-0.8,0-1.21-0.4-1.21-1.21v-32.58C1231.66,740.95,1232.06,740.55,1232.87,740.55z"/>
		<path class="st22" d="M1304.24,774.33c0,0.8-0.4,1.21-1.21,1.21h-2.41c-0.8,0-1.21-0.4-1.21-1.21v-21.12
			c0-3.49,1.23-6.48,3.7-8.95s5.46-3.72,8.97-3.72c3.49,0,6.47,1.24,8.95,3.72c2.48,2.48,3.72,5.46,3.72,8.95v21.12
			c0,0.8-0.4,1.21-1.21,1.21h-2.41c-0.8,0-1.21-0.4-1.21-1.21v-21.12c0-2.17-0.76-4.02-2.29-5.55s-3.38-2.29-5.55-2.29
			s-4.02,0.76-5.55,2.29s-2.29,3.38-2.29,5.55V774.33z"/>
		<path class="st22" d="M1395.53,775.54h-6.64c-0.8,0-1.21-0.41-1.21-1.23v-32.55c0-0.8,0.4-1.21,1.21-1.21h6.64
			c4.83,0,8.95,1.71,12.37,5.13c3.42,3.42,5.13,7.54,5.13,12.37s-1.71,8.95-5.13,12.37
			C1404.47,773.83,1400.35,775.54,1395.53,775.54z M1404.48,767.01c2.48-2.47,3.72-5.46,3.72-8.96c0-3.49-1.24-6.48-3.72-8.95
			s-5.46-3.72-8.95-3.72h-3.02v25.34h3.02C1399.02,770.71,1402,769.48,1404.48,767.01z"/>
		<path class="st22" d="M1566.63,758.69l-8.45-18.15h5.43l5.43,11.66l5.43-11.66h5.43l-8.45,18.15v15.64c0,0.8-0.4,1.21-1.21,1.21
			h-2.41c-0.8,0-1.21-0.4-1.21-1.21V758.69z"/>
		<path class="st22" d="M1660.32,775.54c-4.83,0-8.95-1.71-12.37-5.13s-5.13-7.54-5.13-12.37s1.71-8.95,5.13-12.37
			c3.42-3.42,7.54-5.13,12.37-5.13s8.95,1.71,12.37,5.13c3.42,3.42,5.13,7.54,5.13,12.37s-1.71,8.95-5.13,12.37
			C1669.27,773.83,1665.15,775.54,1660.32,775.54z M1669.28,767.01c2.48-2.47,3.72-5.46,3.72-8.96c0-3.49-1.24-6.48-3.72-8.95
			s-5.46-3.72-8.95-3.72c-3.51,0-6.5,1.24-8.96,3.72c-2.47,2.48-3.71,5.46-3.71,8.95c0,3.51,1.23,6.5,3.71,8.96
			c2.47,2.47,5.46,3.71,8.96,3.71C1663.82,770.71,1666.8,769.48,1669.28,767.01z"/>
		<path class="st22" d="M1745.57,762.87c0,2.17,0.76,4.02,2.29,5.55s3.38,2.29,5.55,2.29s4.02-0.76,5.55-2.29s2.29-3.38,2.29-5.55
			v-21.12c0-0.8,0.4-1.21,1.21-1.21h2.41c0.8,0,1.21,0.4,1.21,1.21v21.12c0,3.49-1.24,6.48-3.72,8.95
			c-2.48,2.48-5.46,3.72-8.95,3.72c-3.51,0-6.5-1.24-8.97-3.72c-2.47-2.48-3.7-5.46-3.7-8.95v-21.12c0-0.8,0.4-1.21,1.21-1.21h2.41
			c0.8,0,1.21,0.4,1.21,1.21V762.87z"/>
		<path class="st22" d="M1838.33,765.48c-1.16-0.3-2.25-0.78-3.28-1.42v-6.61c0.31,0.47,0.67,0.91,1.09,1.33
			c1.53,1.53,3.38,2.29,5.55,2.29s4.02-0.76,5.55-2.29c1.53-1.53,2.29-3.38,2.29-5.55s-0.76-4.02-2.29-5.55s-3.38-2.29-5.55-2.29
			s-4.02,0.76-5.55,2.29s-2.29,3.38-2.29,5.55v21.12c0,0.8-0.4,1.21-1.21,1.21h-2.41c-0.8,0-1.21-0.4-1.21-1.21v-21.12
			c0-3.49,1.23-6.48,3.7-8.95s5.46-3.72,8.97-3.72c3.49,0,6.47,1.24,8.95,3.72c2.48,2.48,3.72,5.46,3.72,8.95
			c0,3.51-1.24,6.49-3.72,8.95c-1.79,1.79-3.83,2.93-6.13,3.43l11.05,9.94h-6.03L1838.33,765.48z"/>
		<path class="st22" d="M2004.34,765.89v8.45c0,0.8-0.4,1.21-1.21,1.21h-2.41c-0.8,0-1.21-0.4-1.21-1.21v-32.58
			c0-0.8,0.4-1.21,1.21-1.21h2.44c0.79,0.02,1.18,0.42,1.18,1.21v19.31h12.07v-19.31c0-0.8,0.4-1.21,1.21-1.21h2.44
			c0.79,0.02,1.18,0.42,1.18,1.21v32.58c0,0.8-0.4,1.21-1.21,1.21h-2.41c-0.8,0-1.21-0.4-1.21-1.21v-8.45H2004.34z"/>
		<path class="st22" d="M2085.37,740.55h19.31c0.8,0,1.21,0.4,1.21,1.21v2.41c0,0.8-0.4,1.21-1.21,1.21h-15.69v15.69h15.69
			c0.8,0,1.21,0.4,1.21,1.21v2.41c0,0.8-0.4,1.21-1.21,1.21h-15.69v4.83h15.69c0.8,0,1.21,0.4,1.21,1.21v2.41
			c0,0.8-0.4,1.21-1.21,1.21h-19.31c-0.8,0-1.21-0.4-1.21-1.21v-32.58C2084.16,740.95,2084.56,740.55,2085.37,740.55z"/>
		<path class="st22" d="M2173.64,765.89v8.45c0,0.8-0.4,1.21-1.21,1.21h-2.41c-0.8,0-1.21-0.4-1.21-1.21v-21.12
			c0-3.49,1.23-6.48,3.7-8.95s5.46-3.72,8.97-3.72c3.49,0,6.47,1.24,8.95,3.72c2.48,2.48,3.72,5.46,3.72,8.95v21.12
			c0,0.8-0.4,1.21-1.21,1.21h-2.41c-0.8,0-1.21-0.4-1.21-1.21v-8.45H2173.64z M2189.32,761.06v-7.84c0-2.17-0.76-4.02-2.29-5.55
			s-3.38-2.29-5.55-2.29s-4.02,0.76-5.55,2.29s-2.29,3.38-2.29,5.55v7.84H2189.32z"/>
		<path class="st22" d="M2261.78,775.54l-8.45-34.99h4.83l6.03,25l6.03-25h4.83l-8.45,34.99H2261.78z"/>
		<path class="st22" d="M2339.19,740.55h19.31c0.8,0,1.21,0.4,1.21,1.21v2.41c0,0.8-0.4,1.21-1.21,1.21h-15.69v15.69h15.69
			c0.8,0,1.21,0.4,1.21,1.21v2.41c0,0.8-0.4,1.21-1.21,1.21h-15.69v4.83h15.69c0.8,0,1.21,0.4,1.21,1.21v2.41
			c0,0.8-0.4,1.21-1.21,1.21h-19.31c-0.8,0-1.21-0.4-1.21-1.21v-32.58C2337.98,740.95,2338.38,740.55,2339.19,740.55z"/>
		<path class="st22" d="M2427.45,774.33c0,0.8-0.4,1.21-1.21,1.21h-2.41c-0.8,0-1.21-0.4-1.21-1.21v-21.12
			c0-3.49,1.23-6.48,3.7-8.95s5.46-3.72,8.97-3.72c3.49,0,6.47,1.24,8.95,3.72c2.48,2.48,3.72,5.46,3.72,8.95v21.12
			c0,0.8-0.4,1.21-1.21,1.21h-2.41c-0.8,0-1.21-0.4-1.21-1.21v-21.12c0-2.17-0.76-4.02-2.29-5.55s-3.38-2.29-5.55-2.29
			s-4.02,0.76-5.55,2.29s-2.29,3.38-2.29,5.55V774.33z"/>
	</g>
</g>
<g>
	<g>
		<path class="st22" d="M1033.68,391.06h51.94v11.57c0,10.16-1.65,19.2-4.94,27.1c-3.29,7.9-7.95,14.54-13.97,19.9
			c-6.02,5.36-13.17,9.41-21.45,12.14c-8.28,2.73-17.41,4.09-27.38,4.09h-69.16c-9.98,0-19.1-1.36-27.38-4.09
			c-8.28-2.73-15.38-6.77-21.31-12.14s-10.54-12-13.83-19.9c-3.29-7.9-4.94-16.94-4.94-27.1v-66.9c0-10.16,1.64-19.15,4.94-26.96
			c3.29-7.81,7.9-14.4,13.83-19.76c5.93-5.36,13.03-9.46,21.31-12.28c8.28-2.82,17.4-4.23,27.38-4.23h69.16
			c9.97,0,19.1,1.41,27.38,4.23c8.28,2.82,15.43,6.92,21.45,12.28c6.02,5.36,10.68,11.95,13.97,19.76
			c3.29,7.81,4.94,16.79,4.94,26.96v11.57h-51.94v-7.34c0-8.09-2.12-14.21-6.35-18.35c-4.23-4.14-10.3-6.21-18.21-6.21h-51.37
			c-7.9,0-13.97,2.07-18.21,6.21c-4.23,4.14-6.35,10.26-6.35,18.35v58.43c0,8.09,2.12,14.21,6.35,18.35
			c4.23,4.14,10.3,6.21,18.21,6.21h51.37c7.9,0,13.97-2.07,18.21-6.21c4.23-4.14,6.35-10.25,6.35-18.35V391.06z"/>
		<path class="st22" d="M1121.19,272.51h51.94v150.45h132.1v42.91h-184.04V272.51z"/>
		<path class="st22" d="M1340.79,335.73c0-10.16,1.64-19.15,4.94-26.96c3.29-7.81,7.9-14.4,13.83-19.76
			c5.93-5.36,13.03-9.46,21.31-12.28c8.28-2.82,17.4-4.23,27.38-4.23h69.16c9.97,0,19.1,1.41,27.38,4.23
			c8.28,2.82,15.43,6.92,21.45,12.28c6.02,5.36,10.68,11.95,13.97,19.76c3.29,7.81,4.94,16.79,4.94,26.96v66.9
			c0,10.16-1.65,19.2-4.94,27.1c-3.29,7.9-7.95,14.54-13.97,19.9c-6.02,5.36-13.17,9.41-21.45,12.14
			c-8.28,2.73-17.41,4.09-27.38,4.09h-69.16c-9.98,0-19.1-1.36-27.38-4.09c-8.28-2.73-15.38-6.77-21.31-12.14s-10.54-12-13.83-19.9
			c-3.29-7.9-4.94-16.94-4.94-27.1V335.73z M1493.22,398.4v-58.43c0-8.09-2.12-14.21-6.35-18.35c-4.23-4.14-10.3-6.21-18.21-6.21
			h-51.37c-7.9,0-13.97,2.07-18.21,6.21c-4.23,4.14-6.35,10.26-6.35,18.35v58.43c0,8.09,2.12,14.21,6.35,18.35
			c4.23,4.14,10.3,6.21,18.21,6.21h51.37c7.9,0,13.97-2.07,18.21-6.21C1491.1,412.61,1493.22,406.49,1493.22,398.4z"/>
		<path class="st22" d="M1733.15,272.51h51.94v130.13c0,10.16-1.65,19.2-4.94,27.1c-3.29,7.9-7.95,14.54-13.97,19.9
			c-6.02,5.36-13.17,9.41-21.45,12.14c-8.28,2.73-17.41,4.09-27.38,4.09h-69.16c-9.98,0-19.1-1.36-27.38-4.09
			c-8.28-2.73-15.38-6.77-21.31-12.14s-10.54-12-13.83-19.9c-3.29-7.9-4.94-16.94-4.94-27.1V272.51h51.94V398.4
			c0,8.09,2.12,14.21,6.35,18.35c4.23,4.14,10.3,6.21,18.21,6.21h51.37c7.9,0,13.97-2.07,18.21-6.21
			c4.23-4.14,6.35-10.25,6.35-18.35V272.51z"/>
		<path class="st22" d="M1967.01,321.62c-4.23-4.14-10.3-6.21-18.21-6.21h-128.15v-42.91h136.9c9.97,0,19.1,1.41,27.38,4.23
			c8.28,2.82,15.38,6.92,21.31,12.28c5.93,5.36,10.54,11.95,13.83,19.76c3.29,7.81,4.94,16.79,4.94,26.96v66.9
			c0,10.16-1.65,19.2-4.94,27.1c-3.29,7.9-7.9,14.54-13.83,19.9s-13.03,9.41-21.31,12.14c-8.28,2.73-17.41,4.09-27.38,4.09h-136.9
			v-42.91h128.15c7.9,0,13.97-2.07,18.21-6.21c4.23-4.14,6.35-10.25,6.35-18.35v-58.43
			C1973.36,331.88,1971.24,325.76,1967.01,321.62z"/>
		<path class="st22" d="M2212.45,465.86l-99.92-119.97v119.97h-51.94V272.51h52.79l99.64,119.97V272.51h51.94v193.36H2212.45z"/>
		<path class="st22" d="M2352.45,465.86h-51.94V272.51h51.94V465.86z"/>
		<path class="st22" d="M2539.88,465.86l-99.92-119.97v119.97h-51.94V272.51h52.79l99.64,119.97V272.51h51.94v193.36H2539.88z"/>
		<path class="st22" d="M2627.95,315.41v-42.91h184.61v42.91H2627.95z M2627.95,347.87h184.61v42.91h-132.67v32.18h132.67v42.91
			h-184.61V347.87z"/>
	</g>
</g>
<g>
	<g>
		<path class="st22" d="M1122.34,607.69l-13.58-25.83h-0.53h-17.57v25.83h-24.36v-93.33h41.94c24.76,0,38.87,11.98,38.87,32.75
			c0,14.11-5.86,24.5-16.64,30.09l19.44,30.49H1122.34z M1090.65,562.42h17.71c9.85,0,15.58-5.06,15.58-14.51
			c0-9.19-5.72-14.11-15.58-14.11h-17.71V562.42z"/>
		<path class="st22" d="M1433.32,514.36v19.44h-49.26v17.44h44.47v19.3l-44.47,0.13v17.57h50.59v19.44h-74.95v-93.33H1433.32z"/>
		<path class="st22" d="M1708.76,591.18h-40.34l-6.52,16.51h-25.03l40.07-93.33h25.03l39.14,93.33h-25.96L1708.76,591.18z
			 M1701.57,572.54l-12.78-33.28l-13.05,33.28H1701.57z"/>
		<path class="st22" d="M1970.88,514.36v72.56h39.54v20.77h-63.9v-93.33H1970.88z"/>
		<path class="st22" d="M2290.39,514.36v20.1h-27.96v73.22h-24.36v-73.22h-27.69v-20.1H2290.39z"/>
		<path class="st22" d="M2546.26,577.87v29.82h-24.36v-29.16l-34.35-64.17h24.36l22.1,40.07l21.57-40.07h24.36L2546.26,577.87z"/>
	</g>
</g>
<line class="st24" x1="880.1" y1="676.67" x2="2813.16" y2="676.67"/>
<g>
	<g>
		<linearGradient id="SVGID_1_" gradientUnits="userSpaceOnUse" x1="725.5517" y1="292.0408" x2="256.0244" y2="840.1135">
			<stop  offset="0" style="stop-color:#FF8D3B"/>
			<stop  offset="0.1341" style="stop-color:#F97850"/>
			<stop  offset="0.3406" style="stop-color:#F25F6B"/>
			<stop  offset="0.5519" style="stop-color:#ED4D7E"/>
			<stop  offset="0.7689" style="stop-color:#EA4289"/>
			<stop  offset="1" style="stop-color:#E93E8D"/>
		</linearGradient>
		<path class="st2" d="M513.71,580.32c0.02-1.42,0.49-2.85,1.44-4.05c0.04-0.06,0.08-0.12,0.12-0.18c0.02,0,0.02,0,0.02-0.02
			c0.02,0,0.02-0.02,0.04-0.04c0.02-0.02,0.02-0.04,0.04-0.06c0.2-0.22,0.51-0.69,0.79-1.26c0.28-0.57,0.53-1.25,0.71-1.86
			c0.04-0.14,0.06-0.26,0.1-0.34V544.7h-13.13c-2.39,0-4.59-1.38-5.59-3.56l-0.12-0.3c-0.02,0-0.02-0.02-0.02-0.02l-0.04-0.08
			l-0.02-0.04c-1.62-3.78-4.33-7-7.71-9.27c-3.38-2.25-7.39-3.58-11.8-3.58c-4.39,0-8.4,1.32-11.78,3.58
			c-3.38,2.27-6.09,5.5-7.71,9.23c0,0.02,0,0.02-0.02,0.04l-0.12,0.28c-0.99,2.25-3.2,3.72-5.65,3.72h-13.13v27.78
			c0.02,0.14,0.06,0.26,0.1,0.38c0.18,0.63,0.43,1.3,0.71,1.88c0.28,0.55,0.59,1.03,0.79,1.25c0.02,0.02,0.02,0.02,0.02,0.04
			l0.06,0.06v0.02c0.06,0.06,0.1,0.12,0.14,0.2c0.95,1.19,1.44,2.63,1.42,4.07v0.02c0,1.5-0.51,3.03-1.54,4.27l-0.08,0.08
			c-0.02,0-0.02,0.02-0.02,0.02c-0.2,0.22-0.51,0.69-0.79,1.27s-0.53,1.25-0.73,1.86c-0.02,0.14-0.06,0.26-0.08,0.38v27.78h13.13
			c2.45,0,4.67,1.46,5.65,3.72l0.12,0.3h0.02c1.62,3.76,4.33,6.98,7.71,9.25c3.38,2.27,7.39,3.58,11.78,3.58
			c4.41,0,8.42-1.31,11.8-3.58c3.38-2.27,6.09-5.5,7.71-9.25l0.02-0.06l0.04-0.06c0-0.02,0-0.02,0.02-0.04l0.12-0.28
			c1.01-2.2,3.2-3.58,5.59-3.58h13.13v-27.8c-0.04-0.1-0.06-0.2-0.1-0.32v-0.02c-0.18-0.63-0.44-1.31-0.71-1.88
			c-0.28-0.57-0.59-1.05-0.79-1.27c-0.02,0-0.02-0.02-0.02-0.04c-0.02-0.02-0.04-0.04-0.06-0.06c0,0,0,0-0.02-0.02
			c-0.04-0.04-0.08-0.12-0.12-0.18c-0.95-1.21-1.44-2.65-1.44-4.07V580.32z M485.74,575.74l5.32,39.64h-26.04l5.32-39.64
			c-5.04-2.75-8.46-8.09-8.46-14.21c0-8.93,7.23-16.17,16.17-16.17c8.92,0,16.15,7.24,16.15,16.17
			C494.2,567.65,490.78,572.99,485.74,575.74z"/>
		
			<linearGradient id="SVGID_00000064313346851244734660000003087757076267222194_" gradientUnits="userSpaceOnUse" x1="725.5481" y1="292.0377" x2="256.0208" y2="840.1105">
			<stop  offset="0" style="stop-color:#FF8D3B"/>
			<stop  offset="0.1341" style="stop-color:#F97850"/>
			<stop  offset="0.3406" style="stop-color:#F25F6B"/>
			<stop  offset="0.5519" style="stop-color:#ED4D7E"/>
			<stop  offset="0.7689" style="stop-color:#EA4289"/>
			<stop  offset="1" style="stop-color:#E93E8D"/>
		</linearGradient>
		<path style="fill:url(#SVGID_00000064313346851244734660000003087757076267222194_);" d="M518.55,578.82l0.02-0.02
			c1.11-1.28,1.9-3.04,2.41-4.8c0.08-0.32,0.16-0.55,0.22-0.79c0.02-0.1,0.02-0.22,0.02-0.34v-31.02c0-0.38-0.14-0.73-0.42-1.01
			c-0.26-0.26-0.61-0.42-1.01-0.42h-15.95c-0.75,0-1.4-0.43-1.72-1.09l-0.14-0.28l-0.02-0.08c-1.96-4.53-5.2-8.38-9.23-11.09
			c-4.05-2.71-8.94-4.31-14.19-4.31c-2.63,0-5.16,0.42-7.53,1.13c-2.37,0.75-4.61,1.84-6.64,3.18c-4.05,2.73-7.29,6.58-9.25,11.11
			l-0.12,0.28c-0.3,0.69-0.99,1.15-1.74,1.15h-15.97c-0.38,0-0.73,0.16-1.01,0.42c-0.26,0.28-0.42,0.63-0.42,1.01v31
			c0,0.12,0.02,0.24,0.04,0.34c0.06,0.26,0.14,0.51,0.2,0.79l0.02,0.04c0.51,1.74,1.31,3.5,2.41,4.78l0.02,0.02
			c0.38,0.46,0.57,1.01,0.57,1.54v0.02c0,0.53-0.2,1.07-0.57,1.52l-0.02,0.02c-1.11,1.28-1.9,3.04-2.41,4.8l-0.02,0.02
			c-0.06,0.28-0.14,0.53-0.2,0.79c-0.02,0.12-0.04,0.24-0.04,0.36v30.98c0,0.38,0.16,0.75,0.42,1.01c0.28,0.28,0.63,0.42,1.01,0.42
			h15.97c0.75,0,1.44,0.45,1.74,1.15l0.12,0.28v0.02c1.96,4.53,5.2,8.36,9.25,11.09s8.92,4.31,14.17,4.31
			c2.63,0,5.16-0.39,7.55-1.13c2.37-0.75,4.61-1.82,6.64-3.18c4.03-2.71,7.28-6.56,9.23-11.07l0.02-0.08l0.14-0.3
			c0.32-0.65,0.97-1.09,1.72-1.09h15.95c0.4,0,0.75-0.14,1.01-0.42c0.28-0.26,0.42-0.63,0.42-1.01v-31.02c0-0.12,0-0.24-0.04-0.36
			c-0.06-0.22-0.12-0.47-0.2-0.75c-0.51-1.76-1.31-3.52-2.41-4.82l-0.02-0.02c-0.38-0.45-0.57-0.99-0.57-1.52v-0.02
			C517.98,579.83,518.18,579.27,518.55,578.82z M516.38,583.74l0.04,0.04v0.02c0.69,0.75,1.42,2.27,1.82,3.72
			c0.06,0.2,0.12,0.36,0.16,0.51v29.42h-14.55c-1.84,0-3.52,1.07-4.29,2.75l-0.14,0.28l-0.02,0.02l-0.04,0.08v0.02
			c-1.74,4.03-4.63,7.45-8.22,9.88c-3.6,2.41-7.91,3.81-12.59,3.81c-4.67,0-8.98-1.4-12.59-3.81c-3.6-2.43-6.48-5.85-8.22-9.88
			l-0.12-0.28c-0.75-1.74-2.47-2.87-4.35-2.87h-14.55v-29.38c0.04-0.2,0.1-0.38,0.14-0.57c0.42-1.44,1.17-2.97,1.84-3.7v-0.02
			l0.06-0.04c0.81-0.99,1.21-2.17,1.21-3.36v-0.02c0-1.19-0.4-2.39-1.23-3.36v-0.02l-0.04-0.04v-0.02
			c-0.69-0.73-1.42-2.23-1.82-3.68c-0.06-0.2-0.12-0.39-0.16-0.57v-29.4h14.55c1.88,0,3.6-1.13,4.35-2.85l0.12-0.3
			c1.74-4.01,4.63-7.45,8.22-9.86c3.62-2.43,7.93-3.84,12.59-3.84c4.69,0,8.99,1.4,12.59,3.84c3.6,2.41,6.48,5.85,8.22,9.86v0.02
			l0.04,0.08l0.02,0.02l0.14,0.28c0.77,1.68,2.45,2.75,4.29,2.75h14.55v29.42c-0.04,0.16-0.1,0.32-0.16,0.53
			c-0.4,1.44-1.13,2.95-1.82,3.7v0.02l-0.04,0.04V577c-0.81,0.97-1.23,2.16-1.25,3.34v0.04
			C515.13,581.57,515.55,582.75,516.38,583.74z"/>
		
			<linearGradient id="SVGID_00000115475664463552519150000012073539947739507119_" gradientUnits="userSpaceOnUse" x1="684.5012" y1="256.8733" x2="214.9739" y2="804.946">
			<stop  offset="0" style="stop-color:#FF8D3B"/>
			<stop  offset="0.1341" style="stop-color:#F97850"/>
			<stop  offset="0.3406" style="stop-color:#F25F6B"/>
			<stop  offset="0.5519" style="stop-color:#ED4D7E"/>
			<stop  offset="0.7689" style="stop-color:#EA4289"/>
			<stop  offset="1" style="stop-color:#E93E8D"/>
		</linearGradient>
		<path style="fill:url(#SVGID_00000115475664463552519150000012073539947739507119_);" d="M466.02,515.62
			c0.19,0.19,0.49,0.19,0.67,0c0.19-0.19,0.19-0.49,0-0.67l-3.48-3.48c-0.19-0.19-0.49-0.19-0.67,0c-0.19,0.19-0.19,0.49,0,0.67
			L466.02,515.62z"/>
		
			<linearGradient id="SVGID_00000149383873165849008830000013686040047978071453_" gradientUnits="userSpaceOnUse" x1="689.6058" y1="261.2464" x2="220.0786" y2="809.3192">
			<stop  offset="0" style="stop-color:#FF8D3B"/>
			<stop  offset="0.1341" style="stop-color:#F97850"/>
			<stop  offset="0.3406" style="stop-color:#F25F6B"/>
			<stop  offset="0.5519" style="stop-color:#ED4D7E"/>
			<stop  offset="0.7689" style="stop-color:#EA4289"/>
			<stop  offset="1" style="stop-color:#E93E8D"/>
		</linearGradient>
		<path style="fill:url(#SVGID_00000149383873165849008830000013686040047978071453_);" d="M478.51,510.6
			c0.26,0,0.47-0.21,0.47-0.47v-4.92c0-0.26-0.21-0.47-0.47-0.47c-0.26,0-0.47,0.21-0.47,0.47v4.92
			C478.03,510.38,478.24,510.6,478.51,510.6z"/>
		
			<linearGradient id="SVGID_00000007388278981639439190000018392005700094933125_" gradientUnits="userSpaceOnUse" x1="692.8631" y1="264.0369" x2="223.3358" y2="812.1096">
			<stop  offset="0" style="stop-color:#FF8D3B"/>
			<stop  offset="0.1341" style="stop-color:#F97850"/>
			<stop  offset="0.3406" style="stop-color:#F25F6B"/>
			<stop  offset="0.5519" style="stop-color:#ED4D7E"/>
			<stop  offset="0.7689" style="stop-color:#EA4289"/>
			<stop  offset="1" style="stop-color:#E93E8D"/>
		</linearGradient>
		<path style="fill:url(#SVGID_00000007388278981639439190000018392005700094933125_);" d="M482.85,511.13
			c0.25,0.07,0.51-0.08,0.58-0.34l1.27-4.75c0.07-0.25-0.08-0.51-0.34-0.58c-0.25-0.07-0.51,0.08-0.58,0.34l-1.27,4.75
			C482.45,510.8,482.6,511.06,482.85,511.13z"/>
		
			<linearGradient id="SVGID_00000044173777726434224520000007526239884142400395_" gradientUnits="userSpaceOnUse" x1="696.5684" y1="267.2112" x2="227.0412" y2="815.2839">
			<stop  offset="0" style="stop-color:#FF8D3B"/>
			<stop  offset="0.1341" style="stop-color:#F97850"/>
			<stop  offset="0.3406" style="stop-color:#F25F6B"/>
			<stop  offset="0.5519" style="stop-color:#ED4D7E"/>
			<stop  offset="0.7689" style="stop-color:#EA4289"/>
			<stop  offset="1" style="stop-color:#E93E8D"/>
		</linearGradient>
		<path style="fill:url(#SVGID_00000044173777726434224520000007526239884142400395_);" d="M486.92,512.76
			c0.23,0.13,0.52,0.05,0.65-0.17l2.46-4.26c0.13-0.23,0.05-0.52-0.17-0.65c-0.23-0.13-0.52-0.05-0.65,0.17l-2.46,4.26
			C486.61,512.34,486.69,512.63,486.92,512.76z"/>
		
			<linearGradient id="SVGID_00000064321869974562484720000010046306141704655489_" gradientUnits="userSpaceOnUse" x1="700.4692" y1="270.5529" x2="230.9419" y2="818.6256">
			<stop  offset="0" style="stop-color:#FF8D3B"/>
			<stop  offset="0.1341" style="stop-color:#F97850"/>
			<stop  offset="0.3406" style="stop-color:#F25F6B"/>
			<stop  offset="0.5519" style="stop-color:#ED4D7E"/>
			<stop  offset="0.7689" style="stop-color:#EA4289"/>
			<stop  offset="1" style="stop-color:#E93E8D"/>
		</linearGradient>
		<path style="fill:url(#SVGID_00000064321869974562484720000010046306141704655489_);" d="M491.09,515.4l3.48-3.48
			c0.19-0.19,0.19-0.49,0-0.67c-0.19-0.19-0.49-0.19-0.67,0l-3.48,3.48c-0.19,0.19-0.19,0.49,0,0.67
			C490.6,515.58,490.9,515.58,491.09,515.4z"/>
		
			<linearGradient id="SVGID_00000004526221266256337670000013073282542883838626_" gradientUnits="userSpaceOnUse" x1="685.2773" y1="257.5382" x2="215.7501" y2="805.611">
			<stop  offset="0" style="stop-color:#FF8D3B"/>
			<stop  offset="0.1341" style="stop-color:#F97850"/>
			<stop  offset="0.3406" style="stop-color:#F25F6B"/>
			<stop  offset="0.5519" style="stop-color:#ED4D7E"/>
			<stop  offset="0.7689" style="stop-color:#EA4289"/>
			<stop  offset="1" style="stop-color:#E93E8D"/>
		</linearGradient>
		<path style="fill:url(#SVGID_00000004526221266256337670000013073282542883838626_);" d="M469.49,512.75
			c0.13,0.23,0.42,0.3,0.65,0.17c0.23-0.13,0.3-0.42,0.17-0.65l-2.46-4.26c-0.13-0.23-0.42-0.3-0.65-0.17
			c-0.23,0.13-0.3,0.42-0.17,0.65L469.49,512.75z"/>
		
			<linearGradient id="SVGID_00000101098744679696786220000015245693932459796653_" gradientUnits="userSpaceOnUse" x1="687.0184" y1="259.0298" x2="217.4912" y2="807.1025">
			<stop  offset="0" style="stop-color:#FF8D3B"/>
			<stop  offset="0.1341" style="stop-color:#F97850"/>
			<stop  offset="0.3406" style="stop-color:#F25F6B"/>
			<stop  offset="0.5519" style="stop-color:#ED4D7E"/>
			<stop  offset="0.7689" style="stop-color:#EA4289"/>
			<stop  offset="1" style="stop-color:#E93E8D"/>
		</linearGradient>
		<path style="fill:url(#SVGID_00000101098744679696786220000015245693932459796653_);" d="M473.59,510.87
			c0.07,0.25,0.33,0.4,0.58,0.34c0.25-0.07,0.4-0.33,0.34-0.58l-1.27-4.75c-0.07-0.25-0.33-0.4-0.58-0.34
			c-0.25,0.07-0.4,0.33-0.34,0.58L473.59,510.87z"/>
		
			<linearGradient id="SVGID_00000157995251367756116130000011910001669009019008_" gradientUnits="userSpaceOnUse" x1="725.5461" y1="292.036" x2="256.0189" y2="840.1088">
			<stop  offset="0" style="stop-color:#FF8D3B"/>
			<stop  offset="0.1341" style="stop-color:#F97850"/>
			<stop  offset="0.3406" style="stop-color:#F25F6B"/>
			<stop  offset="0.5519" style="stop-color:#ED4D7E"/>
			<stop  offset="0.7689" style="stop-color:#EA4289"/>
			<stop  offset="1" style="stop-color:#E93E8D"/>
		</linearGradient>
		<path style="fill:url(#SVGID_00000157995251367756116130000011910001669009019008_);" d="M524.66,607.21
			c-0.22-0.77-0.38-1.48-0.43-1.98c-0.04-0.26-0.08-0.45-0.1-0.59c0-0.16-0.02-0.22-0.02-0.22c0-0.04-0.02-0.08-0.04-0.12v-16.82
			c0.12-0.44,0.22-0.83,0.34-1.27c0.55-1.9,1.44-3.95,2.81-5.53c0.16-0.18,0.16-0.46,0-0.63c-1.36-1.56-2.25-3.62-2.81-5.52
			c-0.12-0.43-0.22-0.85-0.34-1.26v-16.82c0.02-0.04,0.04-0.08,0.04-0.14c0,0,0.02-0.06,0.02-0.2c0.06-0.49,0.24-1.76,0.71-3.18
			c0.47-1.4,1.25-2.95,2.43-3.97l0.4-0.34l-0.4-0.38c-1.36-1.17-2.17-3-2.61-4.55c-0.22-0.79-0.38-1.48-0.43-2
			c-0.04-0.26-0.08-0.45-0.1-0.59c0-0.14-0.02-0.2-0.02-0.2c0-0.06-0.02-0.1-0.04-0.14v-3.18h-8.01c0.22-0.24,0.4-0.55,0.44-0.91
			l0.02-0.22c0-0.36-0.12-0.69-0.3-0.97c-0.06-0.1-0.14-0.16-0.22-0.18c-0.04-0.02-0.06-0.06-0.1-0.08
			c-0.42-0.24-0.99-0.1-1.22,0.34c-0.24,0.44-0.08,0.99,0.36,1.25c0.1,0.06,0.24,0.1,0.36,0.12c-0.06,0.06-0.12,0.14-0.22,0.2
			c-0.22,0.16-0.51,0.26-0.79,0.26h-0.14c-0.63-0.08-1.25-0.53-1.78-1.09c-1.19-1.21-2.02-2.67-2.79-4.27
			c-0.4-0.75-0.75-1.54-1.15-2.33c0.42,0.2,0.87,0.34,1.34,0.34c0.38,0,0.77-0.1,1.15-0.3c0.71-0.42,1.03-1.19,1.05-1.86
			c0-0.32-0.08-0.61-0.26-0.89c-0.16-0.24-0.43-0.4-0.73-0.44c-0.04-0.02-0.08-0.04-0.12-0.06c-0.36-0.1-0.73,0.04-0.95,0.34
			c-0.06,0.06-0.1,0.14-0.12,0.22c0,0.02-0.02,0.06-0.04,0.08c-0.14,0.49,0.16,0.99,0.63,1.11c0.2,0.06,0.4,0.02,0.59-0.04
			c-0.08,0.28-0.26,0.57-0.53,0.71c-0.22,0.12-0.43,0.18-0.67,0.18c-0.51,0-1.11-0.26-1.62-0.65c-0.36-0.26-0.67-0.57-0.91-0.89
			c-0.04-0.08-0.1-0.18-0.16-0.26c-1.13-1.8-2.61-3.36-4.33-4.59c-0.04-0.04-0.06-0.08-0.12-0.1c-0.02-0.02-0.04-0.04-0.08-0.04
			c-1.4-0.99-2.95-1.76-4.59-2.25c-0.61-0.18-1.25-0.3-1.88-0.38c0.45-0.32,0.85-0.69,1.17-1.15c0.34-0.47,0.61-1.09,0.63-1.74
			v-0.08c0-0.63-0.26-1.3-0.81-1.72c-0.32-0.22-0.67-0.34-1.03-0.34c-0.38,0-0.77,0.12-1.07,0.39c-0.2,0.2-0.34,0.45-0.38,0.71
			c-0.02,0.06-0.02,0.1-0.02,0.16c0,0.02,0,0.02,0,0.02v0.06c0.02,0.08,0.02,0.16,0.06,0.24c0,0.04,0.04,0.1,0.06,0.14
			c0.04,0.06,0.06,0.1,0.08,0.14c0.02,0.02,0.02,0.04,0.04,0.06c0.04,0.06,0.1,0.1,0.18,0.12c0,0,0.02,0.02,0.04,0.04
			c0.44,0.24,0.99,0.1,1.23-0.34c0.14-0.24,0.14-0.49,0.08-0.73c0.06,0.02,0.12,0.06,0.16,0.1c0.28,0.18,0.45,0.57,0.44,0.95V517
			c0,0.42-0.18,0.85-0.46,1.22c-0.59,0.85-1.6,1.44-2.63,1.54c-0.04,0-0.04,0.02-0.06,0.02c-1.36,0.02-2.69,0.2-3.95,0.47
			c-1.82,0.39-3.54,0.83-5.24,0.83c-0.89,0-1.78-0.12-2.69-0.42c-0.93-0.34-1.8-0.83-2.35-1.58c-0.36-0.47-0.57-1.09-0.57-1.66
			c0-0.28,0.04-0.55,0.16-0.81c0.12-0.32,0.42-0.65,0.77-0.89c0.36-0.24,0.75-0.4,1.09-0.4c0.2,0,0.36,0.06,0.49,0.14
			c0.14,0.08,0.28,0.22,0.4,0.44c0.04,0.08,0.06,0.14,0.08,0.22c-0.36-0.04-0.71,0.12-0.91,0.45c-0.24,0.44-0.08,0.99,0.36,1.25
			c0.39,0.22,0.89,0.08,1.15-0.28l0.04-0.02v-0.02c0.02-0.02,0.02-0.02,0.04-0.04c0.02-0.04,0.02-0.06,0.04-0.1
			c0.16-0.3,0.28-0.65,0.28-0.99c0-0.32-0.08-0.63-0.22-0.91c-0.2-0.38-0.45-0.65-0.75-0.83c-0.32-0.18-0.65-0.26-0.99-0.26
			c-0.59,0.02-1.15,0.24-1.62,0.57c-0.38,0.26-0.71,0.57-0.95,0.97c-0.22-0.4-0.55-0.71-0.93-0.97c-0.47-0.34-1.05-0.55-1.62-0.57
			c-0.34,0-0.67,0.08-0.99,0.26c-0.3,0.18-0.57,0.45-0.75,0.83c-0.14,0.28-0.22,0.59-0.22,0.91c0,0.34,0.1,0.69,0.28,0.99
			c0.02,0.04,0.02,0.06,0.04,0.1c0,0.02,0.02,0.02,0.04,0.04v0.02l0.02,0.02c0.28,0.36,0.77,0.49,1.17,0.28
			c0.44-0.26,0.59-0.81,0.34-1.25c-0.18-0.34-0.55-0.49-0.91-0.45c0.02-0.08,0.06-0.14,0.1-0.22c0.1-0.22,0.24-0.36,0.38-0.44
			c0.16-0.08,0.32-0.14,0.51-0.14c0.32,0,0.73,0.16,1.09,0.4c0.36,0.24,0.63,0.57,0.77,0.89c0.1,0.26,0.16,0.53,0.16,0.81
			c0,0.57-0.22,1.19-0.59,1.66c-0.55,0.75-1.4,1.25-2.33,1.58c-0.91,0.3-1.82,0.42-2.69,0.42c-1.7,0-3.42-0.44-5.26-0.83
			c-1.25-0.28-2.59-0.45-3.93-0.47c-0.02,0-0.04-0.02-0.06-0.02c-1.03-0.1-2.04-0.69-2.63-1.54c-0.28-0.38-0.45-0.81-0.47-1.22
			v-0.04c0-0.38,0.18-0.77,0.44-0.95c0.06-0.04,0.12-0.08,0.18-0.1c-0.08,0.24-0.06,0.49,0.08,0.73c0.24,0.43,0.79,0.57,1.23,0.34
			c0.02-0.02,0.02-0.04,0.04-0.04c0.06-0.02,0.12-0.06,0.18-0.12c0-0.02,0-0.04,0.02-0.06c0.04-0.04,0.06-0.08,0.1-0.14
			c0.02-0.04,0.04-0.1,0.06-0.14c0.04-0.08,0.04-0.16,0.04-0.24c0-0.02,0.02-0.04,0.02-0.06c0,0,0,0,0-0.02
			c0-0.06-0.02-0.1-0.02-0.16c-0.06-0.26-0.2-0.51-0.4-0.71c-0.3-0.28-0.69-0.39-1.05-0.39c-0.38,0-0.71,0.12-1.03,0.34
			c-0.55,0.42-0.83,1.09-0.83,1.72v0.08c0.04,0.65,0.3,1.27,0.65,1.74c0.32,0.45,0.71,0.83,1.17,1.15c-0.63,0.08-1.27,0.2-1.88,0.38
			c-1.64,0.49-3.2,1.26-4.61,2.25c-0.02,0-0.04,0.02-0.08,0.04c-0.04,0.02-0.08,0.06-0.12,0.1c-1.7,1.23-3.18,2.79-4.33,4.59
			c-0.06,0.08-0.1,0.18-0.16,0.26c-0.24,0.32-0.53,0.63-0.89,0.89c-0.51,0.39-1.13,0.65-1.62,0.65c-0.24,0-0.47-0.06-0.69-0.18
			c-0.26-0.14-0.44-0.43-0.51-0.71c0.18,0.06,0.38,0.1,0.59,0.04c0.47-0.12,0.75-0.61,0.63-1.11c-0.02-0.02-0.04-0.06-0.04-0.08
			c-0.02-0.08-0.06-0.16-0.12-0.22c-0.22-0.3-0.59-0.43-0.95-0.34l-0.12,0.06c-0.3,0.04-0.57,0.2-0.73,0.44
			c-0.2,0.28-0.26,0.57-0.26,0.89c0,0.67,0.34,1.44,1.05,1.86c0.36,0.2,0.77,0.3,1.15,0.3c0.47,0,0.91-0.14,1.34-0.34
			c-0.39,0.79-0.75,1.58-1.15,2.33c-0.77,1.6-1.6,3.06-2.79,4.27c-0.53,0.55-1.15,1.01-1.78,1.09h-0.14c-0.28,0-0.57-0.1-0.79-0.26
			c-0.1-0.06-0.16-0.14-0.22-0.2c0.12-0.02,0.24-0.06,0.36-0.12c0.44-0.26,0.59-0.81,0.36-1.25c-0.26-0.43-0.81-0.57-1.25-0.34
			c-0.02,0.02-0.04,0.06-0.08,0.08c-0.08,0.02-0.16,0.08-0.22,0.18c-0.18,0.28-0.3,0.61-0.3,0.97l0.02,0.22
			c0.04,0.36,0.2,0.67,0.42,0.91h-8.01v3.18c0,0.04-0.02,0.08-0.02,0.14c0,0-0.02,0.06-0.04,0.2c-0.04,0.49-0.22,1.76-0.69,3.16
			c-0.47,1.42-1.25,2.97-2.43,3.97l-0.4,0.38l0.4,0.34c1.34,1.17,2.15,3.03,2.61,4.57c0.22,0.79,0.36,1.48,0.43,2
			c0.04,0.24,0.08,0.46,0.08,0.59c0.02,0.14,0.04,0.2,0.04,0.2c0,0.06,0.02,0.1,0.02,0.14v16.82c-0.08,0.39-0.2,0.81-0.32,1.26
			c-0.55,1.9-1.44,3.95-2.81,5.52c-0.16,0.18-0.16,0.45,0,0.63c1.36,1.58,2.25,3.64,2.81,5.53c0.12,0.43,0.24,0.85,0.32,1.25v16.84
			c0,0.04-0.02,0.08-0.02,0.12c0,0-0.02,0.06-0.04,0.22c-0.04,0.47-0.22,1.76-0.69,3.16c-0.47,1.4-1.25,2.95-2.43,3.97l-0.4,0.36
			l0.4,0.36c1.34,1.17,2.15,3.01,2.61,4.57c0.22,0.77,0.36,1.48,0.43,1.98c0.04,0.26,0.08,0.45,0.08,0.61
			c0.02,0.12,0.04,0.2,0.04,0.2c0,0.04,0.02,0.08,0.02,0.12v3.18h8.01c-0.22,0.26-0.38,0.55-0.42,0.91l-0.02,0.24
			c0,0.36,0.12,0.69,0.3,0.97c0.06,0.08,0.14,0.14,0.22,0.18c0.04,0.02,0.06,0.04,0.08,0.06c0.44,0.26,0.99,0.1,1.25-0.34
			c0.24-0.44,0.08-0.99-0.36-1.23c-0.12-0.08-0.24-0.1-0.36-0.12c0.06-0.08,0.12-0.14,0.22-0.22c0.22-0.14,0.51-0.24,0.79-0.24h0.14
			c0.63,0.08,1.25,0.51,1.78,1.07c1.19,1.21,2.02,2.69,2.79,4.27c0.39,0.77,0.75,1.56,1.15,2.33c-0.43-0.2-0.87-0.32-1.34-0.32
			c-0.38-0.02-0.79,0.08-1.15,0.3c-0.71,0.42-1.05,1.17-1.05,1.84c0,0.32,0.06,0.63,0.26,0.91c0.16,0.22,0.43,0.38,0.73,0.44
			l0.12,0.06c0.36,0.08,0.73-0.06,0.95-0.34c0.06-0.08,0.1-0.14,0.12-0.24c0-0.02,0.02-0.04,0.04-0.08
			c0.12-0.47-0.16-0.97-0.63-1.11c-0.22-0.06-0.42-0.02-0.59,0.06c0.08-0.3,0.26-0.59,0.51-0.73c0.22-0.12,0.45-0.16,0.69-0.16
			c0.49-0.02,1.11,0.24,1.62,0.65c0.36,0.26,0.65,0.57,0.89,0.87c0.06,0.1,0.1,0.18,0.16,0.28c1.15,1.78,2.63,3.34,4.33,4.59
			c0.04,0.02,0.08,0.06,0.12,0.1c0.04,0.02,0.06,0.02,0.08,0.04c1.4,0.99,2.97,1.76,4.61,2.23c0.61,0.18,1.25,0.32,1.88,0.4
			c-0.45,0.32-0.85,0.69-1.17,1.13c-0.36,0.49-0.61,1.09-0.65,1.76v0.06c0,0.65,0.28,1.32,0.83,1.74c0.32,0.22,0.65,0.32,1.03,0.34
			c0.36,0,0.75-0.14,1.05-0.42c0.2-0.2,0.34-0.44,0.4-0.71c0-0.06,0.02-0.1,0.02-0.14v-0.04c0-0.02-0.02-0.04-0.02-0.06
			c0-0.08,0-0.16-0.04-0.24c-0.02-0.04-0.04-0.08-0.06-0.12c-0.04-0.06-0.06-0.12-0.1-0.16c-0.02-0.02-0.02-0.04-0.02-0.06
			c-0.06-0.04-0.12-0.08-0.18-0.12c-0.02,0-0.02-0.02-0.04-0.04c-0.44-0.24-0.99-0.08-1.23,0.36c-0.14,0.22-0.16,0.49-0.08,0.71
			c-0.06-0.02-0.12-0.04-0.18-0.08c-0.26-0.18-0.44-0.57-0.44-0.97v-0.04c0.02-0.42,0.2-0.83,0.47-1.23
			c0.59-0.85,1.6-1.42,2.63-1.54c0.02,0,0.04-0.02,0.06-0.02c1.34-0.02,2.69-0.2,3.93-0.45c1.84-0.4,3.56-0.85,5.26-0.85
			c0.87,0,1.78,0.12,2.69,0.44c0.93,0.32,1.78,0.83,2.33,1.56c0.38,0.47,0.59,1.11,0.59,1.66c0,0.3-0.06,0.57-0.16,0.83
			c-0.14,0.3-0.42,0.63-0.77,0.87c-0.36,0.26-0.77,0.4-1.11,0.4c-0.18,0-0.34-0.04-0.49-0.12c-0.14-0.1-0.28-0.22-0.38-0.44
			c-0.04-0.08-0.08-0.16-0.1-0.24c0.36,0.06,0.73-0.12,0.91-0.43c0.26-0.44,0.1-0.99-0.34-1.25c-0.4-0.22-0.89-0.1-1.17,0.28
			c0,0,0,0-0.02,0.02c0,0,0,0,0,0.02c-0.02,0-0.04,0.02-0.04,0.02c-0.02,0.04-0.02,0.08-0.04,0.12c-0.18,0.3-0.28,0.63-0.28,0.99
			c0,0.3,0.08,0.61,0.22,0.91c0.18,0.36,0.45,0.63,0.75,0.81c0.32,0.18,0.65,0.26,0.97,0.26c0.59,0,1.17-0.24,1.64-0.55
			c0.38-0.26,0.71-0.59,0.93-0.97c0.24,0.38,0.57,0.71,0.95,0.97c0.47,0.32,1.03,0.55,1.62,0.55c0.34,0,0.67-0.08,0.99-0.26
			c0.3-0.18,0.55-0.45,0.75-0.81c0.14-0.3,0.22-0.61,0.22-0.91c0-0.36-0.12-0.69-0.28-1.01c-0.02-0.02-0.02-0.06-0.04-0.1
			c-0.02,0-0.02-0.02-0.04-0.02c0-0.02,0-0.02,0-0.02c-0.02-0.02-0.02-0.02-0.04-0.02c-0.26-0.38-0.75-0.49-1.15-0.28
			c-0.44,0.26-0.59,0.81-0.36,1.25c0.2,0.32,0.55,0.49,0.91,0.43c-0.02,0.08-0.04,0.16-0.08,0.24c-0.12,0.22-0.26,0.34-0.4,0.44
			c-0.14,0.08-0.3,0.12-0.49,0.12c-0.34,0-0.73-0.14-1.09-0.4c-0.36-0.24-0.65-0.57-0.77-0.87c-0.12-0.26-0.16-0.53-0.16-0.83
			c0-0.55,0.22-1.19,0.57-1.66c0.55-0.73,1.42-1.25,2.35-1.56c0.91-0.32,1.8-0.44,2.69-0.44c1.7,0,3.42,0.45,5.24,0.85
			c1.27,0.26,2.59,0.43,3.93,0.45c0.04,0,0.04,0.02,0.08,0.02c1.03,0.12,2.04,0.69,2.63,1.54c0.28,0.4,0.46,0.81,0.46,1.23v0.04
			c0.02,0.4-0.16,0.79-0.44,0.97c-0.04,0.04-0.1,0.06-0.16,0.08c0.06-0.22,0.06-0.49-0.08-0.71c-0.24-0.43-0.79-0.59-1.23-0.36
			c-0.02,0.02-0.04,0.04-0.04,0.04c-0.08,0.04-0.14,0.08-0.18,0.12c-0.02,0.02-0.02,0.04-0.04,0.06c-0.02,0.04-0.04,0.1-0.08,0.16
			c-0.02,0.04-0.06,0.08-0.06,0.12c-0.04,0.08-0.04,0.16-0.06,0.24v0.06c0,0.02,0,0.02,0,0.04c0,0.04,0,0.08,0.02,0.14
			c0.04,0.28,0.18,0.51,0.38,0.71c0.3,0.28,0.69,0.42,1.07,0.42c0.36-0.02,0.71-0.12,1.03-0.34c0.55-0.42,0.81-1.09,0.81-1.74v-0.06
			c-0.02-0.67-0.3-1.27-0.63-1.76c-0.32-0.44-0.71-0.81-1.17-1.13c0.63-0.08,1.27-0.22,1.88-0.4c1.64-0.47,3.18-1.25,4.59-2.23
			c0.04-0.02,0.06-0.02,0.08-0.04c0.06-0.04,0.08-0.08,0.12-0.1c1.72-1.25,3.2-2.81,4.33-4.59c0.06-0.1,0.12-0.18,0.16-0.28
			c0.24-0.3,0.55-0.61,0.91-0.87c0.51-0.42,1.11-0.67,1.62-0.65c0.24,0,0.45,0.04,0.67,0.16c0.28,0.14,0.45,0.44,0.53,0.73
			c-0.2-0.08-0.39-0.12-0.59-0.06c-0.47,0.14-0.77,0.63-0.63,1.11c0.02,0.04,0.04,0.06,0.04,0.08c0.02,0.1,0.06,0.16,0.12,0.24
			c0.22,0.28,0.59,0.42,0.95,0.34c0.04-0.02,0.08-0.04,0.12-0.06c0.3-0.06,0.57-0.22,0.73-0.44c0.18-0.28,0.26-0.59,0.26-0.91
			c-0.02-0.67-0.34-1.42-1.05-1.84c-0.38-0.22-0.77-0.32-1.15-0.3c-0.47,0-0.93,0.12-1.34,0.32c0.4-0.77,0.75-1.56,1.15-2.33
			c0.77-1.58,1.6-3.06,2.79-4.27c0.53-0.55,1.15-0.99,1.78-1.07h0.14c0.28,0,0.57,0.1,0.79,0.24c0.1,0.08,0.16,0.14,0.22,0.22
			c-0.12,0.02-0.26,0.04-0.36,0.12c-0.43,0.24-0.59,0.79-0.36,1.23c0.24,0.43,0.81,0.59,1.22,0.34c0.04-0.02,0.06-0.04,0.1-0.06
			c0.08-0.04,0.16-0.1,0.22-0.18c0.18-0.28,0.3-0.61,0.3-0.97l-0.02-0.24c-0.04-0.36-0.22-0.65-0.44-0.91h8.01v-3.18
			c0.02-0.04,0.04-0.08,0.04-0.12c0,0,0.02-0.08,0.02-0.2c0.06-0.49,0.24-1.78,0.71-3.18c0.47-1.42,1.25-2.95,2.43-3.97l0.4-0.36
			l-0.4-0.36C525.91,610.61,525.1,608.77,524.66,607.21z M524.07,544.95c0.47,1.25,1.15,2.59,2.19,3.66
			c-1.05,1.05-1.72,2.39-2.19,3.64V544.95z M433.01,615.79c-0.45-1.27-1.15-2.61-2.19-3.66c1.05-1.07,1.74-2.39,2.19-3.66V615.79z
			 M505.09,526.04c0.39,0.45,0.77,0.95,1.11,1.46v0.02c0.1,0.18,0.24,0.38,0.38,0.55c0.83,1.36,1.5,2.89,2.23,4.39
			c0.81,1.6,1.68,3.18,2.97,4.51c0.22,0.2,0.45,0.44,0.73,0.61h-8.05c-1.07-2.35-2.41-4.55-4.03-6.5c0.36,0.1,0.73,0.16,1.11,0.16
			c0.59,0,1.17-0.14,1.72-0.42c0.83-0.45,1.44-1.25,1.74-2.14c0.16-0.47,0.24-0.97,0.24-1.44
			C505.23,526.83,505.19,526.41,505.09,526.04z M490.15,521.19c1.31-0.28,2.67-0.45,4.03-0.45c1.25,0,2.47,0.14,3.62,0.47
			c1.62,0.47,3.14,1.25,4.51,2.23c0.89,0.71,1.6,1.68,1.86,2.77c0.08,0.34,0.12,0.67,0.12,1.03c0,0.4-0.06,0.77-0.18,1.15
			c-0.24,0.67-0.71,1.27-1.31,1.58c-0.38,0.22-0.81,0.32-1.27,0.32c-1.01,0-2.08-0.51-2.63-1.31c-0.32-0.43-0.49-0.99-0.49-1.52
			c0-0.2,0.02-0.42,0.08-0.61c0.2-0.69,0.79-1.28,1.46-1.42c0.1-0.02,0.22-0.04,0.34-0.04c0.57,0,1.17,0.34,1.42,0.81
			c0.08,0.16,0.14,0.36,0.16,0.53c0,0,0,0-0.02,0c-0.38-0.08-0.75,0.1-0.95,0.43c-0.26,0.44-0.1,0.99,0.34,1.23
			c0.12,0.08,0.24,0.1,0.38,0.12c0.32,0.06,0.65-0.06,0.87-0.34c0.04-0.02,0.06-0.04,0.08-0.08c0-0.02,0.02-0.02,0.02-0.02
			s0,0,0-0.02c0.02-0.02,0.04-0.04,0.04-0.06c0.14-0.36,0.22-0.71,0.22-1.09c0-0.38-0.1-0.79-0.28-1.15
			c-0.45-0.85-1.36-1.31-2.27-1.32c-0.18,0-0.36,0.02-0.51,0.06c-1.09,0.22-1.9,1.09-2.2,2.1c-0.08,0.28-0.12,0.57-0.12,0.87
			c0,0.2,0.02,0.38,0.04,0.57c-3.1-2.81-6.84-4.92-10.97-6.13C487.75,521.73,488.94,521.45,490.15,521.19z M478.17,519.69
			c0.16-0.2,0.28-0.42,0.38-0.63c0.12,0.22,0.24,0.44,0.38,0.63c0.36,0.45,0.77,0.81,1.23,1.11c-0.53-0.02-1.05-0.06-1.6-0.06
			c-0.53,0-1.07,0.04-1.6,0.06C477.41,520.5,477.83,520.14,478.17,519.69z M452.94,526.21c0.26-1.09,0.95-2.06,1.86-2.77
			c1.36-0.99,2.89-1.76,4.51-2.23c1.15-0.34,2.37-0.47,3.62-0.47c1.34,0,2.73,0.18,4.01,0.45c1.21,0.26,2.41,0.53,3.64,0.71
			c-4.13,1.21-7.87,3.32-10.99,6.13c0.04-0.2,0.04-0.38,0.06-0.57c0-0.3-0.04-0.59-0.12-0.87c-0.3-1.01-1.13-1.88-2.19-2.1
			c-0.16-0.04-0.34-0.06-0.51-0.06c-0.91,0.02-1.82,0.47-2.27,1.32c-0.18,0.36-0.28,0.77-0.28,1.15c0,0.38,0.08,0.73,0.2,1.09
			c0.02,0.02,0.04,0.04,0.06,0.06v0.02c0,0,0,0.02,0.02,0.02c0.02,0.04,0.04,0.06,0.08,0.08c0.2,0.28,0.53,0.39,0.87,0.34
			c0.12-0.02,0.26-0.04,0.38-0.12c0.43-0.24,0.59-0.79,0.34-1.23c-0.2-0.34-0.59-0.51-0.97-0.43c0.02-0.18,0.06-0.38,0.14-0.53
			c0.26-0.47,0.87-0.81,1.44-0.81c0.12,0,0.22,0.02,0.32,0.04c0.67,0.14,1.29,0.73,1.48,1.42c0.04,0.2,0.08,0.42,0.08,0.61
			c0,0.53-0.18,1.09-0.51,1.52c-0.53,0.79-1.6,1.31-2.61,1.31c-0.45,0-0.89-0.1-1.26-0.32c-0.61-0.32-1.07-0.91-1.31-1.58
			c-0.12-0.38-0.18-0.75-0.18-1.15C452.82,526.89,452.86,526.55,452.94,526.21z M445.31,536.97c1.31-1.32,2.17-2.91,2.99-4.51
			c0.73-1.5,1.4-3.03,2.23-4.39c0.14-0.18,0.26-0.38,0.36-0.55c0,0,0-0.02,0.02-0.02c0.34-0.51,0.71-1.01,1.11-1.46
			c-0.1,0.38-0.14,0.79-0.14,1.21c0,0.47,0.06,0.97,0.22,1.44c0.3,0.89,0.91,1.68,1.76,2.14c0.53,0.28,1.13,0.42,1.72,0.42
			c0.38,0,0.75-0.06,1.11-0.16c-1.62,1.96-2.97,4.15-4.03,6.5h-8.05C444.85,537.4,445.11,537.17,445.31,536.97z M430.82,548.61
			c1.05-1.07,1.74-2.41,2.19-3.66v7.29C432.56,551,431.87,549.66,430.82,548.61z M430.84,580.36c1.27-1.56,2.1-3.46,2.65-5.24
			c0.55,1.78,1.4,3.68,2.67,5.24c-1.27,1.58-2.11,3.46-2.67,5.26C432.93,583.82,432.1,581.94,430.84,580.36z M452.01,634.71
			c-0.4-0.47-0.77-0.95-1.11-1.46c-0.02-0.02-0.02-0.02-0.02-0.04c-0.1-0.18-0.22-0.36-0.36-0.55c-0.83-1.36-1.5-2.89-2.23-4.37
			c-0.81-1.6-1.68-3.18-2.99-4.51c-0.2-0.22-0.45-0.44-0.71-0.63h8.05c1.07,2.37,2.41,4.55,4.03,6.52c-0.36-0.1-0.73-0.16-1.11-0.16
			c-0.59,0-1.19,0.12-1.72,0.42c-0.85,0.44-1.46,1.25-1.76,2.12c-0.16,0.47-0.22,0.97-0.22,1.46
			C451.87,633.92,451.91,634.31,452.01,634.71z M466.94,639.55c-1.28,0.28-2.67,0.45-4.01,0.45c-1.25,0-2.47-0.16-3.62-0.49
			c-1.62-0.47-3.14-1.25-4.51-2.21c-0.91-0.71-1.6-1.7-1.86-2.77c-0.08-0.36-0.12-0.69-0.12-1.03c0-0.4,0.06-0.79,0.18-1.15
			c0.24-0.67,0.69-1.28,1.31-1.6c0.38-0.2,0.81-0.3,1.26-0.3c1.01,0,2.08,0.51,2.61,1.28c0.34,0.45,0.51,1.01,0.51,1.54
			c0,0.2-0.04,0.39-0.08,0.59c-0.2,0.69-0.81,1.31-1.48,1.44c-0.1,0.02-0.2,0.02-0.32,0.02c-0.57,0-1.19-0.34-1.44-0.81
			c-0.08-0.16-0.12-0.34-0.14-0.53c0.08,0.02,0.14,0.02,0.2,0.02c0.32,0,0.61-0.16,0.77-0.44c0.26-0.45,0.1-0.99-0.34-1.25
			c-0.12-0.06-0.26-0.1-0.38-0.12c-0.34-0.06-0.67,0.08-0.87,0.34c-0.04,0.04-0.06,0.06-0.08,0.1c-0.02,0-0.02,0-0.02,0v0.02
			c-0.02,0.02-0.04,0.04-0.06,0.08c-0.12,0.34-0.2,0.71-0.2,1.09s0.1,0.77,0.28,1.15c0.45,0.83,1.36,1.31,2.27,1.31
			c0.18,0,0.36-0.02,0.51-0.06c1.07-0.22,1.9-1.07,2.19-2.09c0.08-0.28,0.12-0.57,0.12-0.85c-0.02-0.2-0.02-0.4-0.06-0.57
			c3.12,2.79,6.86,4.9,10.99,6.13C469.35,639.02,468.14,639.29,466.94,639.55z M478.92,641.05c-0.14,0.2-0.26,0.39-0.38,0.61
			c-0.1-0.22-0.22-0.42-0.38-0.61c-0.34-0.46-0.75-0.83-1.23-1.13c0.53,0.02,1.07,0.06,1.6,0.06c0.55,0,1.07-0.04,1.6-0.06
			C479.69,640.22,479.27,640.6,478.92,641.05z M504.16,634.53c-0.26,1.07-0.97,2.06-1.86,2.77c-1.36,0.97-2.89,1.74-4.51,2.21
			c-1.15,0.34-2.37,0.49-3.62,0.49c-1.36,0-2.73-0.18-4.03-0.45c-1.21-0.26-2.39-0.53-3.62-0.71c4.13-1.23,7.87-3.34,10.97-6.13
			c-0.02,0.18-0.04,0.38-0.04,0.57c0,0.28,0.04,0.57,0.12,0.85c0.3,1.03,1.11,1.88,2.2,2.09c0.16,0.04,0.34,0.06,0.51,0.06
			c0.91,0,1.82-0.47,2.27-1.31c0.18-0.38,0.28-0.77,0.28-1.15s-0.08-0.75-0.22-1.09c0-0.04-0.02-0.06-0.04-0.08v-0.02h-0.02
			c-0.02-0.04-0.04-0.06-0.08-0.1c-0.22-0.26-0.55-0.39-0.87-0.34c-0.14,0.02-0.26,0.06-0.38,0.12c-0.43,0.26-0.59,0.79-0.34,1.25
			c0.2,0.34,0.57,0.49,0.95,0.42c0.02,0,0.02,0,0.02,0c-0.02,0.2-0.08,0.38-0.16,0.53c-0.26,0.47-0.85,0.81-1.42,0.81
			c-0.12,0-0.24,0-0.34-0.02c-0.67-0.14-1.27-0.75-1.46-1.44c-0.06-0.2-0.08-0.39-0.08-0.59c0-0.53,0.18-1.09,0.49-1.54
			c0.55-0.77,1.62-1.28,2.63-1.28c0.46,0,0.89,0.1,1.27,0.3c0.59,0.32,1.07,0.93,1.31,1.6c0.12,0.36,0.18,0.75,0.18,1.15
			C504.28,633.84,504.24,634.17,504.16,634.53z M511.77,623.77c-1.28,1.32-2.15,2.91-2.97,4.51c-0.73,1.48-1.4,3-2.23,4.37
			c-0.14,0.2-0.28,0.38-0.38,0.55c0,0.02,0,0.02,0,0.04c-0.34,0.51-0.71,0.99-1.11,1.46c0.1-0.39,0.14-0.79,0.14-1.21
			c0-0.49-0.08-0.99-0.24-1.46c-0.3-0.87-0.91-1.68-1.74-2.12c-0.55-0.3-1.13-0.42-1.72-0.42c-0.38,0-0.75,0.06-1.11,0.16
			c1.62-1.98,2.97-4.15,4.03-6.52h8.05C512.23,623.34,511.99,623.56,511.77,623.77z M523.12,622.19h-19.28l-0.14,0.3
			c-4.21,9.73-13.88,16.55-25.17,16.55c-11.27,0-20.96-6.82-25.17-16.55l-0.12-0.3h-19.29v-34.71c0.1-0.44,0.22-0.83,0.32-1.27
			c0.57-1.9,1.46-3.95,2.83-5.53c0.14-0.18,0.14-0.46,0-0.63c-1.36-1.56-2.25-3.62-2.83-5.52c-0.1-0.43-0.22-0.85-0.32-1.26v-34.74
			h19.29l0.12-0.28c4.21-9.75,13.9-16.57,25.17-16.57c11.29,0,20.96,6.82,25.17,16.57l0.14,0.28h19.28v34.74
			c-0.08,0.39-0.2,0.81-0.32,1.26c-0.55,1.9-1.44,3.95-2.81,5.52c-0.16,0.18-0.16,0.45,0,0.63c1.36,1.58,2.25,3.64,2.81,5.53
			c0.12,0.43,0.24,0.85,0.32,1.25V622.19z M523.59,585.62c-0.53-1.8-1.38-3.68-2.65-5.26c1.26-1.56,2.11-3.46,2.65-5.24
			c0.55,1.78,1.4,3.68,2.67,5.24C525,581.94,524.15,583.82,523.59,585.62z M524.07,615.79v-7.32c0.47,1.27,1.15,2.59,2.19,3.66
			C525.22,613.18,524.54,614.52,524.07,615.79z"/>
		
			<linearGradient id="SVGID_00000003808677208407355520000014674520647627787704_" gradientUnits="userSpaceOnUse" x1="750.5286" y1="313.4382" x2="281.0013" y2="861.5109">
			<stop  offset="0" style="stop-color:#FF8D3B"/>
			<stop  offset="0.1341" style="stop-color:#F97850"/>
			<stop  offset="0.3406" style="stop-color:#F25F6B"/>
			<stop  offset="0.5519" style="stop-color:#ED4D7E"/>
			<stop  offset="0.7689" style="stop-color:#EA4289"/>
			<stop  offset="1" style="stop-color:#E93E8D"/>
		</linearGradient>
		<path style="fill:url(#SVGID_00000003808677208407355520000014674520647627787704_);" d="M466.02,645.11l-3.48,3.48
			c-0.19,0.19-0.19,0.49,0,0.67c0.19,0.19,0.49,0.19,0.67,0l3.48-3.48c0.19-0.19,0.19-0.49,0-0.67
			C466.5,644.92,466.2,644.92,466.02,645.11z"/>
		
			<linearGradient id="SVGID_00000077318796876050392710000013085661024559174805_" gradientUnits="userSpaceOnUse" x1="761.4489" y1="322.7935" x2="291.9217" y2="870.8663">
			<stop  offset="0" style="stop-color:#FF8D3B"/>
			<stop  offset="0.1341" style="stop-color:#F97850"/>
			<stop  offset="0.3406" style="stop-color:#F25F6B"/>
			<stop  offset="0.5519" style="stop-color:#ED4D7E"/>
			<stop  offset="0.7689" style="stop-color:#EA4289"/>
			<stop  offset="1" style="stop-color:#E93E8D"/>
		</linearGradient>
		<path style="fill:url(#SVGID_00000077318796876050392710000013085661024559174805_);" d="M478.51,650.13
			c-0.26,0-0.47,0.21-0.47,0.47v4.92c0,0.26,0.21,0.47,0.47,0.47c0.26,0,0.47-0.21,0.47-0.47v-4.92
			C478.98,650.35,478.77,650.13,478.51,650.13z"/>
		
			<linearGradient id="SVGID_00000111167401835565830700000007677754739900142261_" gradientUnits="userSpaceOnUse" x1="764.0829" y1="325.05" x2="294.5556" y2="873.1227">
			<stop  offset="0" style="stop-color:#FF8D3B"/>
			<stop  offset="0.1341" style="stop-color:#F97850"/>
			<stop  offset="0.3406" style="stop-color:#F25F6B"/>
			<stop  offset="0.5519" style="stop-color:#ED4D7E"/>
			<stop  offset="0.7689" style="stop-color:#EA4289"/>
			<stop  offset="1" style="stop-color:#E93E8D"/>
		</linearGradient>
		<path style="fill:url(#SVGID_00000111167401835565830700000007677754739900142261_);" d="M483.43,649.94
			c-0.07-0.25-0.33-0.4-0.58-0.34c-0.25,0.07-0.4,0.33-0.34,0.58l1.27,4.75c0.07,0.25,0.33,0.4,0.58,0.34
			c0.25-0.07,0.4-0.33,0.34-0.58L483.43,649.94z"/>
		
			<linearGradient id="SVGID_00000163056910996301242200000005294844533372279430_" gradientUnits="userSpaceOnUse" x1="765.8798" y1="326.5894" x2="296.3525" y2="874.662">
			<stop  offset="0" style="stop-color:#FF8D3B"/>
			<stop  offset="0.1341" style="stop-color:#F97850"/>
			<stop  offset="0.3406" style="stop-color:#F25F6B"/>
			<stop  offset="0.5519" style="stop-color:#ED4D7E"/>
			<stop  offset="0.7689" style="stop-color:#EA4289"/>
			<stop  offset="1" style="stop-color:#E93E8D"/>
		</linearGradient>
		<path style="fill:url(#SVGID_00000163056910996301242200000005294844533372279430_);" d="M487.56,648.14
			c-0.13-0.23-0.42-0.3-0.65-0.17s-0.3,0.42-0.17,0.65l2.46,4.26c0.13,0.23,0.42,0.3,0.65,0.17c0.23-0.13,0.3-0.42,0.17-0.65
			L487.56,648.14z"/>
		
			<linearGradient id="SVGID_00000165209303263944420590000004316092373978298004_" gradientUnits="userSpaceOnUse" x1="766.7172" y1="327.3068" x2="297.1899" y2="875.3795">
			<stop  offset="0" style="stop-color:#FF8D3B"/>
			<stop  offset="0.1341" style="stop-color:#F97850"/>
			<stop  offset="0.3406" style="stop-color:#F25F6B"/>
			<stop  offset="0.5519" style="stop-color:#ED4D7E"/>
			<stop  offset="0.7689" style="stop-color:#EA4289"/>
			<stop  offset="1" style="stop-color:#E93E8D"/>
		</linearGradient>
		<path style="fill:url(#SVGID_00000165209303263944420590000004316092373978298004_);" d="M491.09,645.33
			c-0.19-0.19-0.49-0.19-0.67,0c-0.19,0.19-0.19,0.49,0,0.67l3.48,3.48c0.19,0.19,0.49,0.19,0.67,0c0.19-0.19,0.19-0.49,0-0.67
			L491.09,645.33z"/>
		
			<linearGradient id="SVGID_00000100355578161693098300000006727878636856175239_" gradientUnits="userSpaceOnUse" x1="754.4327" y1="316.7828" x2="284.9055" y2="864.8555">
			<stop  offset="0" style="stop-color:#FF8D3B"/>
			<stop  offset="0.1341" style="stop-color:#F97850"/>
			<stop  offset="0.3406" style="stop-color:#F25F6B"/>
			<stop  offset="0.5519" style="stop-color:#ED4D7E"/>
			<stop  offset="0.7689" style="stop-color:#EA4289"/>
			<stop  offset="1" style="stop-color:#E93E8D"/>
		</linearGradient>
		<path style="fill:url(#SVGID_00000100355578161693098300000006727878636856175239_);" d="M470.14,647.81
			c-0.23-0.13-0.52-0.05-0.65,0.17l-2.46,4.26c-0.13,0.23-0.05,0.52,0.17,0.65c0.23,0.13,0.52,0.05,0.65-0.17l2.46-4.26
			C470.44,648.23,470.36,647.94,470.14,647.81z"/>
		
			<linearGradient id="SVGID_00000060744110565201379860000010108309489778435993_" gradientUnits="userSpaceOnUse" x1="758.1575" y1="319.9737" x2="288.6302" y2="868.0464">
			<stop  offset="0" style="stop-color:#FF8D3B"/>
			<stop  offset="0.1341" style="stop-color:#F97850"/>
			<stop  offset="0.3406" style="stop-color:#F25F6B"/>
			<stop  offset="0.5519" style="stop-color:#ED4D7E"/>
			<stop  offset="0.7689" style="stop-color:#EA4289"/>
			<stop  offset="1" style="stop-color:#E93E8D"/>
		</linearGradient>
		<path style="fill:url(#SVGID_00000060744110565201379860000010108309489778435993_);" d="M474.17,649.52
			c-0.25-0.07-0.51,0.08-0.58,0.34l-1.27,4.75c-0.07,0.25,0.08,0.51,0.34,0.58c0.25,0.07,0.51-0.08,0.58-0.34l1.27-4.75
			C474.57,649.85,474.42,649.59,474.17,649.52z"/>
	</g>
	<g>
		<g>
			
				<linearGradient id="SVGID_00000163036631738071289710000014828282400274876341_" gradientUnits="userSpaceOnUse" x1="741.9752" y1="306.1105" x2="272.4479" y2="854.1833">
				<stop  offset="0" style="stop-color:#FF8D3B"/>
				<stop  offset="0.1341" style="stop-color:#F97850"/>
				<stop  offset="0.3406" style="stop-color:#F25F6B"/>
				<stop  offset="0.5519" style="stop-color:#ED4D7E"/>
				<stop  offset="0.7689" style="stop-color:#EA4289"/>
				<stop  offset="1" style="stop-color:#E93E8D"/>
			</linearGradient>
			<path style="fill:url(#SVGID_00000163036631738071289710000014828282400274876341_);" d="M756.32,525.22v-91.87l-36.99-33.93
				l-49.43-45.35l-36.99-33.93l-49.43-45.35l-18.48-16.96l-18.51-16.98l-7.65-7.01l-34.13-31.31l-7.66-7.02l-18.5-16.98
				l-18.49,16.97l-7.66,7.02l-34.13,31.31l-7.65,7.01l-18.51,16.98l-18.48,16.95l-86.43,79.28l-49.43,45.35l-36.99,33.93v360.51
				h18.5v0.02h518.55v-0.02h18.5v-106.8h-432.1l-0.03-208.34l154.35-141.59l18.5,16.97L632.9,478.73v46.49H756.32z M583.47,385.39
				l-36.99-33.93l-67.94-62.32l-18.49,16.97L287.2,464.67v222.39h0.01l0.03,33.93h432.09v38.95H237.77V447.41l49.43-45.35
				l36.99-33.93l49.43-45.35l44.64-40.94l26.15-24l15.64-14.33l18.49-16.97l18.5,16.98l15.63,14.33l26.15,24l7.65,7.01l36.99,33.93
				l49.43,45.35l86.43,79.28v45.82h-49.43v-28.57l-36.99-33.93L583.47,385.39z"/>
			
				<linearGradient id="SVGID_00000101805628774891329220000015067168062180099718_" gradientUnits="userSpaceOnUse" x1="721.9561" y1="288.9605" x2="252.4288" y2="837.0332">
				<stop  offset="0" style="stop-color:#FF8D3B"/>
				<stop  offset="0.1341" style="stop-color:#F97850"/>
				<stop  offset="0.3406" style="stop-color:#F25F6B"/>
				<stop  offset="0.5519" style="stop-color:#ED4D7E"/>
				<stop  offset="0.7689" style="stop-color:#EA4289"/>
				<stop  offset="1" style="stop-color:#E93E8D"/>
			</linearGradient>
			<polygon style="fill:url(#SVGID_00000101805628774891329220000015067168062180099718_);" points="588.6,484.1 588.6,662.07 
				549.8,662.07 549.8,498.15 497.95,452.81 478.54,435.84 459.15,452.8 407.3,498.15 407.3,662.07 368.5,662.07 368.5,484.1 
				407.3,450.16 459.15,404.81 478.54,387.84 497.95,404.82 549.8,450.16 			"/>
			
				<linearGradient id="SVGID_00000044170742007614087840000009316905684184415892_" gradientUnits="userSpaceOnUse" x1="746.8851" y1="310.3169" x2="277.3578" y2="858.3896">
				<stop  offset="0" style="stop-color:#FF8D3B"/>
				<stop  offset="0.1341" style="stop-color:#F97850"/>
				<stop  offset="0.3406" style="stop-color:#F25F6B"/>
				<stop  offset="0.5519" style="stop-color:#ED4D7E"/>
				<stop  offset="0.7689" style="stop-color:#EA4289"/>
				<stop  offset="1" style="stop-color:#E93E8D"/>
			</linearGradient>
			<path style="display:none;fill:url(#SVGID_00000044170742007614087840000009316905684184415892_);" d="M509.19,585.01v77.07
				h-61.28v-77.07l19.31-17.41h0v0l11.03-9.95c0.15-0.14,0.42-0.14,0.57,0l11.04,9.96L509.19,585.01z"/>
		</g>
	</g>
</g>
</svg>
